%TF.GenerationSoftware,KiCad,Pcbnew,9.0.1*%
%TF.CreationDate,2025-05-16T22:45:18+09:00*%
%TF.ProjectId,H360,48333630-2e6b-4696-9361-645f70636258,rev?*%
%TF.SameCoordinates,Original*%
%TF.FileFunction,AssemblyDrawing,Top*%
%FSLAX46Y46*%
G04 Gerber Fmt 4.6, Leading zero omitted, Abs format (unit mm)*
G04 Created by KiCad (PCBNEW 9.0.1) date 2025-05-16 22:45:18*
%MOMM*%
%LPD*%
G01*
G04 APERTURE LIST*
%ADD10C,0.150000*%
%ADD11C,0.100000*%
G04 APERTURE END LIST*
D10*
X193642856Y-174994819D02*
X193642856Y-173994819D01*
X193642856Y-173994819D02*
X194023808Y-173994819D01*
X194023808Y-173994819D02*
X194119046Y-174042438D01*
X194119046Y-174042438D02*
X194166665Y-174090057D01*
X194166665Y-174090057D02*
X194214284Y-174185295D01*
X194214284Y-174185295D02*
X194214284Y-174328152D01*
X194214284Y-174328152D02*
X194166665Y-174423390D01*
X194166665Y-174423390D02*
X194119046Y-174471009D01*
X194119046Y-174471009D02*
X194023808Y-174518628D01*
X194023808Y-174518628D02*
X193642856Y-174518628D01*
X194642856Y-174994819D02*
X194642856Y-174328152D01*
X194642856Y-173994819D02*
X194595237Y-174042438D01*
X194595237Y-174042438D02*
X194642856Y-174090057D01*
X194642856Y-174090057D02*
X194690475Y-174042438D01*
X194690475Y-174042438D02*
X194642856Y-173994819D01*
X194642856Y-173994819D02*
X194642856Y-174090057D01*
X195119046Y-174328152D02*
X195119046Y-174994819D01*
X195119046Y-174423390D02*
X195166665Y-174375771D01*
X195166665Y-174375771D02*
X195261903Y-174328152D01*
X195261903Y-174328152D02*
X195404760Y-174328152D01*
X195404760Y-174328152D02*
X195499998Y-174375771D01*
X195499998Y-174375771D02*
X195547617Y-174471009D01*
X195547617Y-174471009D02*
X195547617Y-174994819D01*
X196023808Y-174994819D02*
X196023808Y-173994819D01*
X196023808Y-174471009D02*
X196595236Y-174471009D01*
X196595236Y-174994819D02*
X196595236Y-173994819D01*
X197452379Y-174947200D02*
X197357141Y-174994819D01*
X197357141Y-174994819D02*
X197166665Y-174994819D01*
X197166665Y-174994819D02*
X197071427Y-174947200D01*
X197071427Y-174947200D02*
X197023808Y-174851961D01*
X197023808Y-174851961D02*
X197023808Y-174471009D01*
X197023808Y-174471009D02*
X197071427Y-174375771D01*
X197071427Y-174375771D02*
X197166665Y-174328152D01*
X197166665Y-174328152D02*
X197357141Y-174328152D01*
X197357141Y-174328152D02*
X197452379Y-174375771D01*
X197452379Y-174375771D02*
X197499998Y-174471009D01*
X197499998Y-174471009D02*
X197499998Y-174566247D01*
X197499998Y-174566247D02*
X197023808Y-174661485D01*
X198357141Y-174994819D02*
X198357141Y-174471009D01*
X198357141Y-174471009D02*
X198309522Y-174375771D01*
X198309522Y-174375771D02*
X198214284Y-174328152D01*
X198214284Y-174328152D02*
X198023808Y-174328152D01*
X198023808Y-174328152D02*
X197928570Y-174375771D01*
X198357141Y-174947200D02*
X198261903Y-174994819D01*
X198261903Y-174994819D02*
X198023808Y-174994819D01*
X198023808Y-174994819D02*
X197928570Y-174947200D01*
X197928570Y-174947200D02*
X197880951Y-174851961D01*
X197880951Y-174851961D02*
X197880951Y-174756723D01*
X197880951Y-174756723D02*
X197928570Y-174661485D01*
X197928570Y-174661485D02*
X198023808Y-174613866D01*
X198023808Y-174613866D02*
X198261903Y-174613866D01*
X198261903Y-174613866D02*
X198357141Y-174566247D01*
X199261903Y-174994819D02*
X199261903Y-173994819D01*
X199261903Y-174947200D02*
X199166665Y-174994819D01*
X199166665Y-174994819D02*
X198976189Y-174994819D01*
X198976189Y-174994819D02*
X198880951Y-174947200D01*
X198880951Y-174947200D02*
X198833332Y-174899580D01*
X198833332Y-174899580D02*
X198785713Y-174804342D01*
X198785713Y-174804342D02*
X198785713Y-174518628D01*
X198785713Y-174518628D02*
X198833332Y-174423390D01*
X198833332Y-174423390D02*
X198880951Y-174375771D01*
X198880951Y-174375771D02*
X198976189Y-174328152D01*
X198976189Y-174328152D02*
X199166665Y-174328152D01*
X199166665Y-174328152D02*
X199261903Y-174375771D01*
X200119046Y-174947200D02*
X200023808Y-174994819D01*
X200023808Y-174994819D02*
X199833332Y-174994819D01*
X199833332Y-174994819D02*
X199738094Y-174947200D01*
X199738094Y-174947200D02*
X199690475Y-174851961D01*
X199690475Y-174851961D02*
X199690475Y-174471009D01*
X199690475Y-174471009D02*
X199738094Y-174375771D01*
X199738094Y-174375771D02*
X199833332Y-174328152D01*
X199833332Y-174328152D02*
X200023808Y-174328152D01*
X200023808Y-174328152D02*
X200119046Y-174375771D01*
X200119046Y-174375771D02*
X200166665Y-174471009D01*
X200166665Y-174471009D02*
X200166665Y-174566247D01*
X200166665Y-174566247D02*
X199690475Y-174661485D01*
X200595237Y-174994819D02*
X200595237Y-174328152D01*
X200595237Y-174518628D02*
X200642856Y-174423390D01*
X200642856Y-174423390D02*
X200690475Y-174375771D01*
X200690475Y-174375771D02*
X200785713Y-174328152D01*
X200785713Y-174328152D02*
X200880951Y-174328152D01*
X200976190Y-175090057D02*
X201738094Y-175090057D01*
X202499999Y-174994819D02*
X201928571Y-174994819D01*
X202214285Y-174994819D02*
X202214285Y-173994819D01*
X202214285Y-173994819D02*
X202119047Y-174137676D01*
X202119047Y-174137676D02*
X202023809Y-174232914D01*
X202023809Y-174232914D02*
X201928571Y-174280533D01*
X202833333Y-174994819D02*
X203357142Y-174328152D01*
X202833333Y-174328152D02*
X203357142Y-174994819D01*
X203928571Y-173994819D02*
X204023809Y-173994819D01*
X204023809Y-173994819D02*
X204119047Y-174042438D01*
X204119047Y-174042438D02*
X204166666Y-174090057D01*
X204166666Y-174090057D02*
X204214285Y-174185295D01*
X204214285Y-174185295D02*
X204261904Y-174375771D01*
X204261904Y-174375771D02*
X204261904Y-174613866D01*
X204261904Y-174613866D02*
X204214285Y-174804342D01*
X204214285Y-174804342D02*
X204166666Y-174899580D01*
X204166666Y-174899580D02*
X204119047Y-174947200D01*
X204119047Y-174947200D02*
X204023809Y-174994819D01*
X204023809Y-174994819D02*
X203928571Y-174994819D01*
X203928571Y-174994819D02*
X203833333Y-174947200D01*
X203833333Y-174947200D02*
X203785714Y-174899580D01*
X203785714Y-174899580D02*
X203738095Y-174804342D01*
X203738095Y-174804342D02*
X203690476Y-174613866D01*
X203690476Y-174613866D02*
X203690476Y-174375771D01*
X203690476Y-174375771D02*
X203738095Y-174185295D01*
X203738095Y-174185295D02*
X203785714Y-174090057D01*
X203785714Y-174090057D02*
X203833333Y-174042438D01*
X203833333Y-174042438D02*
X203928571Y-173994819D01*
X205166666Y-173994819D02*
X204690476Y-173994819D01*
X204690476Y-173994819D02*
X204642857Y-174471009D01*
X204642857Y-174471009D02*
X204690476Y-174423390D01*
X204690476Y-174423390D02*
X204785714Y-174375771D01*
X204785714Y-174375771D02*
X205023809Y-174375771D01*
X205023809Y-174375771D02*
X205119047Y-174423390D01*
X205119047Y-174423390D02*
X205166666Y-174471009D01*
X205166666Y-174471009D02*
X205214285Y-174566247D01*
X205214285Y-174566247D02*
X205214285Y-174804342D01*
X205214285Y-174804342D02*
X205166666Y-174899580D01*
X205166666Y-174899580D02*
X205119047Y-174947200D01*
X205119047Y-174947200D02*
X205023809Y-174994819D01*
X205023809Y-174994819D02*
X204785714Y-174994819D01*
X204785714Y-174994819D02*
X204690476Y-174947200D01*
X204690476Y-174947200D02*
X204642857Y-174899580D01*
X205404762Y-175090057D02*
X206166666Y-175090057D01*
X206404762Y-174994819D02*
X206404762Y-173994819D01*
X206404762Y-173994819D02*
X206785714Y-173994819D01*
X206785714Y-173994819D02*
X206880952Y-174042438D01*
X206880952Y-174042438D02*
X206928571Y-174090057D01*
X206928571Y-174090057D02*
X206976190Y-174185295D01*
X206976190Y-174185295D02*
X206976190Y-174328152D01*
X206976190Y-174328152D02*
X206928571Y-174423390D01*
X206928571Y-174423390D02*
X206880952Y-174471009D01*
X206880952Y-174471009D02*
X206785714Y-174518628D01*
X206785714Y-174518628D02*
X206404762Y-174518628D01*
X207357143Y-174090057D02*
X207404762Y-174042438D01*
X207404762Y-174042438D02*
X207500000Y-173994819D01*
X207500000Y-173994819D02*
X207738095Y-173994819D01*
X207738095Y-173994819D02*
X207833333Y-174042438D01*
X207833333Y-174042438D02*
X207880952Y-174090057D01*
X207880952Y-174090057D02*
X207928571Y-174185295D01*
X207928571Y-174185295D02*
X207928571Y-174280533D01*
X207928571Y-174280533D02*
X207880952Y-174423390D01*
X207880952Y-174423390D02*
X207309524Y-174994819D01*
X207309524Y-174994819D02*
X207928571Y-174994819D01*
X208357143Y-174899580D02*
X208404762Y-174947200D01*
X208404762Y-174947200D02*
X208357143Y-174994819D01*
X208357143Y-174994819D02*
X208309524Y-174947200D01*
X208309524Y-174947200D02*
X208357143Y-174899580D01*
X208357143Y-174899580D02*
X208357143Y-174994819D01*
X209309523Y-173994819D02*
X208833333Y-173994819D01*
X208833333Y-173994819D02*
X208785714Y-174471009D01*
X208785714Y-174471009D02*
X208833333Y-174423390D01*
X208833333Y-174423390D02*
X208928571Y-174375771D01*
X208928571Y-174375771D02*
X209166666Y-174375771D01*
X209166666Y-174375771D02*
X209261904Y-174423390D01*
X209261904Y-174423390D02*
X209309523Y-174471009D01*
X209309523Y-174471009D02*
X209357142Y-174566247D01*
X209357142Y-174566247D02*
X209357142Y-174804342D01*
X209357142Y-174804342D02*
X209309523Y-174899580D01*
X209309523Y-174899580D02*
X209261904Y-174947200D01*
X209261904Y-174947200D02*
X209166666Y-174994819D01*
X209166666Y-174994819D02*
X208928571Y-174994819D01*
X208928571Y-174994819D02*
X208833333Y-174947200D01*
X208833333Y-174947200D02*
X208785714Y-174899580D01*
X210214285Y-174328152D02*
X210214285Y-174994819D01*
X209976190Y-173947200D02*
X209738095Y-174661485D01*
X209738095Y-174661485D02*
X210357142Y-174661485D01*
X210738095Y-174994819D02*
X210738095Y-174328152D01*
X210738095Y-174423390D02*
X210785714Y-174375771D01*
X210785714Y-174375771D02*
X210880952Y-174328152D01*
X210880952Y-174328152D02*
X211023809Y-174328152D01*
X211023809Y-174328152D02*
X211119047Y-174375771D01*
X211119047Y-174375771D02*
X211166666Y-174471009D01*
X211166666Y-174471009D02*
X211166666Y-174994819D01*
X211166666Y-174471009D02*
X211214285Y-174375771D01*
X211214285Y-174375771D02*
X211309523Y-174328152D01*
X211309523Y-174328152D02*
X211452380Y-174328152D01*
X211452380Y-174328152D02*
X211547619Y-174375771D01*
X211547619Y-174375771D02*
X211595238Y-174471009D01*
X211595238Y-174471009D02*
X211595238Y-174994819D01*
X212071428Y-174994819D02*
X212071428Y-174328152D01*
X212071428Y-174423390D02*
X212119047Y-174375771D01*
X212119047Y-174375771D02*
X212214285Y-174328152D01*
X212214285Y-174328152D02*
X212357142Y-174328152D01*
X212357142Y-174328152D02*
X212452380Y-174375771D01*
X212452380Y-174375771D02*
X212499999Y-174471009D01*
X212499999Y-174471009D02*
X212499999Y-174994819D01*
X212499999Y-174471009D02*
X212547618Y-174375771D01*
X212547618Y-174375771D02*
X212642856Y-174328152D01*
X212642856Y-174328152D02*
X212785713Y-174328152D01*
X212785713Y-174328152D02*
X212880952Y-174375771D01*
X212880952Y-174375771D02*
X212928571Y-174471009D01*
X212928571Y-174471009D02*
X212928571Y-174994819D01*
X213166666Y-175090057D02*
X213928570Y-175090057D01*
X214023809Y-173994819D02*
X214357142Y-174994819D01*
X214357142Y-174994819D02*
X214690475Y-173994819D01*
X215404761Y-174947200D02*
X215309523Y-174994819D01*
X215309523Y-174994819D02*
X215119047Y-174994819D01*
X215119047Y-174994819D02*
X215023809Y-174947200D01*
X215023809Y-174947200D02*
X214976190Y-174851961D01*
X214976190Y-174851961D02*
X214976190Y-174471009D01*
X214976190Y-174471009D02*
X215023809Y-174375771D01*
X215023809Y-174375771D02*
X215119047Y-174328152D01*
X215119047Y-174328152D02*
X215309523Y-174328152D01*
X215309523Y-174328152D02*
X215404761Y-174375771D01*
X215404761Y-174375771D02*
X215452380Y-174471009D01*
X215452380Y-174471009D02*
X215452380Y-174566247D01*
X215452380Y-174566247D02*
X214976190Y-174661485D01*
X215880952Y-174994819D02*
X215880952Y-174328152D01*
X215880952Y-174518628D02*
X215928571Y-174423390D01*
X215928571Y-174423390D02*
X215976190Y-174375771D01*
X215976190Y-174375771D02*
X216071428Y-174328152D01*
X216071428Y-174328152D02*
X216166666Y-174328152D01*
X216357143Y-174328152D02*
X216738095Y-174328152D01*
X216500000Y-173994819D02*
X216500000Y-174851961D01*
X216500000Y-174851961D02*
X216547619Y-174947200D01*
X216547619Y-174947200D02*
X216642857Y-174994819D01*
X216642857Y-174994819D02*
X216738095Y-174994819D01*
X217071429Y-174994819D02*
X217071429Y-174328152D01*
X217071429Y-173994819D02*
X217023810Y-174042438D01*
X217023810Y-174042438D02*
X217071429Y-174090057D01*
X217071429Y-174090057D02*
X217119048Y-174042438D01*
X217119048Y-174042438D02*
X217071429Y-173994819D01*
X217071429Y-173994819D02*
X217071429Y-174090057D01*
X217976190Y-174947200D02*
X217880952Y-174994819D01*
X217880952Y-174994819D02*
X217690476Y-174994819D01*
X217690476Y-174994819D02*
X217595238Y-174947200D01*
X217595238Y-174947200D02*
X217547619Y-174899580D01*
X217547619Y-174899580D02*
X217500000Y-174804342D01*
X217500000Y-174804342D02*
X217500000Y-174518628D01*
X217500000Y-174518628D02*
X217547619Y-174423390D01*
X217547619Y-174423390D02*
X217595238Y-174375771D01*
X217595238Y-174375771D02*
X217690476Y-174328152D01*
X217690476Y-174328152D02*
X217880952Y-174328152D01*
X217880952Y-174328152D02*
X217976190Y-174375771D01*
X218833333Y-174994819D02*
X218833333Y-174471009D01*
X218833333Y-174471009D02*
X218785714Y-174375771D01*
X218785714Y-174375771D02*
X218690476Y-174328152D01*
X218690476Y-174328152D02*
X218500000Y-174328152D01*
X218500000Y-174328152D02*
X218404762Y-174375771D01*
X218833333Y-174947200D02*
X218738095Y-174994819D01*
X218738095Y-174994819D02*
X218500000Y-174994819D01*
X218500000Y-174994819D02*
X218404762Y-174947200D01*
X218404762Y-174947200D02*
X218357143Y-174851961D01*
X218357143Y-174851961D02*
X218357143Y-174756723D01*
X218357143Y-174756723D02*
X218404762Y-174661485D01*
X218404762Y-174661485D02*
X218500000Y-174613866D01*
X218500000Y-174613866D02*
X218738095Y-174613866D01*
X218738095Y-174613866D02*
X218833333Y-174566247D01*
X219452381Y-174994819D02*
X219357143Y-174947200D01*
X219357143Y-174947200D02*
X219309524Y-174851961D01*
X219309524Y-174851961D02*
X219309524Y-173994819D01*
X206954819Y-168413333D02*
X206478628Y-168746666D01*
X206954819Y-168984761D02*
X205954819Y-168984761D01*
X205954819Y-168984761D02*
X205954819Y-168603809D01*
X205954819Y-168603809D02*
X206002438Y-168508571D01*
X206002438Y-168508571D02*
X206050057Y-168460952D01*
X206050057Y-168460952D02*
X206145295Y-168413333D01*
X206145295Y-168413333D02*
X206288152Y-168413333D01*
X206288152Y-168413333D02*
X206383390Y-168460952D01*
X206383390Y-168460952D02*
X206431009Y-168508571D01*
X206431009Y-168508571D02*
X206478628Y-168603809D01*
X206478628Y-168603809D02*
X206478628Y-168984761D01*
X206431009Y-167984761D02*
X206431009Y-167651428D01*
X206954819Y-167508571D02*
X206954819Y-167984761D01*
X206954819Y-167984761D02*
X205954819Y-167984761D01*
X205954819Y-167984761D02*
X205954819Y-167508571D01*
X206431009Y-166746666D02*
X206431009Y-167079999D01*
X206954819Y-167079999D02*
X205954819Y-167079999D01*
X205954819Y-167079999D02*
X205954819Y-166603809D01*
X205954819Y-166079999D02*
X206192914Y-166079999D01*
X206097676Y-166318094D02*
X206192914Y-166079999D01*
X206192914Y-166079999D02*
X206097676Y-165841904D01*
X206383390Y-166222856D02*
X206192914Y-166079999D01*
X206192914Y-166079999D02*
X206383390Y-165937142D01*
X205954819Y-165318094D02*
X206192914Y-165318094D01*
X206097676Y-165556189D02*
X206192914Y-165318094D01*
X206192914Y-165318094D02*
X206097676Y-165079999D01*
X206383390Y-165460951D02*
X206192914Y-165318094D01*
X206192914Y-165318094D02*
X206383390Y-165175237D01*
D11*
%TO.C,REF\u002A\u002A*%
X205230000Y-161365000D02*
X205865000Y-160730000D01*
X205230000Y-173430000D02*
X205230000Y-161365000D01*
X205865000Y-160730000D02*
X207770000Y-160730000D01*
X207770000Y-160730000D02*
X207770000Y-173430000D01*
X207770000Y-173430000D02*
X205230000Y-173430000D01*
%TD*%
M02*
