%TF.GenerationSoftware,KiCad,Pcbnew,9.0.1*%
%TF.CreationDate,2025-05-16T22:45:18+09:00*%
%TF.ProjectId,H360,48333630-2e6b-4696-9361-645f70636258,rev?*%
%TF.SameCoordinates,Original*%
%TF.FileFunction,Legend,Bot*%
%TF.FilePolarity,Positive*%
%FSLAX46Y46*%
G04 Gerber Fmt 4.6, Leading zero omitted, Abs format (unit mm)*
G04 Created by KiCad (PCBNEW 9.0.1) date 2025-05-16 22:45:18*
%MOMM*%
%LPD*%
G01*
G04 APERTURE LIST*
%ADD10C,0.125000*%
%ADD11C,0.150000*%
%ADD12C,0.120000*%
%ADD13C,0.127000*%
%ADD14C,0.200000*%
G04 APERTURE END LIST*
D10*
X74833333Y-139224809D02*
X74999999Y-138986714D01*
X75119047Y-139224809D02*
X75119047Y-138724809D01*
X75119047Y-138724809D02*
X74928571Y-138724809D01*
X74928571Y-138724809D02*
X74880952Y-138748619D01*
X74880952Y-138748619D02*
X74857142Y-138772428D01*
X74857142Y-138772428D02*
X74833333Y-138820047D01*
X74833333Y-138820047D02*
X74833333Y-138891476D01*
X74833333Y-138891476D02*
X74857142Y-138939095D01*
X74857142Y-138939095D02*
X74880952Y-138962904D01*
X74880952Y-138962904D02*
X74928571Y-138986714D01*
X74928571Y-138986714D02*
X75119047Y-138986714D01*
X74666666Y-138724809D02*
X74333333Y-138724809D01*
X74333333Y-138724809D02*
X74547618Y-139224809D01*
D11*
X213954819Y-185738095D02*
X214764342Y-185738095D01*
X214764342Y-185738095D02*
X214859580Y-185785714D01*
X214859580Y-185785714D02*
X214907200Y-185833333D01*
X214907200Y-185833333D02*
X214954819Y-185928571D01*
X214954819Y-185928571D02*
X214954819Y-186119047D01*
X214954819Y-186119047D02*
X214907200Y-186214285D01*
X214907200Y-186214285D02*
X214859580Y-186261904D01*
X214859580Y-186261904D02*
X214764342Y-186309523D01*
X214764342Y-186309523D02*
X213954819Y-186309523D01*
X213954819Y-186690476D02*
X213954819Y-187309523D01*
X213954819Y-187309523D02*
X214335771Y-186976190D01*
X214335771Y-186976190D02*
X214335771Y-187119047D01*
X214335771Y-187119047D02*
X214383390Y-187214285D01*
X214383390Y-187214285D02*
X214431009Y-187261904D01*
X214431009Y-187261904D02*
X214526247Y-187309523D01*
X214526247Y-187309523D02*
X214764342Y-187309523D01*
X214764342Y-187309523D02*
X214859580Y-187261904D01*
X214859580Y-187261904D02*
X214907200Y-187214285D01*
X214907200Y-187214285D02*
X214954819Y-187119047D01*
X214954819Y-187119047D02*
X214954819Y-186833333D01*
X214954819Y-186833333D02*
X214907200Y-186738095D01*
X214907200Y-186738095D02*
X214859580Y-186690476D01*
X191955826Y-193407200D02*
X191812969Y-193454819D01*
X191812969Y-193454819D02*
X191574874Y-193454819D01*
X191574874Y-193454819D02*
X191479636Y-193407200D01*
X191479636Y-193407200D02*
X191432017Y-193359580D01*
X191432017Y-193359580D02*
X191384398Y-193264342D01*
X191384398Y-193264342D02*
X191384398Y-193169104D01*
X191384398Y-193169104D02*
X191432017Y-193073866D01*
X191432017Y-193073866D02*
X191479636Y-193026247D01*
X191479636Y-193026247D02*
X191574874Y-192978628D01*
X191574874Y-192978628D02*
X191765350Y-192931009D01*
X191765350Y-192931009D02*
X191860588Y-192883390D01*
X191860588Y-192883390D02*
X191908207Y-192835771D01*
X191908207Y-192835771D02*
X191955826Y-192740533D01*
X191955826Y-192740533D02*
X191955826Y-192645295D01*
X191955826Y-192645295D02*
X191908207Y-192550057D01*
X191908207Y-192550057D02*
X191860588Y-192502438D01*
X191860588Y-192502438D02*
X191765350Y-192454819D01*
X191765350Y-192454819D02*
X191527255Y-192454819D01*
X191527255Y-192454819D02*
X191384398Y-192502438D01*
X191051064Y-192454819D02*
X190812969Y-193454819D01*
X190812969Y-193454819D02*
X190622493Y-192740533D01*
X190622493Y-192740533D02*
X190432017Y-193454819D01*
X190432017Y-193454819D02*
X190193922Y-192454819D01*
X189908207Y-192454819D02*
X189289160Y-192454819D01*
X189289160Y-192454819D02*
X189622493Y-192835771D01*
X189622493Y-192835771D02*
X189479636Y-192835771D01*
X189479636Y-192835771D02*
X189384398Y-192883390D01*
X189384398Y-192883390D02*
X189336779Y-192931009D01*
X189336779Y-192931009D02*
X189289160Y-193026247D01*
X189289160Y-193026247D02*
X189289160Y-193264342D01*
X189289160Y-193264342D02*
X189336779Y-193359580D01*
X189336779Y-193359580D02*
X189384398Y-193407200D01*
X189384398Y-193407200D02*
X189479636Y-193454819D01*
X189479636Y-193454819D02*
X189765350Y-193454819D01*
X189765350Y-193454819D02*
X189860588Y-193407200D01*
X189860588Y-193407200D02*
X189908207Y-193359580D01*
X203209580Y-187558333D02*
X203257200Y-187510714D01*
X203257200Y-187510714D02*
X203304819Y-187367857D01*
X203304819Y-187367857D02*
X203304819Y-187272619D01*
X203304819Y-187272619D02*
X203257200Y-187129762D01*
X203257200Y-187129762D02*
X203161961Y-187034524D01*
X203161961Y-187034524D02*
X203066723Y-186986905D01*
X203066723Y-186986905D02*
X202876247Y-186939286D01*
X202876247Y-186939286D02*
X202733390Y-186939286D01*
X202733390Y-186939286D02*
X202542914Y-186986905D01*
X202542914Y-186986905D02*
X202447676Y-187034524D01*
X202447676Y-187034524D02*
X202352438Y-187129762D01*
X202352438Y-187129762D02*
X202304819Y-187272619D01*
X202304819Y-187272619D02*
X202304819Y-187367857D01*
X202304819Y-187367857D02*
X202352438Y-187510714D01*
X202352438Y-187510714D02*
X202400057Y-187558333D01*
X202304819Y-187891667D02*
X202304819Y-188558333D01*
X202304819Y-188558333D02*
X203304819Y-188129762D01*
X192455826Y-179907200D02*
X192312969Y-179954819D01*
X192312969Y-179954819D02*
X192074874Y-179954819D01*
X192074874Y-179954819D02*
X191979636Y-179907200D01*
X191979636Y-179907200D02*
X191932017Y-179859580D01*
X191932017Y-179859580D02*
X191884398Y-179764342D01*
X191884398Y-179764342D02*
X191884398Y-179669104D01*
X191884398Y-179669104D02*
X191932017Y-179573866D01*
X191932017Y-179573866D02*
X191979636Y-179526247D01*
X191979636Y-179526247D02*
X192074874Y-179478628D01*
X192074874Y-179478628D02*
X192265350Y-179431009D01*
X192265350Y-179431009D02*
X192360588Y-179383390D01*
X192360588Y-179383390D02*
X192408207Y-179335771D01*
X192408207Y-179335771D02*
X192455826Y-179240533D01*
X192455826Y-179240533D02*
X192455826Y-179145295D01*
X192455826Y-179145295D02*
X192408207Y-179050057D01*
X192408207Y-179050057D02*
X192360588Y-179002438D01*
X192360588Y-179002438D02*
X192265350Y-178954819D01*
X192265350Y-178954819D02*
X192027255Y-178954819D01*
X192027255Y-178954819D02*
X191884398Y-179002438D01*
X191551064Y-178954819D02*
X191312969Y-179954819D01*
X191312969Y-179954819D02*
X191122493Y-179240533D01*
X191122493Y-179240533D02*
X190932017Y-179954819D01*
X190932017Y-179954819D02*
X190693922Y-178954819D01*
X190360588Y-179050057D02*
X190312969Y-179002438D01*
X190312969Y-179002438D02*
X190217731Y-178954819D01*
X190217731Y-178954819D02*
X189979636Y-178954819D01*
X189979636Y-178954819D02*
X189884398Y-179002438D01*
X189884398Y-179002438D02*
X189836779Y-179050057D01*
X189836779Y-179050057D02*
X189789160Y-179145295D01*
X189789160Y-179145295D02*
X189789160Y-179240533D01*
X189789160Y-179240533D02*
X189836779Y-179383390D01*
X189836779Y-179383390D02*
X190408207Y-179954819D01*
X190408207Y-179954819D02*
X189789160Y-179954819D01*
X184223569Y-191666964D02*
X183223569Y-191666964D01*
X183223569Y-191666964D02*
X183223569Y-191905059D01*
X183223569Y-191905059D02*
X183271188Y-192047916D01*
X183271188Y-192047916D02*
X183366426Y-192143154D01*
X183366426Y-192143154D02*
X183461664Y-192190773D01*
X183461664Y-192190773D02*
X183652140Y-192238392D01*
X183652140Y-192238392D02*
X183794997Y-192238392D01*
X183794997Y-192238392D02*
X183985473Y-192190773D01*
X183985473Y-192190773D02*
X184080711Y-192143154D01*
X184080711Y-192143154D02*
X184175950Y-192047916D01*
X184175950Y-192047916D02*
X184223569Y-191905059D01*
X184223569Y-191905059D02*
X184223569Y-191666964D01*
X183223569Y-193095535D02*
X183223569Y-192905059D01*
X183223569Y-192905059D02*
X183271188Y-192809821D01*
X183271188Y-192809821D02*
X183318807Y-192762202D01*
X183318807Y-192762202D02*
X183461664Y-192666964D01*
X183461664Y-192666964D02*
X183652140Y-192619345D01*
X183652140Y-192619345D02*
X184033092Y-192619345D01*
X184033092Y-192619345D02*
X184128330Y-192666964D01*
X184128330Y-192666964D02*
X184175950Y-192714583D01*
X184175950Y-192714583D02*
X184223569Y-192809821D01*
X184223569Y-192809821D02*
X184223569Y-193000297D01*
X184223569Y-193000297D02*
X184175950Y-193095535D01*
X184175950Y-193095535D02*
X184128330Y-193143154D01*
X184128330Y-193143154D02*
X184033092Y-193190773D01*
X184033092Y-193190773D02*
X183794997Y-193190773D01*
X183794997Y-193190773D02*
X183699759Y-193143154D01*
X183699759Y-193143154D02*
X183652140Y-193095535D01*
X183652140Y-193095535D02*
X183604521Y-193000297D01*
X183604521Y-193000297D02*
X183604521Y-192809821D01*
X183604521Y-192809821D02*
X183652140Y-192714583D01*
X183652140Y-192714583D02*
X183699759Y-192666964D01*
X183699759Y-192666964D02*
X183794997Y-192619345D01*
X183318807Y-193571726D02*
X183271188Y-193619345D01*
X183271188Y-193619345D02*
X183223569Y-193714583D01*
X183223569Y-193714583D02*
X183223569Y-193952678D01*
X183223569Y-193952678D02*
X183271188Y-194047916D01*
X183271188Y-194047916D02*
X183318807Y-194095535D01*
X183318807Y-194095535D02*
X183414045Y-194143154D01*
X183414045Y-194143154D02*
X183509283Y-194143154D01*
X183509283Y-194143154D02*
X183652140Y-194095535D01*
X183652140Y-194095535D02*
X184223569Y-193524107D01*
X184223569Y-193524107D02*
X184223569Y-194143154D01*
X200761904Y-191454819D02*
X200761904Y-192264342D01*
X200761904Y-192264342D02*
X200714285Y-192359580D01*
X200714285Y-192359580D02*
X200666666Y-192407200D01*
X200666666Y-192407200D02*
X200571428Y-192454819D01*
X200571428Y-192454819D02*
X200380952Y-192454819D01*
X200380952Y-192454819D02*
X200285714Y-192407200D01*
X200285714Y-192407200D02*
X200238095Y-192359580D01*
X200238095Y-192359580D02*
X200190476Y-192264342D01*
X200190476Y-192264342D02*
X200190476Y-191454819D01*
X199285714Y-191788152D02*
X199285714Y-192454819D01*
X199523809Y-191407200D02*
X199761904Y-192121485D01*
X199761904Y-192121485D02*
X199142857Y-192121485D01*
X75704819Y-141083333D02*
X75228628Y-140750000D01*
X75704819Y-140511905D02*
X74704819Y-140511905D01*
X74704819Y-140511905D02*
X74704819Y-140892857D01*
X74704819Y-140892857D02*
X74752438Y-140988095D01*
X74752438Y-140988095D02*
X74800057Y-141035714D01*
X74800057Y-141035714D02*
X74895295Y-141083333D01*
X74895295Y-141083333D02*
X75038152Y-141083333D01*
X75038152Y-141083333D02*
X75133390Y-141035714D01*
X75133390Y-141035714D02*
X75181009Y-140988095D01*
X75181009Y-140988095D02*
X75228628Y-140892857D01*
X75228628Y-140892857D02*
X75228628Y-140511905D01*
X74704819Y-141416667D02*
X74704819Y-142035714D01*
X74704819Y-142035714D02*
X75085771Y-141702381D01*
X75085771Y-141702381D02*
X75085771Y-141845238D01*
X75085771Y-141845238D02*
X75133390Y-141940476D01*
X75133390Y-141940476D02*
X75181009Y-141988095D01*
X75181009Y-141988095D02*
X75276247Y-142035714D01*
X75276247Y-142035714D02*
X75514342Y-142035714D01*
X75514342Y-142035714D02*
X75609580Y-141988095D01*
X75609580Y-141988095D02*
X75657200Y-141940476D01*
X75657200Y-141940476D02*
X75704819Y-141845238D01*
X75704819Y-141845238D02*
X75704819Y-141559524D01*
X75704819Y-141559524D02*
X75657200Y-141464286D01*
X75657200Y-141464286D02*
X75609580Y-141416667D01*
X84166666Y-114124819D02*
X84642856Y-114124819D01*
X84642856Y-114124819D02*
X84642856Y-113124819D01*
X83309523Y-114124819D02*
X83880951Y-114124819D01*
X83595237Y-114124819D02*
X83595237Y-113124819D01*
X83595237Y-113124819D02*
X83690475Y-113267676D01*
X83690475Y-113267676D02*
X83785713Y-113362914D01*
X83785713Y-113362914D02*
X83880951Y-113410533D01*
X80454819Y-139333333D02*
X79978628Y-139000000D01*
X80454819Y-138761905D02*
X79454819Y-138761905D01*
X79454819Y-138761905D02*
X79454819Y-139142857D01*
X79454819Y-139142857D02*
X79502438Y-139238095D01*
X79502438Y-139238095D02*
X79550057Y-139285714D01*
X79550057Y-139285714D02*
X79645295Y-139333333D01*
X79645295Y-139333333D02*
X79788152Y-139333333D01*
X79788152Y-139333333D02*
X79883390Y-139285714D01*
X79883390Y-139285714D02*
X79931009Y-139238095D01*
X79931009Y-139238095D02*
X79978628Y-139142857D01*
X79978628Y-139142857D02*
X79978628Y-138761905D01*
X79454819Y-140190476D02*
X79454819Y-140000000D01*
X79454819Y-140000000D02*
X79502438Y-139904762D01*
X79502438Y-139904762D02*
X79550057Y-139857143D01*
X79550057Y-139857143D02*
X79692914Y-139761905D01*
X79692914Y-139761905D02*
X79883390Y-139714286D01*
X79883390Y-139714286D02*
X80264342Y-139714286D01*
X80264342Y-139714286D02*
X80359580Y-139761905D01*
X80359580Y-139761905D02*
X80407200Y-139809524D01*
X80407200Y-139809524D02*
X80454819Y-139904762D01*
X80454819Y-139904762D02*
X80454819Y-140095238D01*
X80454819Y-140095238D02*
X80407200Y-140190476D01*
X80407200Y-140190476D02*
X80359580Y-140238095D01*
X80359580Y-140238095D02*
X80264342Y-140285714D01*
X80264342Y-140285714D02*
X80026247Y-140285714D01*
X80026247Y-140285714D02*
X79931009Y-140238095D01*
X79931009Y-140238095D02*
X79883390Y-140190476D01*
X79883390Y-140190476D02*
X79835771Y-140095238D01*
X79835771Y-140095238D02*
X79835771Y-139904762D01*
X79835771Y-139904762D02*
X79883390Y-139809524D01*
X79883390Y-139809524D02*
X79931009Y-139761905D01*
X79931009Y-139761905D02*
X80026247Y-139714286D01*
X82954819Y-137083333D02*
X82478628Y-136750000D01*
X82954819Y-136511905D02*
X81954819Y-136511905D01*
X81954819Y-136511905D02*
X81954819Y-136892857D01*
X81954819Y-136892857D02*
X82002438Y-136988095D01*
X82002438Y-136988095D02*
X82050057Y-137035714D01*
X82050057Y-137035714D02*
X82145295Y-137083333D01*
X82145295Y-137083333D02*
X82288152Y-137083333D01*
X82288152Y-137083333D02*
X82383390Y-137035714D01*
X82383390Y-137035714D02*
X82431009Y-136988095D01*
X82431009Y-136988095D02*
X82478628Y-136892857D01*
X82478628Y-136892857D02*
X82478628Y-136511905D01*
X82288152Y-137940476D02*
X82954819Y-137940476D01*
X81907200Y-137702381D02*
X82621485Y-137464286D01*
X82621485Y-137464286D02*
X82621485Y-138083333D01*
X73429580Y-133333333D02*
X73477200Y-133285714D01*
X73477200Y-133285714D02*
X73524819Y-133142857D01*
X73524819Y-133142857D02*
X73524819Y-133047619D01*
X73524819Y-133047619D02*
X73477200Y-132904762D01*
X73477200Y-132904762D02*
X73381961Y-132809524D01*
X73381961Y-132809524D02*
X73286723Y-132761905D01*
X73286723Y-132761905D02*
X73096247Y-132714286D01*
X73096247Y-132714286D02*
X72953390Y-132714286D01*
X72953390Y-132714286D02*
X72762914Y-132761905D01*
X72762914Y-132761905D02*
X72667676Y-132809524D01*
X72667676Y-132809524D02*
X72572438Y-132904762D01*
X72572438Y-132904762D02*
X72524819Y-133047619D01*
X72524819Y-133047619D02*
X72524819Y-133142857D01*
X72524819Y-133142857D02*
X72572438Y-133285714D01*
X72572438Y-133285714D02*
X72620057Y-133333333D01*
X72524819Y-133666667D02*
X72524819Y-134285714D01*
X72524819Y-134285714D02*
X72905771Y-133952381D01*
X72905771Y-133952381D02*
X72905771Y-134095238D01*
X72905771Y-134095238D02*
X72953390Y-134190476D01*
X72953390Y-134190476D02*
X73001009Y-134238095D01*
X73001009Y-134238095D02*
X73096247Y-134285714D01*
X73096247Y-134285714D02*
X73334342Y-134285714D01*
X73334342Y-134285714D02*
X73429580Y-134238095D01*
X73429580Y-134238095D02*
X73477200Y-134190476D01*
X73477200Y-134190476D02*
X73524819Y-134095238D01*
X73524819Y-134095238D02*
X73524819Y-133809524D01*
X73524819Y-133809524D02*
X73477200Y-133714286D01*
X73477200Y-133714286D02*
X73429580Y-133666667D01*
X202359580Y-193333333D02*
X202407200Y-193285714D01*
X202407200Y-193285714D02*
X202454819Y-193142857D01*
X202454819Y-193142857D02*
X202454819Y-193047619D01*
X202454819Y-193047619D02*
X202407200Y-192904762D01*
X202407200Y-192904762D02*
X202311961Y-192809524D01*
X202311961Y-192809524D02*
X202216723Y-192761905D01*
X202216723Y-192761905D02*
X202026247Y-192714286D01*
X202026247Y-192714286D02*
X201883390Y-192714286D01*
X201883390Y-192714286D02*
X201692914Y-192761905D01*
X201692914Y-192761905D02*
X201597676Y-192809524D01*
X201597676Y-192809524D02*
X201502438Y-192904762D01*
X201502438Y-192904762D02*
X201454819Y-193047619D01*
X201454819Y-193047619D02*
X201454819Y-193142857D01*
X201454819Y-193142857D02*
X201502438Y-193285714D01*
X201502438Y-193285714D02*
X201550057Y-193333333D01*
X201883390Y-193904762D02*
X201835771Y-193809524D01*
X201835771Y-193809524D02*
X201788152Y-193761905D01*
X201788152Y-193761905D02*
X201692914Y-193714286D01*
X201692914Y-193714286D02*
X201645295Y-193714286D01*
X201645295Y-193714286D02*
X201550057Y-193761905D01*
X201550057Y-193761905D02*
X201502438Y-193809524D01*
X201502438Y-193809524D02*
X201454819Y-193904762D01*
X201454819Y-193904762D02*
X201454819Y-194095238D01*
X201454819Y-194095238D02*
X201502438Y-194190476D01*
X201502438Y-194190476D02*
X201550057Y-194238095D01*
X201550057Y-194238095D02*
X201645295Y-194285714D01*
X201645295Y-194285714D02*
X201692914Y-194285714D01*
X201692914Y-194285714D02*
X201788152Y-194238095D01*
X201788152Y-194238095D02*
X201835771Y-194190476D01*
X201835771Y-194190476D02*
X201883390Y-194095238D01*
X201883390Y-194095238D02*
X201883390Y-193904762D01*
X201883390Y-193904762D02*
X201931009Y-193809524D01*
X201931009Y-193809524D02*
X201978628Y-193761905D01*
X201978628Y-193761905D02*
X202073866Y-193714286D01*
X202073866Y-193714286D02*
X202264342Y-193714286D01*
X202264342Y-193714286D02*
X202359580Y-193761905D01*
X202359580Y-193761905D02*
X202407200Y-193809524D01*
X202407200Y-193809524D02*
X202454819Y-193904762D01*
X202454819Y-193904762D02*
X202454819Y-194095238D01*
X202454819Y-194095238D02*
X202407200Y-194190476D01*
X202407200Y-194190476D02*
X202359580Y-194238095D01*
X202359580Y-194238095D02*
X202264342Y-194285714D01*
X202264342Y-194285714D02*
X202073866Y-194285714D01*
X202073866Y-194285714D02*
X201978628Y-194238095D01*
X201978628Y-194238095D02*
X201931009Y-194190476D01*
X201931009Y-194190476D02*
X201883390Y-194095238D01*
X207454819Y-188833333D02*
X206978628Y-188500000D01*
X207454819Y-188261905D02*
X206454819Y-188261905D01*
X206454819Y-188261905D02*
X206454819Y-188642857D01*
X206454819Y-188642857D02*
X206502438Y-188738095D01*
X206502438Y-188738095D02*
X206550057Y-188785714D01*
X206550057Y-188785714D02*
X206645295Y-188833333D01*
X206645295Y-188833333D02*
X206788152Y-188833333D01*
X206788152Y-188833333D02*
X206883390Y-188785714D01*
X206883390Y-188785714D02*
X206931009Y-188738095D01*
X206931009Y-188738095D02*
X206978628Y-188642857D01*
X206978628Y-188642857D02*
X206978628Y-188261905D01*
X206454819Y-189738095D02*
X206454819Y-189261905D01*
X206454819Y-189261905D02*
X206931009Y-189214286D01*
X206931009Y-189214286D02*
X206883390Y-189261905D01*
X206883390Y-189261905D02*
X206835771Y-189357143D01*
X206835771Y-189357143D02*
X206835771Y-189595238D01*
X206835771Y-189595238D02*
X206883390Y-189690476D01*
X206883390Y-189690476D02*
X206931009Y-189738095D01*
X206931009Y-189738095D02*
X207026247Y-189785714D01*
X207026247Y-189785714D02*
X207264342Y-189785714D01*
X207264342Y-189785714D02*
X207359580Y-189738095D01*
X207359580Y-189738095D02*
X207407200Y-189690476D01*
X207407200Y-189690476D02*
X207454819Y-189595238D01*
X207454819Y-189595238D02*
X207454819Y-189357143D01*
X207454819Y-189357143D02*
X207407200Y-189261905D01*
X207407200Y-189261905D02*
X207359580Y-189214286D01*
X184605654Y-186823569D02*
X184605654Y-185823569D01*
X184605654Y-185823569D02*
X184272321Y-186537854D01*
X184272321Y-186537854D02*
X183938988Y-185823569D01*
X183938988Y-185823569D02*
X183938988Y-186823569D01*
X183558035Y-185823569D02*
X182891369Y-186823569D01*
X182891369Y-185823569D02*
X183558035Y-186823569D01*
X182081845Y-185823569D02*
X182272321Y-185823569D01*
X182272321Y-185823569D02*
X182367559Y-185871188D01*
X182367559Y-185871188D02*
X182415178Y-185918807D01*
X182415178Y-185918807D02*
X182510416Y-186061664D01*
X182510416Y-186061664D02*
X182558035Y-186252140D01*
X182558035Y-186252140D02*
X182558035Y-186633092D01*
X182558035Y-186633092D02*
X182510416Y-186728330D01*
X182510416Y-186728330D02*
X182462797Y-186775950D01*
X182462797Y-186775950D02*
X182367559Y-186823569D01*
X182367559Y-186823569D02*
X182177083Y-186823569D01*
X182177083Y-186823569D02*
X182081845Y-186775950D01*
X182081845Y-186775950D02*
X182034226Y-186728330D01*
X182034226Y-186728330D02*
X181986607Y-186633092D01*
X181986607Y-186633092D02*
X181986607Y-186394997D01*
X181986607Y-186394997D02*
X182034226Y-186299759D01*
X182034226Y-186299759D02*
X182081845Y-186252140D01*
X182081845Y-186252140D02*
X182177083Y-186204521D01*
X182177083Y-186204521D02*
X182367559Y-186204521D01*
X182367559Y-186204521D02*
X182462797Y-186252140D01*
X182462797Y-186252140D02*
X182510416Y-186299759D01*
X182510416Y-186299759D02*
X182558035Y-186394997D01*
X181367559Y-185823569D02*
X181272321Y-185823569D01*
X181272321Y-185823569D02*
X181177083Y-185871188D01*
X181177083Y-185871188D02*
X181129464Y-185918807D01*
X181129464Y-185918807D02*
X181081845Y-186014045D01*
X181081845Y-186014045D02*
X181034226Y-186204521D01*
X181034226Y-186204521D02*
X181034226Y-186442616D01*
X181034226Y-186442616D02*
X181081845Y-186633092D01*
X181081845Y-186633092D02*
X181129464Y-186728330D01*
X181129464Y-186728330D02*
X181177083Y-186775950D01*
X181177083Y-186775950D02*
X181272321Y-186823569D01*
X181272321Y-186823569D02*
X181367559Y-186823569D01*
X181367559Y-186823569D02*
X181462797Y-186775950D01*
X181462797Y-186775950D02*
X181510416Y-186728330D01*
X181510416Y-186728330D02*
X181558035Y-186633092D01*
X181558035Y-186633092D02*
X181605654Y-186442616D01*
X181605654Y-186442616D02*
X181605654Y-186204521D01*
X181605654Y-186204521D02*
X181558035Y-186014045D01*
X181558035Y-186014045D02*
X181510416Y-185918807D01*
X181510416Y-185918807D02*
X181462797Y-185871188D01*
X181462797Y-185871188D02*
X181367559Y-185823569D01*
X72166666Y-135429580D02*
X72214285Y-135477200D01*
X72214285Y-135477200D02*
X72357142Y-135524819D01*
X72357142Y-135524819D02*
X72452380Y-135524819D01*
X72452380Y-135524819D02*
X72595237Y-135477200D01*
X72595237Y-135477200D02*
X72690475Y-135381961D01*
X72690475Y-135381961D02*
X72738094Y-135286723D01*
X72738094Y-135286723D02*
X72785713Y-135096247D01*
X72785713Y-135096247D02*
X72785713Y-134953390D01*
X72785713Y-134953390D02*
X72738094Y-134762914D01*
X72738094Y-134762914D02*
X72690475Y-134667676D01*
X72690475Y-134667676D02*
X72595237Y-134572438D01*
X72595237Y-134572438D02*
X72452380Y-134524819D01*
X72452380Y-134524819D02*
X72357142Y-134524819D01*
X72357142Y-134524819D02*
X72214285Y-134572438D01*
X72214285Y-134572438D02*
X72166666Y-134620057D01*
X71309523Y-134858152D02*
X71309523Y-135524819D01*
X71547618Y-134477200D02*
X71785713Y-135191485D01*
X71785713Y-135191485D02*
X71166666Y-135191485D01*
X82859580Y-134417753D02*
X82907200Y-134370134D01*
X82907200Y-134370134D02*
X82954819Y-134227277D01*
X82954819Y-134227277D02*
X82954819Y-134132039D01*
X82954819Y-134132039D02*
X82907200Y-133989182D01*
X82907200Y-133989182D02*
X82811961Y-133893944D01*
X82811961Y-133893944D02*
X82716723Y-133846325D01*
X82716723Y-133846325D02*
X82526247Y-133798706D01*
X82526247Y-133798706D02*
X82383390Y-133798706D01*
X82383390Y-133798706D02*
X82192914Y-133846325D01*
X82192914Y-133846325D02*
X82097676Y-133893944D01*
X82097676Y-133893944D02*
X82002438Y-133989182D01*
X82002438Y-133989182D02*
X81954819Y-134132039D01*
X81954819Y-134132039D02*
X81954819Y-134227277D01*
X81954819Y-134227277D02*
X82002438Y-134370134D01*
X82002438Y-134370134D02*
X82050057Y-134417753D01*
X81954819Y-135322515D02*
X81954819Y-134846325D01*
X81954819Y-134846325D02*
X82431009Y-134798706D01*
X82431009Y-134798706D02*
X82383390Y-134846325D01*
X82383390Y-134846325D02*
X82335771Y-134941563D01*
X82335771Y-134941563D02*
X82335771Y-135179658D01*
X82335771Y-135179658D02*
X82383390Y-135274896D01*
X82383390Y-135274896D02*
X82431009Y-135322515D01*
X82431009Y-135322515D02*
X82526247Y-135370134D01*
X82526247Y-135370134D02*
X82764342Y-135370134D01*
X82764342Y-135370134D02*
X82859580Y-135322515D01*
X82859580Y-135322515D02*
X82907200Y-135274896D01*
X82907200Y-135274896D02*
X82954819Y-135179658D01*
X82954819Y-135179658D02*
X82954819Y-134941563D01*
X82954819Y-134941563D02*
X82907200Y-134846325D01*
X82907200Y-134846325D02*
X82859580Y-134798706D01*
X76761904Y-130704819D02*
X76761904Y-131514342D01*
X76761904Y-131514342D02*
X76714285Y-131609580D01*
X76714285Y-131609580D02*
X76666666Y-131657200D01*
X76666666Y-131657200D02*
X76571428Y-131704819D01*
X76571428Y-131704819D02*
X76380952Y-131704819D01*
X76380952Y-131704819D02*
X76285714Y-131657200D01*
X76285714Y-131657200D02*
X76238095Y-131609580D01*
X76238095Y-131609580D02*
X76190476Y-131514342D01*
X76190476Y-131514342D02*
X76190476Y-130704819D01*
X75238095Y-130704819D02*
X75714285Y-130704819D01*
X75714285Y-130704819D02*
X75761904Y-131181009D01*
X75761904Y-131181009D02*
X75714285Y-131133390D01*
X75714285Y-131133390D02*
X75619047Y-131085771D01*
X75619047Y-131085771D02*
X75380952Y-131085771D01*
X75380952Y-131085771D02*
X75285714Y-131133390D01*
X75285714Y-131133390D02*
X75238095Y-131181009D01*
X75238095Y-131181009D02*
X75190476Y-131276247D01*
X75190476Y-131276247D02*
X75190476Y-131514342D01*
X75190476Y-131514342D02*
X75238095Y-131609580D01*
X75238095Y-131609580D02*
X75285714Y-131657200D01*
X75285714Y-131657200D02*
X75380952Y-131704819D01*
X75380952Y-131704819D02*
X75619047Y-131704819D01*
X75619047Y-131704819D02*
X75714285Y-131657200D01*
X75714285Y-131657200D02*
X75761904Y-131609580D01*
X82454819Y-141833333D02*
X81978628Y-141500000D01*
X82454819Y-141261905D02*
X81454819Y-141261905D01*
X81454819Y-141261905D02*
X81454819Y-141642857D01*
X81454819Y-141642857D02*
X81502438Y-141738095D01*
X81502438Y-141738095D02*
X81550057Y-141785714D01*
X81550057Y-141785714D02*
X81645295Y-141833333D01*
X81645295Y-141833333D02*
X81788152Y-141833333D01*
X81788152Y-141833333D02*
X81883390Y-141785714D01*
X81883390Y-141785714D02*
X81931009Y-141738095D01*
X81931009Y-141738095D02*
X81978628Y-141642857D01*
X81978628Y-141642857D02*
X81978628Y-141261905D01*
X82454819Y-142309524D02*
X82454819Y-142500000D01*
X82454819Y-142500000D02*
X82407200Y-142595238D01*
X82407200Y-142595238D02*
X82359580Y-142642857D01*
X82359580Y-142642857D02*
X82216723Y-142738095D01*
X82216723Y-142738095D02*
X82026247Y-142785714D01*
X82026247Y-142785714D02*
X81645295Y-142785714D01*
X81645295Y-142785714D02*
X81550057Y-142738095D01*
X81550057Y-142738095D02*
X81502438Y-142690476D01*
X81502438Y-142690476D02*
X81454819Y-142595238D01*
X81454819Y-142595238D02*
X81454819Y-142404762D01*
X81454819Y-142404762D02*
X81502438Y-142309524D01*
X81502438Y-142309524D02*
X81550057Y-142261905D01*
X81550057Y-142261905D02*
X81645295Y-142214286D01*
X81645295Y-142214286D02*
X81883390Y-142214286D01*
X81883390Y-142214286D02*
X81978628Y-142261905D01*
X81978628Y-142261905D02*
X82026247Y-142309524D01*
X82026247Y-142309524D02*
X82073866Y-142404762D01*
X82073866Y-142404762D02*
X82073866Y-142595238D01*
X82073866Y-142595238D02*
X82026247Y-142690476D01*
X82026247Y-142690476D02*
X81978628Y-142738095D01*
X81978628Y-142738095D02*
X81883390Y-142785714D01*
X77595238Y-145818587D02*
X77690476Y-145770968D01*
X77690476Y-145770968D02*
X77785714Y-145675730D01*
X77785714Y-145675730D02*
X77928571Y-145532872D01*
X77928571Y-145532872D02*
X78023809Y-145485253D01*
X78023809Y-145485253D02*
X78119047Y-145485253D01*
X78071428Y-145723349D02*
X78166666Y-145675730D01*
X78166666Y-145675730D02*
X78261904Y-145580491D01*
X78261904Y-145580491D02*
X78309523Y-145390015D01*
X78309523Y-145390015D02*
X78309523Y-145056682D01*
X78309523Y-145056682D02*
X78261904Y-144866206D01*
X78261904Y-144866206D02*
X78166666Y-144770968D01*
X78166666Y-144770968D02*
X78071428Y-144723349D01*
X78071428Y-144723349D02*
X77880952Y-144723349D01*
X77880952Y-144723349D02*
X77785714Y-144770968D01*
X77785714Y-144770968D02*
X77690476Y-144866206D01*
X77690476Y-144866206D02*
X77642857Y-145056682D01*
X77642857Y-145056682D02*
X77642857Y-145390015D01*
X77642857Y-145390015D02*
X77690476Y-145580491D01*
X77690476Y-145580491D02*
X77785714Y-145675730D01*
X77785714Y-145675730D02*
X77880952Y-145723349D01*
X77880952Y-145723349D02*
X78071428Y-145723349D01*
X76690476Y-145723349D02*
X77261904Y-145723349D01*
X76976190Y-145723349D02*
X76976190Y-144723349D01*
X76976190Y-144723349D02*
X77071428Y-144866206D01*
X77071428Y-144866206D02*
X77166666Y-144961444D01*
X77166666Y-144961444D02*
X77261904Y-145009063D01*
D10*
X83724809Y-141688571D02*
X83486714Y-141521905D01*
X83724809Y-141402857D02*
X83224809Y-141402857D01*
X83224809Y-141402857D02*
X83224809Y-141593333D01*
X83224809Y-141593333D02*
X83248619Y-141640952D01*
X83248619Y-141640952D02*
X83272428Y-141664762D01*
X83272428Y-141664762D02*
X83320047Y-141688571D01*
X83320047Y-141688571D02*
X83391476Y-141688571D01*
X83391476Y-141688571D02*
X83439095Y-141664762D01*
X83439095Y-141664762D02*
X83462904Y-141640952D01*
X83462904Y-141640952D02*
X83486714Y-141593333D01*
X83486714Y-141593333D02*
X83486714Y-141402857D01*
X83724809Y-142164762D02*
X83724809Y-141879048D01*
X83724809Y-142021905D02*
X83224809Y-142021905D01*
X83224809Y-142021905D02*
X83296238Y-141974286D01*
X83296238Y-141974286D02*
X83343857Y-141926667D01*
X83343857Y-141926667D02*
X83367666Y-141879048D01*
X83224809Y-142474285D02*
X83224809Y-142521904D01*
X83224809Y-142521904D02*
X83248619Y-142569523D01*
X83248619Y-142569523D02*
X83272428Y-142593333D01*
X83272428Y-142593333D02*
X83320047Y-142617142D01*
X83320047Y-142617142D02*
X83415285Y-142640952D01*
X83415285Y-142640952D02*
X83534333Y-142640952D01*
X83534333Y-142640952D02*
X83629571Y-142617142D01*
X83629571Y-142617142D02*
X83677190Y-142593333D01*
X83677190Y-142593333D02*
X83701000Y-142569523D01*
X83701000Y-142569523D02*
X83724809Y-142521904D01*
X83724809Y-142521904D02*
X83724809Y-142474285D01*
X83724809Y-142474285D02*
X83701000Y-142426666D01*
X83701000Y-142426666D02*
X83677190Y-142402857D01*
X83677190Y-142402857D02*
X83629571Y-142379047D01*
X83629571Y-142379047D02*
X83534333Y-142355238D01*
X83534333Y-142355238D02*
X83415285Y-142355238D01*
X83415285Y-142355238D02*
X83320047Y-142379047D01*
X83320047Y-142379047D02*
X83272428Y-142402857D01*
X83272428Y-142402857D02*
X83248619Y-142426666D01*
X83248619Y-142426666D02*
X83224809Y-142474285D01*
D11*
X74666666Y-135954819D02*
X74999999Y-135478628D01*
X75238094Y-135954819D02*
X75238094Y-134954819D01*
X75238094Y-134954819D02*
X74857142Y-134954819D01*
X74857142Y-134954819D02*
X74761904Y-135002438D01*
X74761904Y-135002438D02*
X74714285Y-135050057D01*
X74714285Y-135050057D02*
X74666666Y-135145295D01*
X74666666Y-135145295D02*
X74666666Y-135288152D01*
X74666666Y-135288152D02*
X74714285Y-135383390D01*
X74714285Y-135383390D02*
X74761904Y-135431009D01*
X74761904Y-135431009D02*
X74857142Y-135478628D01*
X74857142Y-135478628D02*
X75238094Y-135478628D01*
X74095237Y-135383390D02*
X74190475Y-135335771D01*
X74190475Y-135335771D02*
X74238094Y-135288152D01*
X74238094Y-135288152D02*
X74285713Y-135192914D01*
X74285713Y-135192914D02*
X74285713Y-135145295D01*
X74285713Y-135145295D02*
X74238094Y-135050057D01*
X74238094Y-135050057D02*
X74190475Y-135002438D01*
X74190475Y-135002438D02*
X74095237Y-134954819D01*
X74095237Y-134954819D02*
X73904761Y-134954819D01*
X73904761Y-134954819D02*
X73809523Y-135002438D01*
X73809523Y-135002438D02*
X73761904Y-135050057D01*
X73761904Y-135050057D02*
X73714285Y-135145295D01*
X73714285Y-135145295D02*
X73714285Y-135192914D01*
X73714285Y-135192914D02*
X73761904Y-135288152D01*
X73761904Y-135288152D02*
X73809523Y-135335771D01*
X73809523Y-135335771D02*
X73904761Y-135383390D01*
X73904761Y-135383390D02*
X74095237Y-135383390D01*
X74095237Y-135383390D02*
X74190475Y-135431009D01*
X74190475Y-135431009D02*
X74238094Y-135478628D01*
X74238094Y-135478628D02*
X74285713Y-135573866D01*
X74285713Y-135573866D02*
X74285713Y-135764342D01*
X74285713Y-135764342D02*
X74238094Y-135859580D01*
X74238094Y-135859580D02*
X74190475Y-135907200D01*
X74190475Y-135907200D02*
X74095237Y-135954819D01*
X74095237Y-135954819D02*
X73904761Y-135954819D01*
X73904761Y-135954819D02*
X73809523Y-135907200D01*
X73809523Y-135907200D02*
X73761904Y-135859580D01*
X73761904Y-135859580D02*
X73714285Y-135764342D01*
X73714285Y-135764342D02*
X73714285Y-135573866D01*
X73714285Y-135573866D02*
X73761904Y-135478628D01*
X73761904Y-135478628D02*
X73809523Y-135431009D01*
X73809523Y-135431009D02*
X73904761Y-135383390D01*
X196859580Y-187558333D02*
X196907200Y-187510714D01*
X196907200Y-187510714D02*
X196954819Y-187367857D01*
X196954819Y-187367857D02*
X196954819Y-187272619D01*
X196954819Y-187272619D02*
X196907200Y-187129762D01*
X196907200Y-187129762D02*
X196811961Y-187034524D01*
X196811961Y-187034524D02*
X196716723Y-186986905D01*
X196716723Y-186986905D02*
X196526247Y-186939286D01*
X196526247Y-186939286D02*
X196383390Y-186939286D01*
X196383390Y-186939286D02*
X196192914Y-186986905D01*
X196192914Y-186986905D02*
X196097676Y-187034524D01*
X196097676Y-187034524D02*
X196002438Y-187129762D01*
X196002438Y-187129762D02*
X195954819Y-187272619D01*
X195954819Y-187272619D02*
X195954819Y-187367857D01*
X195954819Y-187367857D02*
X196002438Y-187510714D01*
X196002438Y-187510714D02*
X196050057Y-187558333D01*
X195954819Y-188415476D02*
X195954819Y-188225000D01*
X195954819Y-188225000D02*
X196002438Y-188129762D01*
X196002438Y-188129762D02*
X196050057Y-188082143D01*
X196050057Y-188082143D02*
X196192914Y-187986905D01*
X196192914Y-187986905D02*
X196383390Y-187939286D01*
X196383390Y-187939286D02*
X196764342Y-187939286D01*
X196764342Y-187939286D02*
X196859580Y-187986905D01*
X196859580Y-187986905D02*
X196907200Y-188034524D01*
X196907200Y-188034524D02*
X196954819Y-188129762D01*
X196954819Y-188129762D02*
X196954819Y-188320238D01*
X196954819Y-188320238D02*
X196907200Y-188415476D01*
X196907200Y-188415476D02*
X196859580Y-188463095D01*
X196859580Y-188463095D02*
X196764342Y-188510714D01*
X196764342Y-188510714D02*
X196526247Y-188510714D01*
X196526247Y-188510714D02*
X196431009Y-188463095D01*
X196431009Y-188463095D02*
X196383390Y-188415476D01*
X196383390Y-188415476D02*
X196335771Y-188320238D01*
X196335771Y-188320238D02*
X196335771Y-188129762D01*
X196335771Y-188129762D02*
X196383390Y-188034524D01*
X196383390Y-188034524D02*
X196431009Y-187986905D01*
X196431009Y-187986905D02*
X196526247Y-187939286D01*
X71654819Y-156666666D02*
X72369104Y-156666666D01*
X72369104Y-156666666D02*
X72511961Y-156619047D01*
X72511961Y-156619047D02*
X72607200Y-156523809D01*
X72607200Y-156523809D02*
X72654819Y-156380952D01*
X72654819Y-156380952D02*
X72654819Y-156285714D01*
X71750057Y-157095238D02*
X71702438Y-157142857D01*
X71702438Y-157142857D02*
X71654819Y-157238095D01*
X71654819Y-157238095D02*
X71654819Y-157476190D01*
X71654819Y-157476190D02*
X71702438Y-157571428D01*
X71702438Y-157571428D02*
X71750057Y-157619047D01*
X71750057Y-157619047D02*
X71845295Y-157666666D01*
X71845295Y-157666666D02*
X71940533Y-157666666D01*
X71940533Y-157666666D02*
X72083390Y-157619047D01*
X72083390Y-157619047D02*
X72654819Y-157047619D01*
X72654819Y-157047619D02*
X72654819Y-157666666D01*
D12*
%TO.C,D49*%
X161718750Y-176191250D02*
X161718750Y-172181250D01*
X163718750Y-176191250D02*
X161718750Y-176191250D01*
X163718750Y-176191250D02*
X163718750Y-172181250D01*
%TO.C,R7*%
X74620000Y-136846359D02*
X74620000Y-137153641D01*
X75380000Y-136846359D02*
X75380000Y-137153641D01*
%TO.C,D60*%
X116475000Y-195241250D02*
X116475000Y-191231250D01*
X118475000Y-195241250D02*
X116475000Y-195241250D01*
X118475000Y-195241250D02*
X118475000Y-191231250D01*
D11*
%TO.C,MX21*%
X177271074Y-127018530D02*
X177271074Y-126218530D01*
X177271074Y-129868530D02*
X177271074Y-130108530D01*
X179271074Y-124218530D02*
X185171074Y-124218530D01*
X186671074Y-124218530D02*
X188221074Y-124218530D01*
X187721074Y-128268530D02*
X183156250Y-128268530D01*
X188221074Y-124218530D02*
X188221074Y-124448530D01*
X188221074Y-127298530D02*
X188221074Y-127768530D01*
X177271074Y-126218530D02*
G75*
G02*
X179271074Y-124218530I2000004J-4D01*
G01*
X180861928Y-130108530D02*
G75*
G02*
X183156250Y-128268530I2293456J-509332D01*
G01*
X188221074Y-127768530D02*
G75*
G02*
X187721074Y-128268530I-500001J1D01*
G01*
D12*
%TO.C,D45*%
X83137500Y-176191250D02*
X83137500Y-172181250D01*
X85137500Y-176191250D02*
X83137500Y-176191250D01*
X85137500Y-176191250D02*
X85137500Y-172181250D01*
%TO.C,D42*%
X285543750Y-157141250D02*
X285543750Y-153131250D01*
X287543750Y-157141250D02*
X285543750Y-157141250D01*
X287543750Y-157141250D02*
X287543750Y-153131250D01*
D11*
%TO.C,MX61*%
X229658574Y-184168530D02*
X229658574Y-183368530D01*
X229658574Y-187018530D02*
X229658574Y-187258530D01*
X231658574Y-181368530D02*
X237558574Y-181368530D01*
X239058574Y-181368530D02*
X240608574Y-181368530D01*
X240108574Y-185418530D02*
X235543750Y-185418530D01*
X240608574Y-181368530D02*
X240608574Y-181598530D01*
X240608574Y-184448530D02*
X240608574Y-184918530D01*
X229658574Y-183368530D02*
G75*
G02*
X231658574Y-181368530I2000004J-4D01*
G01*
X233249428Y-187258530D02*
G75*
G02*
X235543750Y-185418530I2293456J-509332D01*
G01*
X240608574Y-184918530D02*
G75*
G02*
X240108574Y-185418530I-500001J1D01*
G01*
%TO.C,MX9*%
X224896074Y-107968530D02*
X224896074Y-107168530D01*
X224896074Y-110818530D02*
X224896074Y-111058530D01*
X226896074Y-105168530D02*
X232796074Y-105168530D01*
X234296074Y-105168530D02*
X235846074Y-105168530D01*
X235346074Y-109218530D02*
X230781250Y-109218530D01*
X235846074Y-105168530D02*
X235846074Y-105398530D01*
X235846074Y-108248530D02*
X235846074Y-108718530D01*
X224896074Y-107168530D02*
G75*
G02*
X226896074Y-105168530I2000004J-4D01*
G01*
X228486928Y-111058530D02*
G75*
G02*
X230781250Y-109218530I2293456J-509332D01*
G01*
X235846074Y-108718530D02*
G75*
G02*
X235346074Y-109218530I-500001J1D01*
G01*
D12*
%TO.C,D6*%
X137906250Y-119041250D02*
X137906250Y-115031250D01*
X139906250Y-119041250D02*
X137906250Y-119041250D01*
X139906250Y-119041250D02*
X139906250Y-115031250D01*
D11*
%TO.C,MX5*%
X148696074Y-107968530D02*
X148696074Y-107168530D01*
X148696074Y-110818530D02*
X148696074Y-111058530D01*
X150696074Y-105168530D02*
X156596074Y-105168530D01*
X158096074Y-105168530D02*
X159646074Y-105168530D01*
X159146074Y-109218530D02*
X154581250Y-109218530D01*
X159646074Y-105168530D02*
X159646074Y-105398530D01*
X159646074Y-108248530D02*
X159646074Y-108718530D01*
X148696074Y-107168530D02*
G75*
G02*
X150696074Y-105168530I2000004J-4D01*
G01*
X152286928Y-111058530D02*
G75*
G02*
X154581250Y-109218530I2293456J-509332D01*
G01*
X159646074Y-108718530D02*
G75*
G02*
X159146074Y-109218530I-500001J1D01*
G01*
D12*
%TO.C,D5*%
X118856250Y-118978750D02*
X118856250Y-114968750D01*
X120856250Y-118978750D02*
X118856250Y-118978750D01*
X120856250Y-118978750D02*
X120856250Y-114968750D01*
D11*
%TO.C,MX26*%
X272521074Y-127018530D02*
X272521074Y-126218530D01*
X272521074Y-129868530D02*
X272521074Y-130108530D01*
X274521074Y-124218530D02*
X280421074Y-124218530D01*
X281921074Y-124218530D02*
X283471074Y-124218530D01*
X282971074Y-128268530D02*
X278406250Y-128268530D01*
X283471074Y-124218530D02*
X283471074Y-124448530D01*
X283471074Y-127298530D02*
X283471074Y-127768530D01*
X272521074Y-126218530D02*
G75*
G02*
X274521074Y-124218530I2000004J-4D01*
G01*
X276111928Y-130108530D02*
G75*
G02*
X278406250Y-128268530I2293456J-509332D01*
G01*
X283471074Y-127768530D02*
G75*
G02*
X282971074Y-128268530I-500001J1D01*
G01*
%TO.C,MX1*%
X71831030Y-107053926D02*
X72061030Y-107053926D01*
X71831030Y-108603926D02*
X71831030Y-107053926D01*
X71831030Y-116003926D02*
X71831030Y-110103926D01*
X74631030Y-118003926D02*
X73831030Y-118003926D01*
X74911030Y-107053926D02*
X75381030Y-107053926D01*
X75881030Y-107553926D02*
X75881030Y-112118750D01*
X77481030Y-118003926D02*
X77721030Y-118003926D01*
X73831030Y-118003926D02*
G75*
G02*
X71831030Y-116003926I4J2000004D01*
G01*
X75381030Y-107053926D02*
G75*
G02*
X75881030Y-107553926I-1J-500001D01*
G01*
X77721030Y-114413072D02*
G75*
G02*
X75881030Y-112118750I509332J2293456D01*
G01*
%TO.C,MX10*%
X243946074Y-107968530D02*
X243946074Y-107168530D01*
X243946074Y-110818530D02*
X243946074Y-111058530D01*
X245946074Y-105168530D02*
X251846074Y-105168530D01*
X253346074Y-105168530D02*
X254896074Y-105168530D01*
X254396074Y-109218530D02*
X249831250Y-109218530D01*
X254896074Y-105168530D02*
X254896074Y-105398530D01*
X254896074Y-108248530D02*
X254896074Y-108718530D01*
X243946074Y-107168530D02*
G75*
G02*
X245946074Y-105168530I2000004J-4D01*
G01*
X247536928Y-111058530D02*
G75*
G02*
X249831250Y-109218530I2293456J-509332D01*
G01*
X254896074Y-108718530D02*
G75*
G02*
X254396074Y-109218530I-500001J1D01*
G01*
%TO.C,MX19*%
X139171074Y-127018530D02*
X139171074Y-126218530D01*
X139171074Y-129868530D02*
X139171074Y-130108530D01*
X141171074Y-124218530D02*
X147071074Y-124218530D01*
X148571074Y-124218530D02*
X150121074Y-124218530D01*
X149621074Y-128268530D02*
X145056250Y-128268530D01*
X150121074Y-124218530D02*
X150121074Y-124448530D01*
X150121074Y-127298530D02*
X150121074Y-127768530D01*
X139171074Y-126218530D02*
G75*
G02*
X141171074Y-124218530I2000004J-4D01*
G01*
X142761928Y-130108530D02*
G75*
G02*
X145056250Y-128268530I2293456J-509332D01*
G01*
X150121074Y-127768530D02*
G75*
G02*
X149621074Y-128268530I-500001J1D01*
G01*
D12*
%TO.C,D47*%
X123618750Y-176191250D02*
X123618750Y-172181250D01*
X125618750Y-176191250D02*
X123618750Y-176191250D01*
X125618750Y-176191250D02*
X125618750Y-172181250D01*
%TO.C,D19*%
X109331250Y-138028750D02*
X109331250Y-134018750D01*
X111331250Y-138028750D02*
X109331250Y-138028750D01*
X111331250Y-138028750D02*
X111331250Y-134018750D01*
%TO.C,D55*%
X276018750Y-176191250D02*
X276018750Y-172181250D01*
X278018750Y-176191250D02*
X276018750Y-176191250D01*
X278018750Y-176191250D02*
X278018750Y-172181250D01*
%TO.C,U3*%
X204781000Y-180250000D02*
X204781000Y-179250000D01*
X204781000Y-192750000D02*
X204781000Y-193750000D01*
X205781000Y-179250000D02*
X204781000Y-179250000D01*
X205781000Y-193750000D02*
X204781000Y-193750000D01*
X220221000Y-194631892D02*
X219741000Y-194631892D01*
X219981000Y-194301892D01*
X220221000Y-194631892D01*
G36*
X220221000Y-194631892D02*
G01*
X219741000Y-194631892D01*
X219981000Y-194301892D01*
X220221000Y-194631892D01*
G37*
D11*
%TO.C,MX45*%
X115358574Y-165118530D02*
X115358574Y-164318530D01*
X115358574Y-167968530D02*
X115358574Y-168208530D01*
X117358574Y-162318530D02*
X123258574Y-162318530D01*
X124758574Y-162318530D02*
X126308574Y-162318530D01*
X125808574Y-166368530D02*
X121243750Y-166368530D01*
X126308574Y-162318530D02*
X126308574Y-162548530D01*
X126308574Y-165398530D02*
X126308574Y-165868530D01*
X115358574Y-164318530D02*
G75*
G02*
X117358574Y-162318530I2000004J-4D01*
G01*
X118949428Y-168208530D02*
G75*
G02*
X121243750Y-166368530I2293456J-509332D01*
G01*
X126308574Y-165868530D02*
G75*
G02*
X125808574Y-166368530I-500001J1D01*
G01*
D12*
%TO.C,U1*%
X88180000Y-109440000D02*
X87380000Y-109440000D01*
X88180000Y-109440000D02*
X88980000Y-109440000D01*
X88180000Y-112560000D02*
X87380000Y-112560000D01*
X88180000Y-112560000D02*
X88980000Y-112560000D01*
X87120000Y-112840000D02*
X86640000Y-112840000D01*
X86880000Y-112510000D01*
X87120000Y-112840000D01*
G36*
X87120000Y-112840000D02*
G01*
X86640000Y-112840000D01*
X86880000Y-112510000D01*
X87120000Y-112840000D01*
G37*
D11*
%TO.C,MX63*%
X286808574Y-184168530D02*
X286808574Y-183368530D01*
X286808574Y-187018530D02*
X286808574Y-187258530D01*
X288808574Y-181368530D02*
X294708574Y-181368530D01*
X296208574Y-181368530D02*
X297758574Y-181368530D01*
X297258574Y-185418530D02*
X292693750Y-185418530D01*
X297758574Y-181368530D02*
X297758574Y-181598530D01*
X297758574Y-184448530D02*
X297758574Y-184918530D01*
X286808574Y-183368530D02*
G75*
G02*
X288808574Y-181368530I2000004J-4D01*
G01*
X290399428Y-187258530D02*
G75*
G02*
X292693750Y-185418530I2293456J-509332D01*
G01*
X297758574Y-184918530D02*
G75*
G02*
X297258574Y-185418530I-500001J1D01*
G01*
D12*
%TO.C,D14*%
X290306250Y-119041250D02*
X290306250Y-115031250D01*
X292306250Y-119041250D02*
X290306250Y-119041250D01*
X292306250Y-119041250D02*
X292306250Y-115031250D01*
%TO.C,D24*%
X204581250Y-138091250D02*
X204581250Y-134081250D01*
X206581250Y-138091250D02*
X204581250Y-138091250D01*
X206581250Y-138091250D02*
X206581250Y-134081250D01*
D11*
%TO.C,MX35*%
X182033574Y-146068530D02*
X182033574Y-145268530D01*
X182033574Y-148918530D02*
X182033574Y-149158530D01*
X184033574Y-143268530D02*
X189933574Y-143268530D01*
X191433574Y-143268530D02*
X192983574Y-143268530D01*
X192483574Y-147318530D02*
X187918750Y-147318530D01*
X192983574Y-143268530D02*
X192983574Y-143498530D01*
X192983574Y-146348530D02*
X192983574Y-146818530D01*
X182033574Y-145268530D02*
G75*
G02*
X184033574Y-143268530I2000004J-4D01*
G01*
X185624428Y-149158530D02*
G75*
G02*
X187918750Y-147318530I2293456J-509332D01*
G01*
X192983574Y-146818530D02*
G75*
G02*
X192483574Y-147318530I-500001J1D01*
G01*
%TO.C,MX16*%
X77258574Y-127018530D02*
X77258574Y-126218530D01*
X77258574Y-129868530D02*
X77258574Y-130108530D01*
X79258574Y-124218530D02*
X85158574Y-124218530D01*
X86658574Y-124218530D02*
X88208574Y-124218530D01*
X87708574Y-128268530D02*
X83143750Y-128268530D01*
X88208574Y-124218530D02*
X88208574Y-124448530D01*
X88208574Y-127298530D02*
X88208574Y-127768530D01*
X77258574Y-126218530D02*
G75*
G02*
X79258574Y-124218530I2000004J-4D01*
G01*
X80849428Y-130108530D02*
G75*
G02*
X83143750Y-128268530I2293456J-509332D01*
G01*
X88208574Y-127768530D02*
G75*
G02*
X87708574Y-128268530I-500001J1D01*
G01*
%TO.C,MX53*%
X267758574Y-165118530D02*
X267758574Y-164318530D01*
X267758574Y-167968530D02*
X267758574Y-168208530D01*
X269758574Y-162318530D02*
X275658574Y-162318530D01*
X277158574Y-162318530D02*
X278708574Y-162318530D01*
X278208574Y-166368530D02*
X273643750Y-166368530D01*
X278708574Y-162318530D02*
X278708574Y-162548530D01*
X278708574Y-165398530D02*
X278708574Y-165868530D01*
X267758574Y-164318530D02*
G75*
G02*
X269758574Y-162318530I2000004J-4D01*
G01*
X271349428Y-168208530D02*
G75*
G02*
X273643750Y-166368530I2293456J-509332D01*
G01*
X278708574Y-165868530D02*
G75*
G02*
X278208574Y-166368530I-500001J1D01*
G01*
D12*
%TO.C,SW3*%
X188250000Y-188412500D02*
X188250000Y-190412500D01*
X189250000Y-187112500D02*
X189700000Y-186662500D01*
X189250000Y-191712500D02*
X189700000Y-192162500D01*
X192300000Y-186662500D02*
X189700000Y-186662500D01*
X192300000Y-192162500D02*
X189700000Y-192162500D01*
X192750000Y-187112500D02*
X192300000Y-186662500D01*
X192750000Y-191712500D02*
X192300000Y-192162500D01*
X193750000Y-188412500D02*
X193750000Y-190412500D01*
D11*
%TO.C,MX30*%
X79639824Y-146068530D02*
X79639824Y-145268530D01*
X79639824Y-148918530D02*
X79639824Y-149158530D01*
X81639824Y-143268530D02*
X87539824Y-143268530D01*
X89039824Y-143268530D02*
X90589824Y-143268530D01*
X90089824Y-147318530D02*
X85525000Y-147318530D01*
X90589824Y-143268530D02*
X90589824Y-143498530D01*
X90589824Y-146348530D02*
X90589824Y-146818530D01*
X79639824Y-145268530D02*
G75*
G02*
X81639824Y-143268530I2000004J-4D01*
G01*
X83230678Y-149158530D02*
G75*
G02*
X85525000Y-147318530I2293456J-509332D01*
G01*
X90589824Y-146818530D02*
G75*
G02*
X90089824Y-147318530I-500001J1D01*
G01*
D12*
%TO.C,D38*%
X209343750Y-157141250D02*
X209343750Y-153131250D01*
X211343750Y-157141250D02*
X209343750Y-157141250D01*
X211343750Y-157141250D02*
X211343750Y-153131250D01*
%TO.C,F1*%
X86793748Y-113383750D02*
X89566252Y-113383750D01*
X86793748Y-116803750D02*
X89566252Y-116803750D01*
%TO.C,D36*%
X171243750Y-157141250D02*
X171243750Y-153131250D01*
X173243750Y-157141250D02*
X171243750Y-157141250D01*
X173243750Y-157141250D02*
X173243750Y-153131250D01*
D11*
%TO.C,MX23*%
X215371074Y-127018530D02*
X215371074Y-126218530D01*
X215371074Y-129868530D02*
X215371074Y-130108530D01*
X217371074Y-124218530D02*
X223271074Y-124218530D01*
X224771074Y-124218530D02*
X226321074Y-124218530D01*
X225821074Y-128268530D02*
X221256250Y-128268530D01*
X226321074Y-124218530D02*
X226321074Y-124448530D01*
X226321074Y-127298530D02*
X226321074Y-127768530D01*
X215371074Y-126218530D02*
G75*
G02*
X217371074Y-124218530I2000004J-4D01*
G01*
X218961928Y-130108530D02*
G75*
G02*
X221256250Y-128268530I2293456J-509332D01*
G01*
X226321074Y-127768530D02*
G75*
G02*
X225821074Y-128268530I-500001J1D01*
G01*
%TO.C,MX11*%
X262996074Y-107968530D02*
X262996074Y-107168530D01*
X262996074Y-110818530D02*
X262996074Y-111058530D01*
X264996074Y-105168530D02*
X270896074Y-105168530D01*
X272396074Y-105168530D02*
X273946074Y-105168530D01*
X273446074Y-109218530D02*
X268881250Y-109218530D01*
X273946074Y-105168530D02*
X273946074Y-105398530D01*
X273946074Y-108248530D02*
X273946074Y-108718530D01*
X262996074Y-107168530D02*
G75*
G02*
X264996074Y-105168530I2000004J-4D01*
G01*
X266586928Y-111058530D02*
G75*
G02*
X268881250Y-109218530I2293456J-509332D01*
G01*
X273946074Y-108718530D02*
G75*
G02*
X273446074Y-109218530I-500001J1D01*
G01*
D12*
%TO.C,D3*%
X80756250Y-109516250D02*
X80756250Y-105506250D01*
X82756250Y-109516250D02*
X80756250Y-109516250D01*
X82756250Y-109516250D02*
X82756250Y-105506250D01*
%TO.C,C7*%
X200090000Y-188436252D02*
X200090000Y-187013748D01*
X201910000Y-188436252D02*
X201910000Y-187013748D01*
D11*
%TO.C,MX46*%
X134408574Y-165118530D02*
X134408574Y-164318530D01*
X134408574Y-167968530D02*
X134408574Y-168208530D01*
X136408574Y-162318530D02*
X142308574Y-162318530D01*
X143808574Y-162318530D02*
X145358574Y-162318530D01*
X144858574Y-166368530D02*
X140293750Y-166368530D01*
X145358574Y-162318530D02*
X145358574Y-162548530D01*
X145358574Y-165398530D02*
X145358574Y-165868530D01*
X134408574Y-164318530D02*
G75*
G02*
X136408574Y-162318530I2000004J-4D01*
G01*
X137999428Y-168208530D02*
G75*
G02*
X140293750Y-166368530I2293456J-509332D01*
G01*
X145358574Y-165868530D02*
G75*
G02*
X144858574Y-166368530I-500001J1D01*
G01*
D12*
%TO.C,D11*%
X233156250Y-119041250D02*
X233156250Y-115031250D01*
X235156250Y-119041250D02*
X233156250Y-119041250D01*
X235156250Y-119041250D02*
X235156250Y-115031250D01*
%TO.C,D23*%
X185531250Y-138091250D02*
X185531250Y-134081250D01*
X187531250Y-138091250D02*
X185531250Y-138091250D01*
X187531250Y-138091250D02*
X187531250Y-134081250D01*
%TO.C,D12*%
X252206250Y-119041250D02*
X252206250Y-115031250D01*
X254206250Y-119041250D02*
X252206250Y-119041250D01*
X254206250Y-119041250D02*
X254206250Y-115031250D01*
D11*
%TO.C,MX18*%
X120121074Y-127018530D02*
X120121074Y-126218530D01*
X120121074Y-129868530D02*
X120121074Y-130108530D01*
X122121074Y-124218530D02*
X128021074Y-124218530D01*
X129521074Y-124218530D02*
X131071074Y-124218530D01*
X130571074Y-128268530D02*
X126006250Y-128268530D01*
X131071074Y-124218530D02*
X131071074Y-124448530D01*
X131071074Y-127298530D02*
X131071074Y-127768530D01*
X120121074Y-126218530D02*
G75*
G02*
X122121074Y-124218530I2000004J-4D01*
G01*
X123711928Y-130108530D02*
G75*
G02*
X126006250Y-128268530I2293456J-509332D01*
G01*
X131071074Y-127768530D02*
G75*
G02*
X130571074Y-128268530I-500001J1D01*
G01*
%TO.C,MX49*%
X191558574Y-165118530D02*
X191558574Y-164318530D01*
X191558574Y-167968530D02*
X191558574Y-168208530D01*
X193558574Y-162318530D02*
X199458574Y-162318530D01*
X200958574Y-162318530D02*
X202508574Y-162318530D01*
X202008574Y-166368530D02*
X197443750Y-166368530D01*
X202508574Y-162318530D02*
X202508574Y-162548530D01*
X202508574Y-165398530D02*
X202508574Y-165868530D01*
X191558574Y-164318530D02*
G75*
G02*
X193558574Y-162318530I2000004J-4D01*
G01*
X195149428Y-168208530D02*
G75*
G02*
X197443750Y-166368530I2293456J-509332D01*
G01*
X202508574Y-165868530D02*
G75*
G02*
X202008574Y-166368530I-500001J1D01*
G01*
D13*
%TO.C,J1*%
X83636250Y-106037500D02*
X83636250Y-104357500D01*
X92576250Y-106037500D02*
X92576250Y-104357500D01*
D14*
X85006250Y-109187500D02*
G75*
G02*
X84806250Y-109187500I-100000J0D01*
G01*
X84806250Y-109187500D02*
G75*
G02*
X85006250Y-109187500I100000J0D01*
G01*
D12*
%TO.C,D27*%
X261731250Y-138091250D02*
X261731250Y-134081250D01*
X263731250Y-138091250D02*
X261731250Y-138091250D01*
X263731250Y-138091250D02*
X263731250Y-134081250D01*
%TO.C,SW2*%
X188250000Y-182500000D02*
X188250000Y-184500000D01*
X189250000Y-181200000D02*
X189700000Y-180750000D01*
X189250000Y-185800000D02*
X189700000Y-186250000D01*
X192300000Y-180750000D02*
X189700000Y-180750000D01*
X192300000Y-186250000D02*
X189700000Y-186250000D01*
X192750000Y-181200000D02*
X192300000Y-180750000D01*
X192750000Y-185800000D02*
X192300000Y-186250000D01*
X193750000Y-182500000D02*
X193750000Y-184500000D01*
%TO.C,D17*%
X347456250Y-119103750D02*
X347456250Y-115093750D01*
X349456250Y-119103750D02*
X347456250Y-119103750D01*
X349456250Y-119103750D02*
X349456250Y-115093750D01*
D11*
%TO.C,MX22*%
X196321074Y-127018530D02*
X196321074Y-126218530D01*
X196321074Y-129868530D02*
X196321074Y-130108530D01*
X198321074Y-124218530D02*
X204221074Y-124218530D01*
X205721074Y-124218530D02*
X207271074Y-124218530D01*
X206771074Y-128268530D02*
X202206250Y-128268530D01*
X207271074Y-124218530D02*
X207271074Y-124448530D01*
X207271074Y-127298530D02*
X207271074Y-127768530D01*
X196321074Y-126218530D02*
G75*
G02*
X198321074Y-124218530I2000004J-4D01*
G01*
X199911928Y-130108530D02*
G75*
G02*
X202206250Y-128268530I2293456J-509332D01*
G01*
X207271074Y-127768530D02*
G75*
G02*
X206771074Y-128268530I-500001J1D01*
G01*
D12*
%TO.C,D29*%
X299831250Y-138091250D02*
X299831250Y-134081250D01*
X301831250Y-138091250D02*
X299831250Y-138091250D01*
X301831250Y-138091250D02*
X301831250Y-134081250D01*
%TO.C,D18*%
X85518750Y-138028750D02*
X85518750Y-134018750D01*
X87518750Y-138028750D02*
X85518750Y-138028750D01*
X87518750Y-138028750D02*
X87518750Y-134018750D01*
%TO.C,D62*%
X180768750Y-195241250D02*
X180768750Y-191231250D01*
X182768750Y-195241250D02*
X180768750Y-195241250D01*
X182768750Y-195241250D02*
X182768750Y-191231250D01*
%TO.C,SW1*%
X70100000Y-147100000D02*
X72400000Y-147100000D01*
X72400000Y-137900000D02*
X70100000Y-137900000D01*
X72400000Y-139100000D02*
X72400000Y-137900000D01*
X72400000Y-140900000D02*
X72400000Y-141600000D01*
X72400000Y-143400000D02*
X72400000Y-144100000D01*
X72400000Y-147100000D02*
X72400000Y-145900000D01*
%TO.C,D48*%
X142668750Y-176191250D02*
X142668750Y-172181250D01*
X144668750Y-176191250D02*
X142668750Y-176191250D01*
X144668750Y-176191250D02*
X144668750Y-172181250D01*
D11*
%TO.C,MX29*%
X334433574Y-127018530D02*
X334433574Y-126218530D01*
X334433574Y-129868530D02*
X334433574Y-130108530D01*
X336433574Y-124218530D02*
X342333574Y-124218530D01*
X343833574Y-124218530D02*
X345383574Y-124218530D01*
X344883574Y-128268530D02*
X340318750Y-128268530D01*
X345383574Y-124218530D02*
X345383574Y-124448530D01*
X345383574Y-127298530D02*
X345383574Y-127768530D01*
X334433574Y-126218530D02*
G75*
G02*
X336433574Y-124218530I2000004J-4D01*
G01*
X338024428Y-130108530D02*
G75*
G02*
X340318750Y-128268530I2293456J-509332D01*
G01*
X345383574Y-127768530D02*
G75*
G02*
X344883574Y-128268530I-500001J1D01*
G01*
D12*
%TO.C,D39*%
X228393750Y-157141250D02*
X228393750Y-153131250D01*
X230393750Y-157141250D02*
X228393750Y-157141250D01*
X230393750Y-157141250D02*
X230393750Y-153131250D01*
D11*
%TO.C,MX39*%
X258233574Y-146068530D02*
X258233574Y-145268530D01*
X258233574Y-148918530D02*
X258233574Y-149158530D01*
X260233574Y-143268530D02*
X266133574Y-143268530D01*
X267633574Y-143268530D02*
X269183574Y-143268530D01*
X268683574Y-147318530D02*
X264118750Y-147318530D01*
X269183574Y-143268530D02*
X269183574Y-143498530D01*
X269183574Y-146348530D02*
X269183574Y-146818530D01*
X258233574Y-145268530D02*
G75*
G02*
X260233574Y-143268530I2000004J-4D01*
G01*
X261824428Y-149158530D02*
G75*
G02*
X264118750Y-147318530I2293456J-509332D01*
G01*
X269183574Y-146818530D02*
G75*
G02*
X268683574Y-147318530I-500001J1D01*
G01*
%TO.C,MX4*%
X129646074Y-107968530D02*
X129646074Y-107168530D01*
X129646074Y-110818530D02*
X129646074Y-111058530D01*
X131646074Y-105168530D02*
X137546074Y-105168530D01*
X139046074Y-105168530D02*
X140596074Y-105168530D01*
X140096074Y-109218530D02*
X135531250Y-109218530D01*
X140596074Y-105168530D02*
X140596074Y-105398530D01*
X140596074Y-108248530D02*
X140596074Y-108718530D01*
X129646074Y-107168530D02*
G75*
G02*
X131646074Y-105168530I2000004J-4D01*
G01*
X133236928Y-111058530D02*
G75*
G02*
X135531250Y-109218530I2293456J-509332D01*
G01*
X140596074Y-108718530D02*
G75*
G02*
X140096074Y-109218530I-500001J1D01*
G01*
%TO.C,MX55*%
X313002324Y-165118530D02*
X313002324Y-164318530D01*
X313002324Y-167968530D02*
X313002324Y-168208530D01*
X315002324Y-162318530D02*
X320902324Y-162318530D01*
X322402324Y-162318530D02*
X323952324Y-162318530D01*
X323452324Y-166368530D02*
X318887500Y-166368530D01*
X323952324Y-162318530D02*
X323952324Y-162548530D01*
X323952324Y-165398530D02*
X323952324Y-165868530D01*
X313002324Y-164318530D02*
G75*
G02*
X315002324Y-162318530I2000004J-4D01*
G01*
X316593178Y-168208530D02*
G75*
G02*
X318887500Y-166368530I2293456J-509332D01*
G01*
X323952324Y-165868530D02*
G75*
G02*
X323452324Y-166368530I-500001J1D01*
G01*
%TO.C,MX56*%
X339196074Y-165118530D02*
X339196074Y-164318530D01*
X339196074Y-167968530D02*
X339196074Y-168208530D01*
X341196074Y-162318530D02*
X347096074Y-162318530D01*
X348596074Y-162318530D02*
X350146074Y-162318530D01*
X349646074Y-166368530D02*
X345081250Y-166368530D01*
X350146074Y-162318530D02*
X350146074Y-162548530D01*
X350146074Y-165398530D02*
X350146074Y-165868530D01*
X339196074Y-164318530D02*
G75*
G02*
X341196074Y-162318530I2000004J-4D01*
G01*
X342786928Y-168208530D02*
G75*
G02*
X345081250Y-166368530I2293456J-509332D01*
G01*
X350146074Y-165868530D02*
G75*
G02*
X349646074Y-166368530I-500001J1D01*
G01*
D12*
%TO.C,D53*%
X237918750Y-176253750D02*
X237918750Y-172243750D01*
X239918750Y-176253750D02*
X237918750Y-176253750D01*
X239918750Y-176253750D02*
X239918750Y-172243750D01*
%TO.C,U4*%
X199362500Y-190371250D02*
X198562500Y-190371250D01*
X199362500Y-190371250D02*
X200162500Y-190371250D01*
X199362500Y-193491250D02*
X198562500Y-193491250D01*
X199362500Y-193491250D02*
X200162500Y-193491250D01*
X200662500Y-190421250D02*
X200422500Y-190091250D01*
X200902500Y-190091250D01*
X200662500Y-190421250D01*
G36*
X200662500Y-190421250D02*
G01*
X200422500Y-190091250D01*
X200902500Y-190091250D01*
X200662500Y-190421250D01*
G37*
%TO.C,D37*%
X190293750Y-157141250D02*
X190293750Y-153131250D01*
X192293750Y-157141250D02*
X190293750Y-157141250D01*
X192293750Y-157141250D02*
X192293750Y-153131250D01*
D11*
%TO.C,MX33*%
X143933574Y-146068530D02*
X143933574Y-145268530D01*
X143933574Y-148918530D02*
X143933574Y-149158530D01*
X145933574Y-143268530D02*
X151833574Y-143268530D01*
X153333574Y-143268530D02*
X154883574Y-143268530D01*
X154383574Y-147318530D02*
X149818750Y-147318530D01*
X154883574Y-143268530D02*
X154883574Y-143498530D01*
X154883574Y-146348530D02*
X154883574Y-146818530D01*
X143933574Y-145268530D02*
G75*
G02*
X145933574Y-143268530I2000004J-4D01*
G01*
X147524428Y-149158530D02*
G75*
G02*
X149818750Y-147318530I2293456J-509332D01*
G01*
X154883574Y-146818530D02*
G75*
G02*
X154383574Y-147318530I-500001J1D01*
G01*
D12*
%TO.C,R3*%
X76227500Y-139262742D02*
X76227500Y-139737258D01*
X77272500Y-139262742D02*
X77272500Y-139737258D01*
D11*
%TO.C,MX43*%
X74877324Y-165118530D02*
X74877324Y-164318530D01*
X74877324Y-167968530D02*
X74877324Y-168208530D01*
X76877324Y-162318530D02*
X82777324Y-162318530D01*
X84277324Y-162318530D02*
X85827324Y-162318530D01*
X85327324Y-166368530D02*
X80762500Y-166368530D01*
X85827324Y-162318530D02*
X85827324Y-162548530D01*
X85827324Y-165398530D02*
X85827324Y-165868530D01*
X74877324Y-164318530D02*
G75*
G02*
X76877324Y-162318530I2000004J-4D01*
G01*
X78468178Y-168208530D02*
G75*
G02*
X80762500Y-166368530I2293456J-509332D01*
G01*
X85827324Y-165868530D02*
G75*
G02*
X85327324Y-166368530I-500001J1D01*
G01*
%TO.C,MX41*%
X296333574Y-146068530D02*
X296333574Y-145268530D01*
X296333574Y-148918530D02*
X296333574Y-149158530D01*
X298333574Y-143268530D02*
X304233574Y-143268530D01*
X305733574Y-143268530D02*
X307283574Y-143268530D01*
X306783574Y-147318530D02*
X302218750Y-147318530D01*
X307283574Y-143268530D02*
X307283574Y-143498530D01*
X307283574Y-146348530D02*
X307283574Y-146818530D01*
X296333574Y-145268530D02*
G75*
G02*
X298333574Y-143268530I2000004J-4D01*
G01*
X299924428Y-149158530D02*
G75*
G02*
X302218750Y-147318530I2293456J-509332D01*
G01*
X307283574Y-146818530D02*
G75*
G02*
X306783574Y-147318530I-500001J1D01*
G01*
D12*
%TO.C,D35*%
X152193750Y-157141250D02*
X152193750Y-153131250D01*
X154193750Y-157141250D02*
X152193750Y-157141250D01*
X154193750Y-157141250D02*
X154193750Y-153131250D01*
%TO.C,R6*%
X78120000Y-139346359D02*
X78120000Y-139653641D01*
X78880000Y-139346359D02*
X78880000Y-139653641D01*
%TO.C,D28*%
X280781250Y-138091250D02*
X280781250Y-134081250D01*
X282781250Y-138091250D02*
X280781250Y-138091250D01*
X282781250Y-138091250D02*
X282781250Y-134081250D01*
%TO.C,D57*%
X347456250Y-176191250D02*
X347456250Y-172181250D01*
X349456250Y-176191250D02*
X347456250Y-176191250D01*
X349456250Y-176191250D02*
X349456250Y-172181250D01*
D11*
%TO.C,MX27*%
X291571074Y-127018530D02*
X291571074Y-126218530D01*
X291571074Y-129868530D02*
X291571074Y-130108530D01*
X293571074Y-124218530D02*
X299471074Y-124218530D01*
X300971074Y-124218530D02*
X302521074Y-124218530D01*
X302021074Y-128268530D02*
X297456250Y-128268530D01*
X302521074Y-124218530D02*
X302521074Y-124448530D01*
X302521074Y-127298530D02*
X302521074Y-127768530D01*
X291571074Y-126218530D02*
G75*
G02*
X293571074Y-124218530I2000004J-4D01*
G01*
X295161928Y-130108530D02*
G75*
G02*
X297456250Y-128268530I2293456J-509332D01*
G01*
X302521074Y-127768530D02*
G75*
G02*
X302021074Y-128268530I-500001J1D01*
G01*
%TO.C,MX64*%
X305858574Y-184168530D02*
X305858574Y-183368530D01*
X305858574Y-187018530D02*
X305858574Y-187258530D01*
X307858574Y-181368530D02*
X313758574Y-181368530D01*
X315258574Y-181368530D02*
X316808574Y-181368530D01*
X316308574Y-185418530D02*
X311743750Y-185418530D01*
X316808574Y-181368530D02*
X316808574Y-181598530D01*
X316808574Y-184448530D02*
X316808574Y-184918530D01*
X305858574Y-183368530D02*
G75*
G02*
X307858574Y-181368530I2000004J-4D01*
G01*
X309449428Y-187258530D02*
G75*
G02*
X311743750Y-185418530I2293456J-509332D01*
G01*
X316808574Y-184918530D02*
G75*
G02*
X316308574Y-185418530I-500001J1D01*
G01*
%TO.C,MX28*%
X310621074Y-127018530D02*
X310621074Y-126218530D01*
X310621074Y-129868530D02*
X310621074Y-130108530D01*
X312621074Y-124218530D02*
X318521074Y-124218530D01*
X320021074Y-124218530D02*
X321571074Y-124218530D01*
X321071074Y-128268530D02*
X316506250Y-128268530D01*
X321571074Y-124218530D02*
X321571074Y-124448530D01*
X321571074Y-127298530D02*
X321571074Y-127768530D01*
X310621074Y-126218530D02*
G75*
G02*
X312621074Y-124218530I2000004J-4D01*
G01*
X314211928Y-130108530D02*
G75*
G02*
X316506250Y-128268530I2293456J-509332D01*
G01*
X321571074Y-127768530D02*
G75*
G02*
X321071074Y-128268530I-500001J1D01*
G01*
%TO.C,MX50*%
X210608574Y-165118530D02*
X210608574Y-164318530D01*
X210608574Y-167968530D02*
X210608574Y-168208530D01*
X212608574Y-162318530D02*
X218508574Y-162318530D01*
X220008574Y-162318530D02*
X221558574Y-162318530D01*
X221058574Y-166368530D02*
X216493750Y-166368530D01*
X221558574Y-162318530D02*
X221558574Y-162548530D01*
X221558574Y-165398530D02*
X221558574Y-165868530D01*
X210608574Y-164318530D02*
G75*
G02*
X212608574Y-162318530I2000004J-4D01*
G01*
X214199428Y-168208530D02*
G75*
G02*
X216493750Y-166368530I2293456J-509332D01*
G01*
X221558574Y-165868530D02*
G75*
G02*
X221058574Y-166368530I-500001J1D01*
G01*
D12*
%TO.C,D46*%
X104568750Y-176191250D02*
X104568750Y-172181250D01*
X106568750Y-176191250D02*
X104568750Y-176191250D01*
X106568750Y-176191250D02*
X106568750Y-172181250D01*
%TO.C,D31*%
X342693750Y-138091250D02*
X342693750Y-134081250D01*
X344693750Y-138091250D02*
X342693750Y-138091250D01*
X344693750Y-138091250D02*
X344693750Y-134081250D01*
D11*
%TO.C,MX48*%
X172508574Y-165118530D02*
X172508574Y-164318530D01*
X172508574Y-167968530D02*
X172508574Y-168208530D01*
X174508574Y-162318530D02*
X180408574Y-162318530D01*
X181908574Y-162318530D02*
X183458574Y-162318530D01*
X182958574Y-166368530D02*
X178393750Y-166368530D01*
X183458574Y-162318530D02*
X183458574Y-162548530D01*
X183458574Y-165398530D02*
X183458574Y-165868530D01*
X172508574Y-164318530D02*
G75*
G02*
X174508574Y-162318530I2000004J-4D01*
G01*
X176099428Y-168208530D02*
G75*
G02*
X178393750Y-166368530I2293456J-509332D01*
G01*
X183458574Y-165868530D02*
G75*
G02*
X182958574Y-166368530I-500001J1D01*
G01*
%TO.C,MX44*%
X96308574Y-165118530D02*
X96308574Y-164318530D01*
X96308574Y-167968530D02*
X96308574Y-168208530D01*
X98308574Y-162318530D02*
X104208574Y-162318530D01*
X105708574Y-162318530D02*
X107258574Y-162318530D01*
X106758574Y-166368530D02*
X102193750Y-166368530D01*
X107258574Y-162318530D02*
X107258574Y-162548530D01*
X107258574Y-165398530D02*
X107258574Y-165868530D01*
X96308574Y-164318530D02*
G75*
G02*
X98308574Y-162318530I2000004J-4D01*
G01*
X99899428Y-168208530D02*
G75*
G02*
X102193750Y-166368530I2293456J-509332D01*
G01*
X107258574Y-165868530D02*
G75*
G02*
X106758574Y-166368530I-500001J1D01*
G01*
%TO.C,MX34*%
X162983574Y-146068530D02*
X162983574Y-145268530D01*
X162983574Y-148918530D02*
X162983574Y-149158530D01*
X164983574Y-143268530D02*
X170883574Y-143268530D01*
X172383574Y-143268530D02*
X173933574Y-143268530D01*
X173433574Y-147318530D02*
X168868750Y-147318530D01*
X173933574Y-143268530D02*
X173933574Y-143498530D01*
X173933574Y-146348530D02*
X173933574Y-146818530D01*
X162983574Y-145268530D02*
G75*
G02*
X164983574Y-143268530I2000004J-4D01*
G01*
X166574428Y-149158530D02*
G75*
G02*
X168868750Y-147318530I2293456J-509332D01*
G01*
X173933574Y-146818530D02*
G75*
G02*
X173433574Y-147318530I-500001J1D01*
G01*
%TO.C,MX2*%
X98731470Y-105833574D02*
X98491470Y-105833574D01*
X100331470Y-116283574D02*
X100331470Y-111718750D01*
X101301470Y-116783574D02*
X100831470Y-116783574D01*
X101581470Y-105833574D02*
X102381470Y-105833574D01*
X104381470Y-107833574D02*
X104381470Y-113733574D01*
X104381470Y-115233574D02*
X104381470Y-116783574D01*
X104381470Y-116783574D02*
X104151470Y-116783574D01*
X98491470Y-109424428D02*
G75*
G02*
X100331470Y-111718750I-509332J-2293456D01*
G01*
X100831470Y-116783574D02*
G75*
G02*
X100331470Y-116283574I1J500001D01*
G01*
X102381470Y-105833574D02*
G75*
G02*
X104381470Y-107833574I-4J-2000004D01*
G01*
D12*
%TO.C,D7*%
X156956250Y-118978750D02*
X156956250Y-114968750D01*
X158956250Y-118978750D02*
X156956250Y-118978750D01*
X158956250Y-118978750D02*
X158956250Y-114968750D01*
%TO.C,D9*%
X195056250Y-119041250D02*
X195056250Y-115031250D01*
X197056250Y-119041250D02*
X195056250Y-119041250D01*
X197056250Y-119041250D02*
X197056250Y-115031250D01*
D11*
%TO.C,MX38*%
X239183574Y-146068530D02*
X239183574Y-145268530D01*
X239183574Y-148918530D02*
X239183574Y-149158530D01*
X241183574Y-143268530D02*
X247083574Y-143268530D01*
X248583574Y-143268530D02*
X250133574Y-143268530D01*
X249633574Y-147318530D02*
X245068750Y-147318530D01*
X250133574Y-143268530D02*
X250133574Y-143498530D01*
X250133574Y-146348530D02*
X250133574Y-146818530D01*
X239183574Y-145268530D02*
G75*
G02*
X241183574Y-143268530I2000004J-4D01*
G01*
X242774428Y-149158530D02*
G75*
G02*
X245068750Y-147318530I2293456J-509332D01*
G01*
X250133574Y-146818530D02*
G75*
G02*
X249633574Y-147318530I-500001J1D01*
G01*
%TO.C,MX24*%
X234421074Y-127018530D02*
X234421074Y-126218530D01*
X234421074Y-129868530D02*
X234421074Y-130108530D01*
X236421074Y-124218530D02*
X242321074Y-124218530D01*
X243821074Y-124218530D02*
X245371074Y-124218530D01*
X244871074Y-128268530D02*
X240306250Y-128268530D01*
X245371074Y-124218530D02*
X245371074Y-124448530D01*
X245371074Y-127298530D02*
X245371074Y-127768530D01*
X234421074Y-126218530D02*
G75*
G02*
X236421074Y-124218530I2000004J-4D01*
G01*
X238011928Y-130108530D02*
G75*
G02*
X240306250Y-128268530I2293456J-509332D01*
G01*
X245371074Y-127768530D02*
G75*
G02*
X244871074Y-128268530I-500001J1D01*
G01*
%TO.C,MX13*%
X301096074Y-107968530D02*
X301096074Y-107168530D01*
X301096074Y-110818530D02*
X301096074Y-111058530D01*
X303096074Y-105168530D02*
X308996074Y-105168530D01*
X310496074Y-105168530D02*
X312046074Y-105168530D01*
X311546074Y-109218530D02*
X306981250Y-109218530D01*
X312046074Y-105168530D02*
X312046074Y-105398530D01*
X312046074Y-108248530D02*
X312046074Y-108718530D01*
X301096074Y-107168530D02*
G75*
G02*
X303096074Y-105168530I2000004J-4D01*
G01*
X304686928Y-111058530D02*
G75*
G02*
X306981250Y-109218530I2293456J-509332D01*
G01*
X312046074Y-108718530D02*
G75*
G02*
X311546074Y-109218530I-500001J1D01*
G01*
%TO.C,MX3*%
X110596074Y-107968530D02*
X110596074Y-107168530D01*
X110596074Y-110818530D02*
X110596074Y-111058530D01*
X112596074Y-105168530D02*
X118496074Y-105168530D01*
X119996074Y-105168530D02*
X121546074Y-105168530D01*
X121046074Y-109218530D02*
X116481250Y-109218530D01*
X121546074Y-105168530D02*
X121546074Y-105398530D01*
X121546074Y-108248530D02*
X121546074Y-108718530D01*
X110596074Y-107168530D02*
G75*
G02*
X112596074Y-105168530I2000004J-4D01*
G01*
X114186928Y-111058530D02*
G75*
G02*
X116481250Y-109218530I2293456J-509332D01*
G01*
X121546074Y-108718530D02*
G75*
G02*
X121046074Y-109218530I-500001J1D01*
G01*
%TO.C,MX36*%
X201083574Y-146068530D02*
X201083574Y-145268530D01*
X201083574Y-148918530D02*
X201083574Y-149158530D01*
X203083574Y-143268530D02*
X208983574Y-143268530D01*
X210483574Y-143268530D02*
X212033574Y-143268530D01*
X211533574Y-147318530D02*
X206968750Y-147318530D01*
X212033574Y-143268530D02*
X212033574Y-143498530D01*
X212033574Y-146348530D02*
X212033574Y-146818530D01*
X201083574Y-145268530D02*
G75*
G02*
X203083574Y-143268530I2000004J-4D01*
G01*
X204674428Y-149158530D02*
G75*
G02*
X206968750Y-147318530I2293456J-509332D01*
G01*
X212033574Y-146818530D02*
G75*
G02*
X211533574Y-147318530I-500001J1D01*
G01*
%TO.C,MX31*%
X105833574Y-146068530D02*
X105833574Y-145268530D01*
X105833574Y-148918530D02*
X105833574Y-149158530D01*
X107833574Y-143268530D02*
X113733574Y-143268530D01*
X115233574Y-143268530D02*
X116783574Y-143268530D01*
X116283574Y-147318530D02*
X111718750Y-147318530D01*
X116783574Y-143268530D02*
X116783574Y-143498530D01*
X116783574Y-146348530D02*
X116783574Y-146818530D01*
X105833574Y-145268530D02*
G75*
G02*
X107833574Y-143268530I2000004J-4D01*
G01*
X109424428Y-149158530D02*
G75*
G02*
X111718750Y-147318530I2293456J-509332D01*
G01*
X116783574Y-146818530D02*
G75*
G02*
X116283574Y-147318530I-500001J1D01*
G01*
D12*
%TO.C,D54*%
X256968750Y-176191250D02*
X256968750Y-172181250D01*
X258968750Y-176191250D02*
X256968750Y-176191250D01*
X258968750Y-176191250D02*
X258968750Y-172181250D01*
%TO.C,D32*%
X92860000Y-151500000D02*
X88850000Y-151500000D01*
X92860000Y-151500000D02*
X92860000Y-153500000D01*
X92860000Y-153500000D02*
X88850000Y-153500000D01*
%TO.C,D40*%
X247443750Y-157141250D02*
X247443750Y-153131250D01*
X249443750Y-157141250D02*
X247443750Y-157141250D01*
X249443750Y-157141250D02*
X249443750Y-153131250D01*
%TO.C,D58*%
X321262500Y-176191250D02*
X321262500Y-172181250D01*
X323262500Y-176191250D02*
X321262500Y-176191250D01*
X323262500Y-176191250D02*
X323262500Y-172181250D01*
D11*
%TO.C,MX58*%
X108214824Y-184168530D02*
X108214824Y-183368530D01*
X108214824Y-187018530D02*
X108214824Y-187258530D01*
X110214824Y-181368530D02*
X116114824Y-181368530D01*
X117614824Y-181368530D02*
X119164824Y-181368530D01*
X118664824Y-185418530D02*
X114100000Y-185418530D01*
X119164824Y-181368530D02*
X119164824Y-181598530D01*
X119164824Y-184448530D02*
X119164824Y-184918530D01*
X108214824Y-183368530D02*
G75*
G02*
X110214824Y-181368530I2000004J-4D01*
G01*
X111805678Y-187258530D02*
G75*
G02*
X114100000Y-185418530I2293456J-509332D01*
G01*
X119164824Y-184918530D02*
G75*
G02*
X118664824Y-185418530I-500001J1D01*
G01*
D12*
%TO.C,D56*%
X295068750Y-176191250D02*
X295068750Y-172181250D01*
X297068750Y-176191250D02*
X295068750Y-176191250D01*
X297068750Y-176191250D02*
X297068750Y-172181250D01*
%TO.C,D67*%
X335550000Y-195241250D02*
X335550000Y-191231250D01*
X337550000Y-195241250D02*
X335550000Y-195241250D01*
X337550000Y-195241250D02*
X337550000Y-191231250D01*
%TO.C,R4*%
X80620000Y-137096359D02*
X80620000Y-137403641D01*
X81380000Y-137096359D02*
X81380000Y-137403641D01*
%TO.C,D34*%
X133143750Y-157141250D02*
X133143750Y-153131250D01*
X135143750Y-157141250D02*
X133143750Y-157141250D01*
X135143750Y-157141250D02*
X135143750Y-153131250D01*
%TO.C,D20*%
X128381250Y-138091250D02*
X128381250Y-134081250D01*
X130381250Y-138091250D02*
X128381250Y-138091250D01*
X130381250Y-138091250D02*
X130381250Y-134081250D01*
%TO.C,C3*%
X73990000Y-133359420D02*
X73990000Y-133640580D01*
X75010000Y-133359420D02*
X75010000Y-133640580D01*
%TO.C,D43*%
X304593750Y-157141250D02*
X304593750Y-153131250D01*
X306593750Y-157141250D02*
X304593750Y-157141250D01*
X306593750Y-157141250D02*
X306593750Y-153131250D01*
D11*
%TO.C,MX20*%
X158221074Y-127018530D02*
X158221074Y-126218530D01*
X158221074Y-129868530D02*
X158221074Y-130108530D01*
X160221074Y-124218530D02*
X166121074Y-124218530D01*
X167621074Y-124218530D02*
X169171074Y-124218530D01*
X168671074Y-128268530D02*
X164106250Y-128268530D01*
X169171074Y-124218530D02*
X169171074Y-124448530D01*
X169171074Y-127298530D02*
X169171074Y-127768530D01*
X158221074Y-126218530D02*
G75*
G02*
X160221074Y-124218530I2000004J-4D01*
G01*
X161811928Y-130108530D02*
G75*
G02*
X164106250Y-128268530I2293456J-509332D01*
G01*
X169171074Y-127768530D02*
G75*
G02*
X168671074Y-128268530I-500001J1D01*
G01*
D12*
%TO.C,D65*%
X295068750Y-195241250D02*
X295068750Y-191231250D01*
X297068750Y-195241250D02*
X295068750Y-195241250D01*
X297068750Y-195241250D02*
X297068750Y-191231250D01*
%TO.C,C8*%
X201640000Y-191607836D02*
X201640000Y-191392164D01*
X202360000Y-191607836D02*
X202360000Y-191392164D01*
D11*
%TO.C,MX14*%
X320146074Y-107968530D02*
X320146074Y-107168530D01*
X320146074Y-110818530D02*
X320146074Y-111058530D01*
X322146074Y-105168530D02*
X328046074Y-105168530D01*
X329546074Y-105168530D02*
X331096074Y-105168530D01*
X330596074Y-109218530D02*
X326031250Y-109218530D01*
X331096074Y-105168530D02*
X331096074Y-105398530D01*
X331096074Y-108248530D02*
X331096074Y-108718530D01*
X320146074Y-107168530D02*
G75*
G02*
X322146074Y-105168530I2000004J-4D01*
G01*
X323736928Y-111058530D02*
G75*
G02*
X326031250Y-109218530I2293456J-509332D01*
G01*
X331096074Y-108718530D02*
G75*
G02*
X330596074Y-109218530I-500001J1D01*
G01*
D12*
%TO.C,D13*%
X271256250Y-119041250D02*
X271256250Y-115031250D01*
X273256250Y-119041250D02*
X271256250Y-119041250D01*
X273256250Y-119041250D02*
X273256250Y-115031250D01*
D11*
%TO.C,MX62*%
X267758574Y-184168530D02*
X267758574Y-183368530D01*
X267758574Y-187018530D02*
X267758574Y-187258530D01*
X269758574Y-181368530D02*
X275658574Y-181368530D01*
X277158574Y-181368530D02*
X278708574Y-181368530D01*
X278208574Y-185418530D02*
X273643750Y-185418530D01*
X278708574Y-181368530D02*
X278708574Y-181598530D01*
X278708574Y-184448530D02*
X278708574Y-184918530D01*
X267758574Y-183368530D02*
G75*
G02*
X269758574Y-181368530I2000004J-4D01*
G01*
X271349428Y-187258530D02*
G75*
G02*
X273643750Y-185418530I2293456J-509332D01*
G01*
X278708574Y-184918530D02*
G75*
G02*
X278208574Y-185418530I-500001J1D01*
G01*
D12*
%TO.C,D8*%
X176006250Y-118978750D02*
X176006250Y-114968750D01*
X178006250Y-118978750D02*
X176006250Y-118978750D01*
X178006250Y-118978750D02*
X178006250Y-114968750D01*
%TO.C,D26*%
X242681250Y-138091250D02*
X242681250Y-134081250D01*
X244681250Y-138091250D02*
X242681250Y-138091250D01*
X244681250Y-138091250D02*
X244681250Y-134081250D01*
%TO.C,D21*%
X147431250Y-138091250D02*
X147431250Y-134081250D01*
X149431250Y-138091250D02*
X147431250Y-138091250D01*
X149431250Y-138091250D02*
X149431250Y-134081250D01*
D11*
%TO.C,MX17*%
X101071074Y-127018530D02*
X101071074Y-126218530D01*
X101071074Y-129868530D02*
X101071074Y-130108530D01*
X103071074Y-124218530D02*
X108971074Y-124218530D01*
X110471074Y-124218530D02*
X112021074Y-124218530D01*
X111521074Y-128268530D02*
X106956250Y-128268530D01*
X112021074Y-124218530D02*
X112021074Y-124448530D01*
X112021074Y-127298530D02*
X112021074Y-127768530D01*
X101071074Y-126218530D02*
G75*
G02*
X103071074Y-124218530I2000004J-4D01*
G01*
X104661928Y-130108530D02*
G75*
G02*
X106956250Y-128268530I2293456J-509332D01*
G01*
X112021074Y-127768530D02*
G75*
G02*
X111521074Y-128268530I-500001J1D01*
G01*
D12*
%TO.C,D44*%
X335550000Y-157141250D02*
X335550000Y-153131250D01*
X337550000Y-157141250D02*
X335550000Y-157141250D01*
X337550000Y-157141250D02*
X337550000Y-153131250D01*
%TO.C,D30*%
X318881250Y-138091250D02*
X318881250Y-134081250D01*
X320881250Y-138091250D02*
X318881250Y-138091250D01*
X320881250Y-138091250D02*
X320881250Y-134081250D01*
%TO.C,D16*%
X328406250Y-119041250D02*
X328406250Y-115031250D01*
X330406250Y-119041250D02*
X328406250Y-119041250D01*
X330406250Y-119041250D02*
X330406250Y-115031250D01*
%TO.C,R5*%
X203120000Y-189163641D02*
X203120000Y-188856359D01*
X203880000Y-189163641D02*
X203880000Y-188856359D01*
D11*
%TO.C,MX60*%
X172508574Y-184168530D02*
X172508574Y-183368530D01*
X172508574Y-187018530D02*
X172508574Y-187258530D01*
X174508574Y-181368530D02*
X180408574Y-181368530D01*
X181908574Y-181368530D02*
X183458574Y-181368530D01*
X182958574Y-185418530D02*
X178393750Y-185418530D01*
X183458574Y-181368530D02*
X183458574Y-181598530D01*
X183458574Y-184448530D02*
X183458574Y-184918530D01*
X172508574Y-183368530D02*
G75*
G02*
X174508574Y-181368530I2000004J-4D01*
G01*
X176099428Y-187258530D02*
G75*
G02*
X178393750Y-185418530I2293456J-509332D01*
G01*
X183458574Y-184918530D02*
G75*
G02*
X182958574Y-185418530I-500001J1D01*
G01*
D12*
%TO.C,D52*%
X218868750Y-176191250D02*
X218868750Y-172181250D01*
X220868750Y-176191250D02*
X218868750Y-176191250D01*
X220868750Y-176191250D02*
X220868750Y-172181250D01*
D11*
%TO.C,MX51*%
X229658574Y-165118530D02*
X229658574Y-164318530D01*
X229658574Y-167968530D02*
X229658574Y-168208530D01*
X231658574Y-162318530D02*
X237558574Y-162318530D01*
X239058574Y-162318530D02*
X240608574Y-162318530D01*
X240108574Y-166368530D02*
X235543750Y-166368530D01*
X240608574Y-162318530D02*
X240608574Y-162548530D01*
X240608574Y-165398530D02*
X240608574Y-165868530D01*
X229658574Y-164318530D02*
G75*
G02*
X231658574Y-162318530I2000004J-4D01*
G01*
X233249428Y-168208530D02*
G75*
G02*
X235543750Y-166368530I2293456J-509332D01*
G01*
X240608574Y-165868530D02*
G75*
G02*
X240108574Y-166368530I-500001J1D01*
G01*
D12*
%TO.C,D50*%
X180768750Y-176191250D02*
X180768750Y-172181250D01*
X182768750Y-176191250D02*
X180768750Y-176191250D01*
X182768750Y-176191250D02*
X182768750Y-172181250D01*
%TO.C,D61*%
X140287500Y-195241250D02*
X140287500Y-191231250D01*
X142287500Y-195241250D02*
X140287500Y-195241250D01*
X142287500Y-195241250D02*
X142287500Y-191231250D01*
D11*
%TO.C,MX8*%
X205846074Y-107968530D02*
X205846074Y-107168530D01*
X205846074Y-110818530D02*
X205846074Y-111058530D01*
X207846074Y-105168530D02*
X213746074Y-105168530D01*
X215246074Y-105168530D02*
X216796074Y-105168530D01*
X216296074Y-109218530D02*
X211731250Y-109218530D01*
X216796074Y-105168530D02*
X216796074Y-105398530D01*
X216796074Y-108248530D02*
X216796074Y-108718530D01*
X205846074Y-107168530D02*
G75*
G02*
X207846074Y-105168530I2000004J-4D01*
G01*
X209436928Y-111058530D02*
G75*
G02*
X211731250Y-109218530I2293456J-509332D01*
G01*
X216796074Y-108718530D02*
G75*
G02*
X216296074Y-109218530I-500001J1D01*
G01*
D12*
%TO.C,D33*%
X114093750Y-157141250D02*
X114093750Y-153131250D01*
X116093750Y-157141250D02*
X114093750Y-157141250D01*
X116093750Y-157141250D02*
X116093750Y-153131250D01*
%TO.C,D63*%
X237918750Y-195241250D02*
X237918750Y-191231250D01*
X239918750Y-195241250D02*
X237918750Y-195241250D01*
X239918750Y-195241250D02*
X239918750Y-191231250D01*
D11*
%TO.C,MX42*%
X327289824Y-146068530D02*
X327289824Y-145268530D01*
X327289824Y-148918530D02*
X327289824Y-149158530D01*
X329289824Y-143268530D02*
X335189824Y-143268530D01*
X336689824Y-143268530D02*
X338239824Y-143268530D01*
X337739824Y-147318530D02*
X333175000Y-147318530D01*
X338239824Y-143268530D02*
X338239824Y-143498530D01*
X338239824Y-146348530D02*
X338239824Y-146818530D01*
X327289824Y-145268530D02*
G75*
G02*
X329289824Y-143268530I2000004J-4D01*
G01*
X330880678Y-149158530D02*
G75*
G02*
X333175000Y-147318530I2293456J-509332D01*
G01*
X338239824Y-146818530D02*
G75*
G02*
X337739824Y-147318530I-500001J1D01*
G01*
D12*
%TO.C,D10*%
X214106250Y-118978750D02*
X214106250Y-114968750D01*
X216106250Y-118978750D02*
X214106250Y-118978750D01*
X216106250Y-118978750D02*
X216106250Y-114968750D01*
D11*
%TO.C,MX32*%
X124883574Y-146068530D02*
X124883574Y-145268530D01*
X124883574Y-148918530D02*
X124883574Y-149158530D01*
X126883574Y-143268530D02*
X132783574Y-143268530D01*
X134283574Y-143268530D02*
X135833574Y-143268530D01*
X135333574Y-147318530D02*
X130768750Y-147318530D01*
X135833574Y-143268530D02*
X135833574Y-143498530D01*
X135833574Y-146348530D02*
X135833574Y-146818530D01*
X124883574Y-145268530D02*
G75*
G02*
X126883574Y-143268530I2000004J-4D01*
G01*
X128474428Y-149158530D02*
G75*
G02*
X130768750Y-147318530I2293456J-509332D01*
G01*
X135833574Y-146818530D02*
G75*
G02*
X135333574Y-147318530I-500001J1D01*
G01*
D12*
%TO.C,D51*%
X199818750Y-176191250D02*
X199818750Y-172181250D01*
X201818750Y-176191250D02*
X199818750Y-176191250D01*
X201818750Y-176191250D02*
X201818750Y-172181250D01*
D11*
%TO.C,MX25*%
X253471074Y-127018530D02*
X253471074Y-126218530D01*
X253471074Y-129868530D02*
X253471074Y-130108530D01*
X255471074Y-124218530D02*
X261371074Y-124218530D01*
X262871074Y-124218530D02*
X264421074Y-124218530D01*
X263921074Y-128268530D02*
X259356250Y-128268530D01*
X264421074Y-124218530D02*
X264421074Y-124448530D01*
X264421074Y-127298530D02*
X264421074Y-127768530D01*
X253471074Y-126218530D02*
G75*
G02*
X255471074Y-124218530I2000004J-4D01*
G01*
X257061928Y-130108530D02*
G75*
G02*
X259356250Y-128268530I2293456J-509332D01*
G01*
X264421074Y-127768530D02*
G75*
G02*
X263921074Y-128268530I-500001J1D01*
G01*
%TO.C,MX15*%
X339196074Y-107968530D02*
X339196074Y-107168530D01*
X339196074Y-110818530D02*
X339196074Y-111058530D01*
X341196074Y-105168530D02*
X347096074Y-105168530D01*
X348596074Y-105168530D02*
X350146074Y-105168530D01*
X349646074Y-109218530D02*
X345081250Y-109218530D01*
X350146074Y-105168530D02*
X350146074Y-105398530D01*
X350146074Y-108248530D02*
X350146074Y-108718530D01*
X339196074Y-107168530D02*
G75*
G02*
X341196074Y-105168530I2000004J-4D01*
G01*
X342786928Y-111058530D02*
G75*
G02*
X345081250Y-109218530I2293456J-509332D01*
G01*
X350146074Y-108718530D02*
G75*
G02*
X349646074Y-109218530I-500001J1D01*
G01*
%TO.C,MX52*%
X248708574Y-165118530D02*
X248708574Y-164318530D01*
X248708574Y-167968530D02*
X248708574Y-168208530D01*
X250708574Y-162318530D02*
X256608574Y-162318530D01*
X258108574Y-162318530D02*
X259658574Y-162318530D01*
X259158574Y-166368530D02*
X254593750Y-166368530D01*
X259658574Y-162318530D02*
X259658574Y-162548530D01*
X259658574Y-165398530D02*
X259658574Y-165868530D01*
X248708574Y-164318530D02*
G75*
G02*
X250708574Y-162318530I2000004J-4D01*
G01*
X252299428Y-168208530D02*
G75*
G02*
X254593750Y-166368530I2293456J-509332D01*
G01*
X259658574Y-165868530D02*
G75*
G02*
X259158574Y-166368530I-500001J1D01*
G01*
%TO.C,MX37*%
X220133574Y-146068530D02*
X220133574Y-145268530D01*
X220133574Y-148918530D02*
X220133574Y-149158530D01*
X222133574Y-143268530D02*
X228033574Y-143268530D01*
X229533574Y-143268530D02*
X231083574Y-143268530D01*
X230583574Y-147318530D02*
X226018750Y-147318530D01*
X231083574Y-143268530D02*
X231083574Y-143498530D01*
X231083574Y-146348530D02*
X231083574Y-146818530D01*
X220133574Y-145268530D02*
G75*
G02*
X222133574Y-143268530I2000004J-4D01*
G01*
X223724428Y-149158530D02*
G75*
G02*
X226018750Y-147318530I2293456J-509332D01*
G01*
X231083574Y-146818530D02*
G75*
G02*
X230583574Y-147318530I-500001J1D01*
G01*
%TO.C,MX47*%
X153458574Y-165118530D02*
X153458574Y-164318530D01*
X153458574Y-167968530D02*
X153458574Y-168208530D01*
X155458574Y-162318530D02*
X161358574Y-162318530D01*
X162858574Y-162318530D02*
X164408574Y-162318530D01*
X163908574Y-166368530D02*
X159343750Y-166368530D01*
X164408574Y-162318530D02*
X164408574Y-162548530D01*
X164408574Y-165398530D02*
X164408574Y-165868530D01*
X153458574Y-164318530D02*
G75*
G02*
X155458574Y-162318530I2000004J-4D01*
G01*
X157049428Y-168208530D02*
G75*
G02*
X159343750Y-166368530I2293456J-509332D01*
G01*
X164408574Y-165868530D02*
G75*
G02*
X163908574Y-166368530I-500001J1D01*
G01*
%TO.C,MX6*%
X167746074Y-107968530D02*
X167746074Y-107168530D01*
X167746074Y-110818530D02*
X167746074Y-111058530D01*
X169746074Y-105168530D02*
X175646074Y-105168530D01*
X177146074Y-105168530D02*
X178696074Y-105168530D01*
X178196074Y-109218530D02*
X173631250Y-109218530D01*
X178696074Y-105168530D02*
X178696074Y-105398530D01*
X178696074Y-108248530D02*
X178696074Y-108718530D01*
X167746074Y-107168530D02*
G75*
G02*
X169746074Y-105168530I2000004J-4D01*
G01*
X171336928Y-111058530D02*
G75*
G02*
X173631250Y-109218530I2293456J-509332D01*
G01*
X178696074Y-108718530D02*
G75*
G02*
X178196074Y-109218530I-500001J1D01*
G01*
D12*
%TO.C,C4*%
X72140580Y-135990000D02*
X71859420Y-135990000D01*
X72140580Y-137010000D02*
X71859420Y-137010000D01*
%TO.C,C5*%
X80490000Y-134584420D02*
X80490000Y-134865580D01*
X81510000Y-134584420D02*
X81510000Y-134865580D01*
%TO.C,U5*%
X76177500Y-134140000D02*
X76177500Y-134615000D01*
X76177500Y-136885000D02*
X76177500Y-137120000D01*
X76652500Y-134140000D02*
X76177500Y-134140000D01*
X76652500Y-137360000D02*
X76477500Y-137360000D01*
X78922500Y-134140000D02*
X79397500Y-134140000D01*
X78922500Y-137360000D02*
X79397500Y-137360000D01*
X79397500Y-134140000D02*
X79397500Y-134615000D01*
X79397500Y-137360000D02*
X79397500Y-136885000D01*
X76417500Y-137690000D02*
X75937500Y-137690000D01*
X76177500Y-137360000D01*
X76417500Y-137690000D01*
G36*
X76417500Y-137690000D02*
G01*
X75937500Y-137690000D01*
X76177500Y-137360000D01*
X76417500Y-137690000D01*
G37*
D11*
%TO.C,MX7*%
X186796074Y-107968530D02*
X186796074Y-107168530D01*
X186796074Y-110818530D02*
X186796074Y-111058530D01*
X188796074Y-105168530D02*
X194696074Y-105168530D01*
X196196074Y-105168530D02*
X197746074Y-105168530D01*
X197246074Y-109218530D02*
X192681250Y-109218530D01*
X197746074Y-105168530D02*
X197746074Y-105398530D01*
X197746074Y-108248530D02*
X197746074Y-108718530D01*
X186796074Y-107168530D02*
G75*
G02*
X188796074Y-105168530I2000004J-4D01*
G01*
X190386928Y-111058530D02*
G75*
G02*
X192681250Y-109218530I2293456J-509332D01*
G01*
X197746074Y-108718530D02*
G75*
G02*
X197246074Y-109218530I-500001J1D01*
G01*
D12*
%TO.C,D66*%
X314118750Y-195303750D02*
X314118750Y-191293750D01*
X316118750Y-195303750D02*
X314118750Y-195303750D01*
X316118750Y-195303750D02*
X316118750Y-191293750D01*
%TO.C,R9*%
X79620000Y-142153641D02*
X79620000Y-141846359D01*
X80380000Y-142153641D02*
X80380000Y-141846359D01*
%TO.C,R2*%
X84801141Y-109951250D02*
X84493859Y-109951250D01*
X84801141Y-110711250D02*
X84493859Y-110711250D01*
%TO.C,Q1*%
X75990000Y-143062500D02*
X75990000Y-142412500D01*
X75990000Y-143062500D02*
X75990000Y-143712500D01*
X79110000Y-143062500D02*
X79110000Y-142412500D01*
X79110000Y-143062500D02*
X79110000Y-143712500D01*
X79390000Y-144465000D02*
X79060000Y-144225000D01*
X79390000Y-143985000D01*
X79390000Y-144465000D01*
G36*
X79390000Y-144465000D02*
G01*
X79060000Y-144225000D01*
X79390000Y-143985000D01*
X79390000Y-144465000D01*
G37*
%TO.C,R10*%
X80620000Y-141856359D02*
X80620000Y-142163641D01*
X81380000Y-141856359D02*
X81380000Y-142163641D01*
%TO.C,R8*%
X73620000Y-136856359D02*
X73620000Y-137163641D01*
X74380000Y-136856359D02*
X74380000Y-137163641D01*
D11*
%TO.C,MX54*%
X286808574Y-165118530D02*
X286808574Y-164318530D01*
X286808574Y-167968530D02*
X286808574Y-168208530D01*
X288808574Y-162318530D02*
X294708574Y-162318530D01*
X296208574Y-162318530D02*
X297758574Y-162318530D01*
X297258574Y-166368530D02*
X292693750Y-166368530D01*
X297758574Y-162318530D02*
X297758574Y-162548530D01*
X297758574Y-165398530D02*
X297758574Y-165868530D01*
X286808574Y-164318530D02*
G75*
G02*
X288808574Y-162318530I2000004J-4D01*
G01*
X290399428Y-168208530D02*
G75*
G02*
X292693750Y-166368530I2293456J-509332D01*
G01*
X297758574Y-165868530D02*
G75*
G02*
X297258574Y-166368530I-500001J1D01*
G01*
D12*
%TO.C,D64*%
X276018750Y-195241250D02*
X276018750Y-191231250D01*
X278018750Y-195241250D02*
X276018750Y-195241250D01*
X278018750Y-195241250D02*
X278018750Y-191231250D01*
%TO.C,D59*%
X92662500Y-195241250D02*
X92662500Y-191231250D01*
X94662500Y-195241250D02*
X92662500Y-195241250D01*
X94662500Y-195241250D02*
X94662500Y-191231250D01*
%TO.C,C6*%
X197590000Y-188436252D02*
X197590000Y-187013748D01*
X199410000Y-188436252D02*
X199410000Y-187013748D01*
%TO.C,J2*%
X74690000Y-152940000D02*
X74690000Y-153960000D01*
X74690000Y-153960000D02*
X76290000Y-153960000D01*
X74690000Y-160040000D02*
X76290000Y-160040000D01*
X74690000Y-161060000D02*
X74690000Y-160040000D01*
X76290000Y-153960000D02*
X76290000Y-155240000D01*
X76290000Y-155240000D02*
X73400000Y-155240000D01*
X76290000Y-160040000D02*
X76290000Y-158760000D01*
X78940000Y-152940000D02*
X74690000Y-152940000D01*
X78940000Y-161060000D02*
X74690000Y-161060000D01*
X82510000Y-154660000D02*
X82510000Y-159340000D01*
D11*
%TO.C,MX65*%
X327289824Y-184168530D02*
X327289824Y-183368530D01*
X327289824Y-187018530D02*
X327289824Y-187258530D01*
X329289824Y-181368530D02*
X335189824Y-181368530D01*
X336689824Y-181368530D02*
X338239824Y-181368530D01*
X337739824Y-185418530D02*
X333175000Y-185418530D01*
X338239824Y-181368530D02*
X338239824Y-181598530D01*
X338239824Y-184448530D02*
X338239824Y-184918530D01*
X327289824Y-183368530D02*
G75*
G02*
X329289824Y-181368530I2000004J-4D01*
G01*
X330880678Y-187258530D02*
G75*
G02*
X333175000Y-185418530I2293456J-509332D01*
G01*
X338239824Y-184918530D02*
G75*
G02*
X337739824Y-185418530I-500001J1D01*
G01*
D12*
%TO.C,D4*%
X93456250Y-119041250D02*
X93456250Y-115031250D01*
X95456250Y-119041250D02*
X93456250Y-119041250D01*
X95456250Y-119041250D02*
X95456250Y-115031250D01*
%TO.C,D41*%
X266493750Y-157141250D02*
X266493750Y-153131250D01*
X268493750Y-157141250D02*
X266493750Y-157141250D01*
X268493750Y-157141250D02*
X268493750Y-153131250D01*
D11*
%TO.C,MX40*%
X277283574Y-146068530D02*
X277283574Y-145268530D01*
X277283574Y-148918530D02*
X277283574Y-149158530D01*
X279283574Y-143268530D02*
X285183574Y-143268530D01*
X286683574Y-143268530D02*
X288233574Y-143268530D01*
X287733574Y-147318530D02*
X283168750Y-147318530D01*
X288233574Y-143268530D02*
X288233574Y-143498530D01*
X288233574Y-146348530D02*
X288233574Y-146818530D01*
X277283574Y-145268530D02*
G75*
G02*
X279283574Y-143268530I2000004J-4D01*
G01*
X280874428Y-149158530D02*
G75*
G02*
X283168750Y-147318530I2293456J-509332D01*
G01*
X288233574Y-146818530D02*
G75*
G02*
X287733574Y-147318530I-500001J1D01*
G01*
%TO.C,MX12*%
X282046074Y-107968530D02*
X282046074Y-107168530D01*
X282046074Y-110818530D02*
X282046074Y-111058530D01*
X284046074Y-105168530D02*
X289946074Y-105168530D01*
X291446074Y-105168530D02*
X292996074Y-105168530D01*
X292496074Y-109218530D02*
X287931250Y-109218530D01*
X292996074Y-105168530D02*
X292996074Y-105398530D01*
X292996074Y-108248530D02*
X292996074Y-108718530D01*
X282046074Y-107168530D02*
G75*
G02*
X284046074Y-105168530I2000004J-4D01*
G01*
X285636928Y-111058530D02*
G75*
G02*
X287931250Y-109218530I2293456J-509332D01*
G01*
X292996074Y-108718530D02*
G75*
G02*
X292496074Y-109218530I-500001J1D01*
G01*
D12*
%TO.C,R1*%
X91718641Y-109951250D02*
X91411359Y-109951250D01*
X91718641Y-110711250D02*
X91411359Y-110711250D01*
D11*
%TO.C,MX59*%
X132027324Y-184168530D02*
X132027324Y-183368530D01*
X132027324Y-187018530D02*
X132027324Y-187258530D01*
X134027324Y-181368530D02*
X139927324Y-181368530D01*
X141427324Y-181368530D02*
X142977324Y-181368530D01*
X142477324Y-185418530D02*
X137912500Y-185418530D01*
X142977324Y-181368530D02*
X142977324Y-181598530D01*
X142977324Y-184448530D02*
X142977324Y-184918530D01*
X132027324Y-183368530D02*
G75*
G02*
X134027324Y-181368530I2000004J-4D01*
G01*
X135618178Y-187258530D02*
G75*
G02*
X137912500Y-185418530I2293456J-509332D01*
G01*
X142977324Y-184918530D02*
G75*
G02*
X142477324Y-185418530I-500001J1D01*
G01*
D12*
%TO.C,D25*%
X223631250Y-138091250D02*
X223631250Y-134081250D01*
X225631250Y-138091250D02*
X223631250Y-138091250D01*
X225631250Y-138091250D02*
X225631250Y-134081250D01*
%TO.C,D15*%
X309356250Y-119041250D02*
X309356250Y-115031250D01*
X311356250Y-119041250D02*
X309356250Y-119041250D01*
X311356250Y-119041250D02*
X311356250Y-115031250D01*
%TO.C,D22*%
X166481250Y-138091250D02*
X166481250Y-134081250D01*
X168481250Y-138091250D02*
X166481250Y-138091250D01*
X168481250Y-138091250D02*
X168481250Y-134081250D01*
D11*
%TO.C,MX57*%
X84402324Y-184168530D02*
X84402324Y-183368530D01*
X84402324Y-187018530D02*
X84402324Y-187258530D01*
X86402324Y-181368530D02*
X92302324Y-181368530D01*
X93802324Y-181368530D02*
X95352324Y-181368530D01*
X94852324Y-185418530D02*
X90287500Y-185418530D01*
X95352324Y-181368530D02*
X95352324Y-181598530D01*
X95352324Y-184448530D02*
X95352324Y-184918530D01*
X84402324Y-183368530D02*
G75*
G02*
X86402324Y-181368530I2000004J-4D01*
G01*
X87993178Y-187258530D02*
G75*
G02*
X90287500Y-185418530I2293456J-509332D01*
G01*
X95352324Y-184918530D02*
G75*
G02*
X94852324Y-185418530I-500001J1D01*
G01*
%TD*%
M02*
