%TF.GenerationSoftware,KiCad,Pcbnew,9.0.1*%
%TF.CreationDate,2025-05-16T22:45:18+09:00*%
%TF.ProjectId,H360,48333630-2e6b-4696-9361-645f70636258,rev?*%
%TF.SameCoordinates,Original*%
%TF.FileFunction,Legend,Top*%
%TF.FilePolarity,Positive*%
%FSLAX46Y46*%
G04 Gerber Fmt 4.6, Leading zero omitted, Abs format (unit mm)*
G04 Created by KiCad (PCBNEW 9.0.1) date 2025-05-16 22:45:18*
%MOMM*%
%LPD*%
G01*
G04 APERTURE LIST*
%ADD10C,0.100000*%
%ADD11C,0.125000*%
%ADD12C,0.120000*%
G04 APERTURE END LIST*
D10*
X208137217Y-161933609D02*
X208446741Y-161933609D01*
X208446741Y-161933609D02*
X208280074Y-162124085D01*
X208280074Y-162124085D02*
X208351503Y-162124085D01*
X208351503Y-162124085D02*
X208399122Y-162147895D01*
X208399122Y-162147895D02*
X208422931Y-162171704D01*
X208422931Y-162171704D02*
X208446741Y-162219323D01*
X208446741Y-162219323D02*
X208446741Y-162338371D01*
X208446741Y-162338371D02*
X208422931Y-162385990D01*
X208422931Y-162385990D02*
X208399122Y-162409800D01*
X208399122Y-162409800D02*
X208351503Y-162433609D01*
X208351503Y-162433609D02*
X208208646Y-162433609D01*
X208208646Y-162433609D02*
X208161027Y-162409800D01*
X208161027Y-162409800D02*
X208137217Y-162385990D01*
X208589598Y-161933609D02*
X208756264Y-162433609D01*
X208756264Y-162433609D02*
X208922931Y-161933609D01*
X209041978Y-161933609D02*
X209351502Y-161933609D01*
X209351502Y-161933609D02*
X209184835Y-162124085D01*
X209184835Y-162124085D02*
X209256264Y-162124085D01*
X209256264Y-162124085D02*
X209303883Y-162147895D01*
X209303883Y-162147895D02*
X209327692Y-162171704D01*
X209327692Y-162171704D02*
X209351502Y-162219323D01*
X209351502Y-162219323D02*
X209351502Y-162338371D01*
X209351502Y-162338371D02*
X209327692Y-162385990D01*
X209327692Y-162385990D02*
X209303883Y-162409800D01*
X209303883Y-162409800D02*
X209256264Y-162433609D01*
X209256264Y-162433609D02*
X209113407Y-162433609D01*
X209113407Y-162433609D02*
X209065788Y-162409800D01*
X209065788Y-162409800D02*
X209041978Y-162385990D01*
D11*
X208177474Y-164908500D02*
X208248902Y-164932309D01*
X208248902Y-164932309D02*
X208367950Y-164932309D01*
X208367950Y-164932309D02*
X208415569Y-164908500D01*
X208415569Y-164908500D02*
X208439378Y-164884690D01*
X208439378Y-164884690D02*
X208463188Y-164837071D01*
X208463188Y-164837071D02*
X208463188Y-164789452D01*
X208463188Y-164789452D02*
X208439378Y-164741833D01*
X208439378Y-164741833D02*
X208415569Y-164718023D01*
X208415569Y-164718023D02*
X208367950Y-164694214D01*
X208367950Y-164694214D02*
X208272712Y-164670404D01*
X208272712Y-164670404D02*
X208225093Y-164646595D01*
X208225093Y-164646595D02*
X208201283Y-164622785D01*
X208201283Y-164622785D02*
X208177474Y-164575166D01*
X208177474Y-164575166D02*
X208177474Y-164527547D01*
X208177474Y-164527547D02*
X208201283Y-164479928D01*
X208201283Y-164479928D02*
X208225093Y-164456119D01*
X208225093Y-164456119D02*
X208272712Y-164432309D01*
X208272712Y-164432309D02*
X208391759Y-164432309D01*
X208391759Y-164432309D02*
X208463188Y-164456119D01*
X208629854Y-164432309D02*
X208748902Y-164932309D01*
X208748902Y-164932309D02*
X208844140Y-164575166D01*
X208844140Y-164575166D02*
X208939378Y-164932309D01*
X208939378Y-164932309D02*
X209058426Y-164432309D01*
X209248902Y-164932309D02*
X209248902Y-164432309D01*
X209248902Y-164432309D02*
X209367950Y-164432309D01*
X209367950Y-164432309D02*
X209439378Y-164456119D01*
X209439378Y-164456119D02*
X209486997Y-164503738D01*
X209486997Y-164503738D02*
X209510807Y-164551357D01*
X209510807Y-164551357D02*
X209534616Y-164646595D01*
X209534616Y-164646595D02*
X209534616Y-164718023D01*
X209534616Y-164718023D02*
X209510807Y-164813261D01*
X209510807Y-164813261D02*
X209486997Y-164860880D01*
X209486997Y-164860880D02*
X209439378Y-164908500D01*
X209439378Y-164908500D02*
X209367950Y-164932309D01*
X209367950Y-164932309D02*
X209248902Y-164932309D01*
X209748902Y-164932309D02*
X209748902Y-164432309D01*
X210082235Y-164432309D02*
X210177473Y-164432309D01*
X210177473Y-164432309D02*
X210225092Y-164456119D01*
X210225092Y-164456119D02*
X210272711Y-164503738D01*
X210272711Y-164503738D02*
X210296521Y-164598976D01*
X210296521Y-164598976D02*
X210296521Y-164765642D01*
X210296521Y-164765642D02*
X210272711Y-164860880D01*
X210272711Y-164860880D02*
X210225092Y-164908500D01*
X210225092Y-164908500D02*
X210177473Y-164932309D01*
X210177473Y-164932309D02*
X210082235Y-164932309D01*
X210082235Y-164932309D02*
X210034616Y-164908500D01*
X210034616Y-164908500D02*
X209986997Y-164860880D01*
X209986997Y-164860880D02*
X209963188Y-164765642D01*
X209963188Y-164765642D02*
X209963188Y-164598976D01*
X209963188Y-164598976D02*
X209986997Y-164503738D01*
X209986997Y-164503738D02*
X210034616Y-164456119D01*
X210034616Y-164456119D02*
X210082235Y-164432309D01*
D10*
X208446741Y-169457419D02*
X208399122Y-169433609D01*
X208399122Y-169433609D02*
X208327693Y-169433609D01*
X208327693Y-169433609D02*
X208256265Y-169457419D01*
X208256265Y-169457419D02*
X208208646Y-169505038D01*
X208208646Y-169505038D02*
X208184836Y-169552657D01*
X208184836Y-169552657D02*
X208161027Y-169647895D01*
X208161027Y-169647895D02*
X208161027Y-169719323D01*
X208161027Y-169719323D02*
X208184836Y-169814561D01*
X208184836Y-169814561D02*
X208208646Y-169862180D01*
X208208646Y-169862180D02*
X208256265Y-169909800D01*
X208256265Y-169909800D02*
X208327693Y-169933609D01*
X208327693Y-169933609D02*
X208375312Y-169933609D01*
X208375312Y-169933609D02*
X208446741Y-169909800D01*
X208446741Y-169909800D02*
X208470550Y-169885990D01*
X208470550Y-169885990D02*
X208470550Y-169719323D01*
X208470550Y-169719323D02*
X208375312Y-169719323D01*
X208684836Y-169933609D02*
X208684836Y-169433609D01*
X208684836Y-169433609D02*
X208970550Y-169933609D01*
X208970550Y-169933609D02*
X208970550Y-169433609D01*
X209208646Y-169933609D02*
X209208646Y-169433609D01*
X209208646Y-169433609D02*
X209327694Y-169433609D01*
X209327694Y-169433609D02*
X209399122Y-169457419D01*
X209399122Y-169457419D02*
X209446741Y-169505038D01*
X209446741Y-169505038D02*
X209470551Y-169552657D01*
X209470551Y-169552657D02*
X209494360Y-169647895D01*
X209494360Y-169647895D02*
X209494360Y-169719323D01*
X209494360Y-169719323D02*
X209470551Y-169814561D01*
X209470551Y-169814561D02*
X209446741Y-169862180D01*
X209446741Y-169862180D02*
X209399122Y-169909800D01*
X209399122Y-169909800D02*
X209327694Y-169933609D01*
X209327694Y-169933609D02*
X209208646Y-169933609D01*
X208470550Y-172433609D02*
X208303884Y-172195514D01*
X208184836Y-172433609D02*
X208184836Y-171933609D01*
X208184836Y-171933609D02*
X208375312Y-171933609D01*
X208375312Y-171933609D02*
X208422931Y-171957419D01*
X208422931Y-171957419D02*
X208446741Y-171981228D01*
X208446741Y-171981228D02*
X208470550Y-172028847D01*
X208470550Y-172028847D02*
X208470550Y-172100276D01*
X208470550Y-172100276D02*
X208446741Y-172147895D01*
X208446741Y-172147895D02*
X208422931Y-172171704D01*
X208422931Y-172171704D02*
X208375312Y-172195514D01*
X208375312Y-172195514D02*
X208184836Y-172195514D01*
X208661027Y-172409800D02*
X208732455Y-172433609D01*
X208732455Y-172433609D02*
X208851503Y-172433609D01*
X208851503Y-172433609D02*
X208899122Y-172409800D01*
X208899122Y-172409800D02*
X208922931Y-172385990D01*
X208922931Y-172385990D02*
X208946741Y-172338371D01*
X208946741Y-172338371D02*
X208946741Y-172290752D01*
X208946741Y-172290752D02*
X208922931Y-172243133D01*
X208922931Y-172243133D02*
X208899122Y-172219323D01*
X208899122Y-172219323D02*
X208851503Y-172195514D01*
X208851503Y-172195514D02*
X208756265Y-172171704D01*
X208756265Y-172171704D02*
X208708646Y-172147895D01*
X208708646Y-172147895D02*
X208684836Y-172124085D01*
X208684836Y-172124085D02*
X208661027Y-172076466D01*
X208661027Y-172076466D02*
X208661027Y-172028847D01*
X208661027Y-172028847D02*
X208684836Y-171981228D01*
X208684836Y-171981228D02*
X208708646Y-171957419D01*
X208708646Y-171957419D02*
X208756265Y-171933609D01*
X208756265Y-171933609D02*
X208875312Y-171933609D01*
X208875312Y-171933609D02*
X208946741Y-171957419D01*
X209089598Y-171933609D02*
X209375312Y-171933609D01*
X209232455Y-172433609D02*
X209232455Y-171933609D01*
X208161027Y-167409800D02*
X208232455Y-167433609D01*
X208232455Y-167433609D02*
X208351503Y-167433609D01*
X208351503Y-167433609D02*
X208399122Y-167409800D01*
X208399122Y-167409800D02*
X208422931Y-167385990D01*
X208422931Y-167385990D02*
X208446741Y-167338371D01*
X208446741Y-167338371D02*
X208446741Y-167290752D01*
X208446741Y-167290752D02*
X208422931Y-167243133D01*
X208422931Y-167243133D02*
X208399122Y-167219323D01*
X208399122Y-167219323D02*
X208351503Y-167195514D01*
X208351503Y-167195514D02*
X208256265Y-167171704D01*
X208256265Y-167171704D02*
X208208646Y-167147895D01*
X208208646Y-167147895D02*
X208184836Y-167124085D01*
X208184836Y-167124085D02*
X208161027Y-167076466D01*
X208161027Y-167076466D02*
X208161027Y-167028847D01*
X208161027Y-167028847D02*
X208184836Y-166981228D01*
X208184836Y-166981228D02*
X208208646Y-166957419D01*
X208208646Y-166957419D02*
X208256265Y-166933609D01*
X208256265Y-166933609D02*
X208375312Y-166933609D01*
X208375312Y-166933609D02*
X208446741Y-166957419D01*
X208613407Y-166933609D02*
X208732455Y-167433609D01*
X208732455Y-167433609D02*
X208827693Y-167076466D01*
X208827693Y-167076466D02*
X208922931Y-167433609D01*
X208922931Y-167433609D02*
X209041979Y-166933609D01*
X209232455Y-167433609D02*
X209232455Y-166933609D01*
X209232455Y-166933609D02*
X209351503Y-166933609D01*
X209351503Y-166933609D02*
X209422931Y-166957419D01*
X209422931Y-166957419D02*
X209470550Y-167005038D01*
X209470550Y-167005038D02*
X209494360Y-167052657D01*
X209494360Y-167052657D02*
X209518169Y-167147895D01*
X209518169Y-167147895D02*
X209518169Y-167219323D01*
X209518169Y-167219323D02*
X209494360Y-167314561D01*
X209494360Y-167314561D02*
X209470550Y-167362180D01*
X209470550Y-167362180D02*
X209422931Y-167409800D01*
X209422931Y-167409800D02*
X209351503Y-167433609D01*
X209351503Y-167433609D02*
X209232455Y-167433609D01*
X210018169Y-167385990D02*
X209994360Y-167409800D01*
X209994360Y-167409800D02*
X209922931Y-167433609D01*
X209922931Y-167433609D02*
X209875312Y-167433609D01*
X209875312Y-167433609D02*
X209803884Y-167409800D01*
X209803884Y-167409800D02*
X209756265Y-167362180D01*
X209756265Y-167362180D02*
X209732455Y-167314561D01*
X209732455Y-167314561D02*
X209708646Y-167219323D01*
X209708646Y-167219323D02*
X209708646Y-167147895D01*
X209708646Y-167147895D02*
X209732455Y-167052657D01*
X209732455Y-167052657D02*
X209756265Y-167005038D01*
X209756265Y-167005038D02*
X209803884Y-166957419D01*
X209803884Y-166957419D02*
X209875312Y-166933609D01*
X209875312Y-166933609D02*
X209922931Y-166933609D01*
X209922931Y-166933609D02*
X209994360Y-166957419D01*
X209994360Y-166957419D02*
X210018169Y-166981228D01*
X210470550Y-167433609D02*
X210232455Y-167433609D01*
X210232455Y-167433609D02*
X210232455Y-166933609D01*
X210637217Y-167433609D02*
X210637217Y-166933609D01*
X210922931Y-167433609D02*
X210708646Y-167147895D01*
X210922931Y-166933609D02*
X210637217Y-167219323D01*
D12*
%TO.C,REF\u002A\u002A*%
X205120000Y-160620000D02*
X206500000Y-160620000D01*
X205120000Y-162000000D02*
X205120000Y-160620000D01*
X205120000Y-163270000D02*
X205120000Y-173540000D01*
X205120000Y-163270000D02*
X207880000Y-163270000D01*
X205120000Y-173540000D02*
X207880000Y-173540000D01*
X207880000Y-163270000D02*
X207880000Y-173540000D01*
%TD*%
M02*
