%TF.GenerationSoftware,KiCad,Pcbnew,9.0.1*%
%TF.CreationDate,2025-05-16T22:45:17+09:00*%
%TF.ProjectId,H360,48333630-2e6b-4696-9361-645f70636258,rev?*%
%TF.SameCoordinates,Original*%
%TF.FileFunction,Copper,L2,Bot*%
%TF.FilePolarity,Positive*%
%FSLAX46Y46*%
G04 Gerber Fmt 4.6, Leading zero omitted, Abs format (unit mm)*
G04 Created by KiCad (PCBNEW 9.0.1) date 2025-05-16 22:45:17*
%MOMM*%
%LPD*%
G01*
G04 APERTURE LIST*
G04 Aperture macros list*
%AMRoundRect*
0 Rectangle with rounded corners*
0 $1 Rounding radius*
0 $2 $3 $4 $5 $6 $7 $8 $9 X,Y pos of 4 corners*
0 Add a 4 corners polygon primitive as box body*
4,1,4,$2,$3,$4,$5,$6,$7,$8,$9,$2,$3,0*
0 Add four circle primitives for the rounded corners*
1,1,$1+$1,$2,$3*
1,1,$1+$1,$4,$5*
1,1,$1+$1,$6,$7*
1,1,$1+$1,$8,$9*
0 Add four rect primitives between the rounded corners*
20,1,$1+$1,$2,$3,$4,$5,0*
20,1,$1+$1,$4,$5,$6,$7,0*
20,1,$1+$1,$6,$7,$8,$9,0*
20,1,$1+$1,$8,$9,$2,$3,0*%
G04 Aperture macros list end*
%TA.AperFunction,ComponentPad*%
%ADD10R,1.700000X1.700000*%
%TD*%
%TA.AperFunction,ComponentPad*%
%ADD11C,1.700000*%
%TD*%
%TA.AperFunction,SMDPad,CuDef*%
%ADD12RoundRect,0.225000X0.375000X-0.225000X0.375000X0.225000X-0.375000X0.225000X-0.375000X-0.225000X0*%
%TD*%
%TA.AperFunction,SMDPad,CuDef*%
%ADD13RoundRect,0.135000X-0.185000X0.135000X-0.185000X-0.135000X0.185000X-0.135000X0.185000X0.135000X0*%
%TD*%
%TA.AperFunction,ComponentPad*%
%ADD14C,3.300000*%
%TD*%
%TA.AperFunction,SMDPad,CuDef*%
%ADD15R,1.650000X2.500000*%
%TD*%
%TA.AperFunction,SMDPad,CuDef*%
%ADD16RoundRect,0.250000X1.025000X1.000000X-1.025000X1.000000X-1.025000X-1.000000X1.025000X-1.000000X0*%
%TD*%
%TA.AperFunction,SMDPad,CuDef*%
%ADD17R,2.500000X1.650000*%
%TD*%
%TA.AperFunction,SMDPad,CuDef*%
%ADD18RoundRect,0.250000X-1.000000X1.025000X-1.000000X-1.025000X1.000000X-1.025000X1.000000X1.025000X0*%
%TD*%
%TA.AperFunction,SMDPad,CuDef*%
%ADD19R,0.700000X1.524000*%
%TD*%
%TA.AperFunction,SMDPad,CuDef*%
%ADD20R,1.524000X0.700000*%
%TD*%
%TA.AperFunction,SMDPad,CuDef*%
%ADD21RoundRect,0.150000X-0.512500X-0.150000X0.512500X-0.150000X0.512500X0.150000X-0.512500X0.150000X0*%
%TD*%
%TA.AperFunction,SMDPad,CuDef*%
%ADD22R,1.000000X0.750000*%
%TD*%
%TA.AperFunction,SMDPad,CuDef*%
%ADD23RoundRect,0.250000X-0.312500X-1.450000X0.312500X-1.450000X0.312500X1.450000X-0.312500X1.450000X0*%
%TD*%
%TA.AperFunction,SMDPad,CuDef*%
%ADD24RoundRect,0.250000X0.650000X-0.325000X0.650000X0.325000X-0.650000X0.325000X-0.650000X-0.325000X0*%
%TD*%
%TA.AperFunction,SMDPad,CuDef*%
%ADD25R,0.600000X1.140000*%
%TD*%
%TA.AperFunction,SMDPad,CuDef*%
%ADD26R,0.300000X1.140000*%
%TD*%
%TA.AperFunction,ComponentPad*%
%ADD27O,0.900000X2.000000*%
%TD*%
%TA.AperFunction,ComponentPad*%
%ADD28O,0.900000X1.700000*%
%TD*%
%TA.AperFunction,SMDPad,CuDef*%
%ADD29RoundRect,0.250000X1.000000X-0.375000X1.000000X0.375000X-1.000000X0.375000X-1.000000X-0.375000X0*%
%TD*%
%TA.AperFunction,SMDPad,CuDef*%
%ADD30RoundRect,0.150000X0.512500X0.150000X-0.512500X0.150000X-0.512500X-0.150000X0.512500X-0.150000X0*%
%TD*%
%TA.AperFunction,SMDPad,CuDef*%
%ADD31RoundRect,0.200000X-0.275000X0.200000X-0.275000X-0.200000X0.275000X-0.200000X0.275000X0.200000X0*%
%TD*%
%TA.AperFunction,SMDPad,CuDef*%
%ADD32RoundRect,0.147500X-0.147500X-0.172500X0.147500X-0.172500X0.147500X0.172500X-0.147500X0.172500X0*%
%TD*%
%TA.AperFunction,SMDPad,CuDef*%
%ADD33RoundRect,0.250000X1.000000X-1.025000X1.000000X1.025000X-1.000000X1.025000X-1.000000X-1.025000X0*%
%TD*%
%TA.AperFunction,SMDPad,CuDef*%
%ADD34RoundRect,0.225000X0.225000X0.375000X-0.225000X0.375000X-0.225000X-0.375000X0.225000X-0.375000X0*%
%TD*%
%TA.AperFunction,SMDPad,CuDef*%
%ADD35RoundRect,0.225000X-0.250000X0.225000X-0.250000X-0.225000X0.250000X-0.225000X0.250000X0.225000X0*%
%TD*%
%TA.AperFunction,SMDPad,CuDef*%
%ADD36RoundRect,0.140000X0.170000X-0.140000X0.170000X0.140000X-0.170000X0.140000X-0.170000X-0.140000X0*%
%TD*%
%TA.AperFunction,SMDPad,CuDef*%
%ADD37RoundRect,0.135000X0.185000X-0.135000X0.185000X0.135000X-0.185000X0.135000X-0.185000X-0.135000X0*%
%TD*%
%TA.AperFunction,SMDPad,CuDef*%
%ADD38RoundRect,0.225000X0.225000X0.250000X-0.225000X0.250000X-0.225000X-0.250000X0.225000X-0.250000X0*%
%TD*%
%TA.AperFunction,SMDPad,CuDef*%
%ADD39RoundRect,0.062500X-0.375000X-0.062500X0.375000X-0.062500X0.375000X0.062500X-0.375000X0.062500X0*%
%TD*%
%TA.AperFunction,SMDPad,CuDef*%
%ADD40RoundRect,0.062500X-0.062500X-0.375000X0.062500X-0.375000X0.062500X0.375000X-0.062500X0.375000X0*%
%TD*%
%TA.AperFunction,HeatsinkPad*%
%ADD41R,1.600000X1.600000*%
%TD*%
%TA.AperFunction,SMDPad,CuDef*%
%ADD42RoundRect,0.135000X0.135000X0.185000X-0.135000X0.185000X-0.135000X-0.185000X0.135000X-0.185000X0*%
%TD*%
%TA.AperFunction,SMDPad,CuDef*%
%ADD43RoundRect,0.150000X0.150000X-0.587500X0.150000X0.587500X-0.150000X0.587500X-0.150000X-0.587500X0*%
%TD*%
%TA.AperFunction,SMDPad,CuDef*%
%ADD44RoundRect,0.250000X-1.500000X0.250000X-1.500000X-0.250000X1.500000X-0.250000X1.500000X0.250000X0*%
%TD*%
%TA.AperFunction,SMDPad,CuDef*%
%ADD45RoundRect,0.250001X-1.449999X0.499999X-1.449999X-0.499999X1.449999X-0.499999X1.449999X0.499999X0*%
%TD*%
%TA.AperFunction,ViaPad*%
%ADD46C,0.600000*%
%TD*%
%TA.AperFunction,Conductor*%
%ADD47C,0.300000*%
%TD*%
%TA.AperFunction,Conductor*%
%ADD48C,0.200000*%
%TD*%
%TA.AperFunction,Conductor*%
%ADD49C,0.600000*%
%TD*%
%TA.AperFunction,Conductor*%
%ADD50C,1.000000*%
%TD*%
%TA.AperFunction,Conductor*%
%ADD51C,0.150000*%
%TD*%
G04 APERTURE END LIST*
D10*
%TO.P,REF\u002A\u002A,1*%
%TO.N,+3.3V*%
X206500000Y-162000000D03*
D11*
%TO.P,REF\u002A\u002A,2*%
%TO.N,SWDIO*%
X206500000Y-164540000D03*
%TO.P,REF\u002A\u002A,3*%
%TO.N,SWDCLK*%
X206500000Y-167080000D03*
%TO.P,REF\u002A\u002A,4*%
%TO.N,GND*%
X206500000Y-169620000D03*
%TO.P,REF\u002A\u002A,5*%
%TO.N,RST*%
X206500000Y-172160000D03*
%TD*%
D12*
%TO.P,D49,1,K*%
%TO.N,ROW3*%
X162718750Y-175481250D03*
%TO.P,D49,2,A*%
%TO.N,Net-(D49-A)*%
X162718750Y-172181250D03*
%TD*%
D13*
%TO.P,R7,1*%
%TO.N,Net-(U5-TS)*%
X75000000Y-136490000D03*
%TO.P,R7,2*%
%TO.N,GND*%
X75000000Y-137510000D03*
%TD*%
D12*
%TO.P,D60,1,K*%
%TO.N,ROW4*%
X117475000Y-194531250D03*
%TO.P,D60,2,A*%
%TO.N,Net-(D60-A)*%
X117475000Y-191231250D03*
%TD*%
D14*
%TO.P,MX21,1,1*%
%TO.N,COL6*%
X179546250Y-128428750D03*
D15*
X177721250Y-128428750D03*
D16*
X175996250Y-128428750D03*
%TO.P,MX21,2,2*%
%TO.N,Net-(D23-A)*%
X189446250Y-125888750D03*
D15*
X187696250Y-125888750D03*
D14*
X185896250Y-125888750D03*
%TD*%
D12*
%TO.P,D45,1,K*%
%TO.N,ROW3*%
X84137500Y-175481250D03*
%TO.P,D45,2,A*%
%TO.N,Net-(D45-A)*%
X84137500Y-172181250D03*
%TD*%
%TO.P,D42,1,K*%
%TO.N,ROW2*%
X286543750Y-156431250D03*
%TO.P,D42,2,A*%
%TO.N,Net-(D42-A)*%
X286543750Y-153131250D03*
%TD*%
D14*
%TO.P,MX61,1,1*%
%TO.N,COL8*%
X231933750Y-185578750D03*
D15*
X230108750Y-185578750D03*
D16*
X228383750Y-185578750D03*
%TO.P,MX61,2,2*%
%TO.N,Net-(D63-A)*%
X241833750Y-183038750D03*
D15*
X240083750Y-183038750D03*
D14*
X238283750Y-183038750D03*
%TD*%
%TO.P,MX9,1,1*%
%TO.N,COL8*%
X227171250Y-109378750D03*
D15*
X225346250Y-109378750D03*
D16*
X223621250Y-109378750D03*
%TO.P,MX9,2,2*%
%TO.N,Net-(D11-A)*%
X237071250Y-106838750D03*
D15*
X235321250Y-106838750D03*
D14*
X233521250Y-106838750D03*
%TD*%
D12*
%TO.P,D6,1,K*%
%TO.N,ROW0*%
X138906250Y-118331250D03*
%TO.P,D6,2,A*%
%TO.N,Net-(D6-A)*%
X138906250Y-115031250D03*
%TD*%
D14*
%TO.P,MX5,1,1*%
%TO.N,COL4*%
X150971250Y-109378750D03*
D15*
X149146250Y-109378750D03*
D16*
X147421250Y-109378750D03*
%TO.P,MX5,2,2*%
%TO.N,Net-(D7-A)*%
X160871250Y-106838750D03*
D15*
X159121250Y-106838750D03*
D14*
X157321250Y-106838750D03*
%TD*%
D12*
%TO.P,D5,1,K*%
%TO.N,ROW0*%
X119856250Y-118268750D03*
%TO.P,D5,2,A*%
%TO.N,Net-(D5-A)*%
X119856250Y-114968750D03*
%TD*%
D14*
%TO.P,MX26,1,1*%
%TO.N,COL11*%
X274796250Y-128428750D03*
D15*
X272971250Y-128428750D03*
D16*
X271246250Y-128428750D03*
%TO.P,MX26,2,2*%
%TO.N,Net-(D28-A)*%
X284696250Y-125888750D03*
D15*
X282946250Y-125888750D03*
D14*
X281146250Y-125888750D03*
%TD*%
%TO.P,MX1,1,1*%
%TO.N,COL0*%
X76041250Y-115728750D03*
D17*
X76041250Y-117553750D03*
D18*
X76041250Y-119278750D03*
%TO.P,MX1,2,2*%
%TO.N,Net-(D3-A)*%
X73501250Y-105828750D03*
D17*
X73501250Y-107578750D03*
D14*
X73501250Y-109378750D03*
%TD*%
%TO.P,MX10,1,1*%
%TO.N,COL9*%
X246221250Y-109378750D03*
D15*
X244396250Y-109378750D03*
D16*
X242671250Y-109378750D03*
%TO.P,MX10,2,2*%
%TO.N,Net-(D12-A)*%
X256121250Y-106838750D03*
D15*
X254371250Y-106838750D03*
D14*
X252571250Y-106838750D03*
%TD*%
%TO.P,MX19,1,1*%
%TO.N,COL4*%
X141446250Y-128428750D03*
D15*
X139621250Y-128428750D03*
D16*
X137896250Y-128428750D03*
%TO.P,MX19,2,2*%
%TO.N,Net-(D21-A)*%
X151346250Y-125888750D03*
D15*
X149596250Y-125888750D03*
D14*
X147796250Y-125888750D03*
%TD*%
D12*
%TO.P,D47,1,K*%
%TO.N,ROW3*%
X124618750Y-175481250D03*
%TO.P,D47,2,A*%
%TO.N,Net-(D47-A)*%
X124618750Y-172181250D03*
%TD*%
%TO.P,D19,1,K*%
%TO.N,ROW1*%
X110331250Y-137318750D03*
%TO.P,D19,2,A*%
%TO.N,Net-(D19-A)*%
X110331250Y-134018750D03*
%TD*%
%TO.P,D55,1,K*%
%TO.N,ROW3*%
X277018750Y-175481250D03*
%TO.P,D55,2,A*%
%TO.N,Net-(D55-A)*%
X277018750Y-172181250D03*
%TD*%
D19*
%TO.P,U3,1,GND*%
%TO.N,GND*%
X219981000Y-193250000D03*
%TO.P,U3,2,P1.11-LF*%
%TO.N,COL14*%
X218881000Y-193250000D03*
%TO.P,U3,3,P1.10-LF*%
%TO.N,ROW4*%
X217781000Y-193250000D03*
%TO.P,U3,4,P1.13-LF*%
%TO.N,unconnected-(U3-P1.13-LF-Pad4)*%
X216681000Y-193250000D03*
%TO.P,U3,5,P1.15-LF*%
%TO.N,COL1*%
X215581000Y-193250000D03*
%TO.P,U3,6,P0.03-LF-A*%
%TO.N,COL2*%
X214481000Y-193250000D03*
%TO.P,U3,7,P0.02-LF-A*%
%TO.N,COL3*%
X213381000Y-193250000D03*
%TO.P,U3,8,P0.28-LF-A*%
%TO.N,COL4*%
X212281000Y-193250000D03*
%TO.P,U3,9,P0.29-LF-A*%
%TO.N,ROW0*%
X211181000Y-193250000D03*
%TO.P,U3,10,P0.30-LF-A*%
%TO.N,ROW3*%
X210081000Y-193250000D03*
%TO.P,U3,11,P0.31-LF-A*%
%TO.N,ROW2*%
X208981000Y-193250000D03*
%TO.P,U3,12,P0.04-A*%
%TO.N,ROW1*%
X207881000Y-193250000D03*
%TO.P,U3,13,P0.05-A*%
%TO.N,COL0*%
X206781000Y-193250000D03*
D20*
%TO.P,U3,14,VDD_nRF*%
%TO.N,+3.3V*%
X205281000Y-192000000D03*
%TO.P,U3,15,P0.07*%
%TO.N,unconnected-(U3-P0.07-Pad15)*%
X205281000Y-190900000D03*
%TO.P,U3,16,P1.09*%
%TO.N,unconnected-(U3-P1.09-Pad16)*%
X205281000Y-189800000D03*
%TO.P,U3,17,P0.12*%
%TO.N,unconnected-(U3-P0.12-Pad17)*%
X205281000Y-188700000D03*
%TO.P,U3,18,P0.23*%
%TO.N,unconnected-(U3-P0.23-Pad18)*%
X205281000Y-187600000D03*
%TO.P,U3,19,P0.21*%
%TO.N,unconnected-(U3-P0.21-Pad19)*%
X205281000Y-186500000D03*
%TO.P,U3,20,P0.19*%
%TO.N,BOOT*%
X205281000Y-185400000D03*
%TO.P,U3,21,P0.18-RESET*%
%TO.N,RST*%
X205281000Y-184300000D03*
%TO.P,U3,22,VBUS*%
%TO.N,+5V*%
X205281000Y-183200000D03*
%TO.P,U3,23,D-*%
%TO.N,D-*%
X205281000Y-182100000D03*
%TO.P,U3,24,D+*%
%TO.N,D+*%
X205281000Y-181000000D03*
D19*
%TO.P,U3,25,GND*%
%TO.N,GND*%
X206781000Y-179750000D03*
%TO.P,U3,26,P0.22*%
%TO.N,COL5*%
X207881000Y-179750000D03*
%TO.P,U3,27,P1.00*%
%TO.N,COL6*%
X208981000Y-179750000D03*
%TO.P,U3,28,P1.03-LF*%
%TO.N,COL7*%
X210081000Y-179750000D03*
%TO.P,U3,29,P1.01-LF*%
%TO.N,COL9*%
X211181000Y-179750000D03*
%TO.P,U3,30,P1.02-LF*%
%TO.N,COL10*%
X212281000Y-179750000D03*
%TO.P,U3,31,SWDCLK*%
%TO.N,SWDCLK*%
X213381000Y-179750000D03*
%TO.P,U3,32,SWDIO*%
%TO.N,SWDIO*%
X214481000Y-179750000D03*
%TO.P,U3,33,P1.04-LF*%
%TO.N,COL11*%
X215581000Y-179750000D03*
%TO.P,U3,34,P1.06-LF*%
%TO.N,COL12*%
X216681000Y-179750000D03*
%TO.P,U3,35,P0.09-LF-NFC*%
%TO.N,COL13*%
X217781000Y-179750000D03*
%TO.P,U3,36,P0.10-LF-NFC*%
%TO.N,COL8*%
X218881000Y-179750000D03*
%TO.P,U3,37,GND*%
%TO.N,GND*%
X219981000Y-179750000D03*
%TO.P,U3,38,P1.14-LF*%
%TO.N,unconnected-(U3-P1.14-LF-Pad38)*%
X217781000Y-190750000D03*
%TO.P,U3,39,P1.12-LF*%
%TO.N,unconnected-(U3-P1.12-LF-Pad39)*%
X216681000Y-190750000D03*
%TO.P,U3,40,P0.25*%
%TO.N,unconnected-(U3-P0.25-Pad40)*%
X215581000Y-190750000D03*
%TO.P,U3,41,P0.11*%
%TO.N,unconnected-(U3-P0.11-Pad41)*%
X214481000Y-190750000D03*
%TO.P,U3,42,P1.08*%
%TO.N,unconnected-(U3-P1.08-Pad42)*%
X213381000Y-190750000D03*
%TO.P,U3,43,P0.27*%
%TO.N,unconnected-(U3-P0.27-Pad43)*%
X212281000Y-190750000D03*
%TO.P,U3,44,P0.08*%
%TO.N,unconnected-(U3-P0.08-Pad44)*%
X211181000Y-190750000D03*
%TO.P,U3,45,P0.06*%
%TO.N,unconnected-(U3-P0.06-Pad45)*%
X210081000Y-190750000D03*
%TO.P,U3,46,P0.26*%
%TO.N,unconnected-(U3-P0.26-Pad46)*%
X208981000Y-190750000D03*
%TO.P,U3,47,P1.07-LF*%
%TO.N,unconnected-(U3-P1.07-LF-Pad47)*%
X217781000Y-182250000D03*
%TO.P,U3,48,P1.05-LF*%
%TO.N,unconnected-(U3-P1.05-LF-Pad48)*%
X216681000Y-182250000D03*
%TO.P,U3,49,P0.24*%
%TO.N,unconnected-(U3-P0.24-Pad49)*%
X215581000Y-182250000D03*
%TO.P,U3,50,P0.20*%
%TO.N,unconnected-(U3-P0.20-Pad50)*%
X214481000Y-182250000D03*
%TO.P,U3,51,P0.17*%
%TO.N,unconnected-(U3-P0.17-Pad51)*%
X213381000Y-182250000D03*
%TO.P,U3,52,P0.15*%
%TO.N,unconnected-(U3-P0.15-Pad52)*%
X212281000Y-182250000D03*
%TO.P,U3,53,P0.14*%
%TO.N,unconnected-(U3-P0.14-Pad53)*%
X211181000Y-182250000D03*
%TO.P,U3,54,P0.13*%
%TO.N,unconnected-(U3-P0.13-Pad54)*%
X210081000Y-182250000D03*
%TO.P,U3,55,P0.16*%
%TO.N,unconnected-(U3-P0.16-Pad55)*%
X208981000Y-182250000D03*
%TD*%
D14*
%TO.P,MX45,1,1*%
%TO.N,COL2*%
X117633750Y-166528750D03*
D15*
X115808750Y-166528750D03*
D16*
X114083750Y-166528750D03*
%TO.P,MX45,2,2*%
%TO.N,Net-(D47-A)*%
X127533750Y-163988750D03*
D15*
X125783750Y-163988750D03*
D14*
X123983750Y-163988750D03*
%TD*%
D21*
%TO.P,U1,1,IO1*%
%TO.N,D-*%
X87042500Y-111950000D03*
%TO.P,U1,2,VN*%
%TO.N,GND*%
X87042500Y-111000000D03*
%TO.P,U1,3,IO2*%
%TO.N,unconnected-(U1-IO2-Pad3)*%
X87042500Y-110050000D03*
%TO.P,U1,4,IO3*%
%TO.N,unconnected-(U1-IO3-Pad4)*%
X89317500Y-110050000D03*
%TO.P,U1,5,VP*%
%TO.N,+5V*%
X89317500Y-111000000D03*
%TO.P,U1,6,IO4*%
%TO.N,D+*%
X89317500Y-111950000D03*
%TD*%
D14*
%TO.P,MX63,1,1*%
%TO.N,COL11*%
X289083750Y-185578750D03*
D15*
X287258750Y-185578750D03*
D16*
X285533750Y-185578750D03*
%TO.P,MX63,2,2*%
%TO.N,Net-(D65-A)*%
X298983750Y-183038750D03*
D15*
X297233750Y-183038750D03*
D14*
X295433750Y-183038750D03*
%TD*%
D12*
%TO.P,D14,1,K*%
%TO.N,ROW0*%
X291306250Y-118331250D03*
%TO.P,D14,2,A*%
%TO.N,Net-(D14-A)*%
X291306250Y-115031250D03*
%TD*%
%TO.P,D24,1,K*%
%TO.N,ROW1*%
X205581250Y-137381250D03*
%TO.P,D24,2,A*%
%TO.N,Net-(D24-A)*%
X205581250Y-134081250D03*
%TD*%
D14*
%TO.P,MX35,1,1*%
%TO.N,COL6*%
X184308750Y-147478750D03*
D15*
X182483750Y-147478750D03*
D16*
X180758750Y-147478750D03*
%TO.P,MX35,2,2*%
%TO.N,Net-(D37-A)*%
X194208750Y-144938750D03*
D15*
X192458750Y-144938750D03*
D14*
X190658750Y-144938750D03*
%TD*%
%TO.P,MX16,1,1*%
%TO.N,COL0*%
X79533750Y-128428750D03*
D15*
X77708750Y-128428750D03*
D16*
X75983750Y-128428750D03*
%TO.P,MX16,2,2*%
%TO.N,Net-(D18-A)*%
X89433750Y-125888750D03*
D15*
X87683750Y-125888750D03*
D14*
X85883750Y-125888750D03*
%TD*%
%TO.P,MX53,1,1*%
%TO.N,COL10*%
X270033750Y-166528750D03*
D15*
X268208750Y-166528750D03*
D16*
X266483750Y-166528750D03*
%TO.P,MX53,2,2*%
%TO.N,Net-(D55-A)*%
X279933750Y-163988750D03*
D15*
X278183750Y-163988750D03*
D14*
X276383750Y-163988750D03*
%TD*%
D22*
%TO.P,SW3,1,1*%
%TO.N,BOOT*%
X194000000Y-187537500D03*
X188000000Y-187537500D03*
%TO.P,SW3,2,2*%
%TO.N,GND*%
X194000000Y-191287500D03*
X188000000Y-191287500D03*
%TD*%
D14*
%TO.P,MX30,1,1*%
%TO.N,COL0*%
X81915000Y-147478750D03*
D15*
X80090000Y-147478750D03*
D16*
X78365000Y-147478750D03*
%TO.P,MX30,2,2*%
%TO.N,Net-(D32-A)*%
X91815000Y-144938750D03*
D15*
X90065000Y-144938750D03*
D14*
X88265000Y-144938750D03*
%TD*%
D12*
%TO.P,D38,1,K*%
%TO.N,ROW2*%
X210343750Y-156431250D03*
%TO.P,D38,2,A*%
%TO.N,Net-(D38-A)*%
X210343750Y-153131250D03*
%TD*%
D23*
%TO.P,F1,1*%
%TO.N,Net-(F1-Pad1)*%
X86042500Y-115093750D03*
%TO.P,F1,2*%
%TO.N,+5V*%
X90317500Y-115093750D03*
%TD*%
D12*
%TO.P,D36,1,K*%
%TO.N,ROW2*%
X172243750Y-156431250D03*
%TO.P,D36,2,A*%
%TO.N,Net-(D36-A)*%
X172243750Y-153131250D03*
%TD*%
D14*
%TO.P,MX23,1,1*%
%TO.N,COL8*%
X217646250Y-128428750D03*
D15*
X215821250Y-128428750D03*
D16*
X214096250Y-128428750D03*
%TO.P,MX23,2,2*%
%TO.N,Net-(D25-A)*%
X227546250Y-125888750D03*
D15*
X225796250Y-125888750D03*
D14*
X223996250Y-125888750D03*
%TD*%
%TO.P,MX11,1,1*%
%TO.N,COL10*%
X265271250Y-109378750D03*
D15*
X263446250Y-109378750D03*
D16*
X261721250Y-109378750D03*
%TO.P,MX11,2,2*%
%TO.N,Net-(D13-A)*%
X275171250Y-106838750D03*
D15*
X273421250Y-106838750D03*
D14*
X271621250Y-106838750D03*
%TD*%
D12*
%TO.P,D3,1,K*%
%TO.N,ROW0*%
X81756250Y-108806250D03*
%TO.P,D3,2,A*%
%TO.N,Net-(D3-A)*%
X81756250Y-105506250D03*
%TD*%
D24*
%TO.P,C7,1*%
%TO.N,+3.3V*%
X201000000Y-189200000D03*
%TO.P,C7,2*%
%TO.N,GND*%
X201000000Y-186250000D03*
%TD*%
D14*
%TO.P,MX46,1,1*%
%TO.N,COL3*%
X136683750Y-166528750D03*
D15*
X134858750Y-166528750D03*
D16*
X133133750Y-166528750D03*
%TO.P,MX46,2,2*%
%TO.N,Net-(D48-A)*%
X146583750Y-163988750D03*
D15*
X144833750Y-163988750D03*
D14*
X143033750Y-163988750D03*
%TD*%
D12*
%TO.P,D11,1,K*%
%TO.N,ROW0*%
X234156250Y-118331250D03*
%TO.P,D11,2,A*%
%TO.N,Net-(D11-A)*%
X234156250Y-115031250D03*
%TD*%
%TO.P,D23,1,K*%
%TO.N,ROW1*%
X186531250Y-137381250D03*
%TO.P,D23,2,A*%
%TO.N,Net-(D23-A)*%
X186531250Y-134081250D03*
%TD*%
%TO.P,D12,1,K*%
%TO.N,ROW0*%
X253206250Y-118331250D03*
%TO.P,D12,2,A*%
%TO.N,Net-(D12-A)*%
X253206250Y-115031250D03*
%TD*%
D14*
%TO.P,MX18,1,1*%
%TO.N,COL3*%
X122396250Y-128428750D03*
D15*
X120571250Y-128428750D03*
D16*
X118846250Y-128428750D03*
%TO.P,MX18,2,2*%
%TO.N,Net-(D20-A)*%
X132296250Y-125888750D03*
D15*
X130546250Y-125888750D03*
D14*
X128746250Y-125888750D03*
%TD*%
%TO.P,MX49,1,1*%
%TO.N,COL6*%
X193833750Y-166528750D03*
D15*
X192008750Y-166528750D03*
D16*
X190283750Y-166528750D03*
%TO.P,MX49,2,2*%
%TO.N,Net-(D51-A)*%
X203733750Y-163988750D03*
D15*
X201983750Y-163988750D03*
D14*
X200183750Y-163988750D03*
%TD*%
D25*
%TO.P,J1,A1_B12,GND*%
%TO.N,GND*%
X84906250Y-107937500D03*
%TO.P,J1,A4_B9,VBUS*%
%TO.N,Net-(J1-VBUS-PadA4_B9)*%
X85706250Y-107937500D03*
D26*
%TO.P,J1,A5,CC1*%
%TO.N,Net-(J1-CC1)*%
X86856250Y-107937500D03*
%TO.P,J1,A6,DP1*%
%TO.N,D+*%
X87856250Y-107937500D03*
%TO.P,J1,A7,DN1*%
%TO.N,D-*%
X88356250Y-107937500D03*
%TO.P,J1,A8,SBU1*%
%TO.N,unconnected-(J1-SBU1-PadA8)*%
X89356250Y-107937500D03*
D25*
%TO.P,J1,B1_A12,GND*%
%TO.N,GND*%
X91306250Y-107937500D03*
%TO.P,J1,B4_A9,VBUS*%
%TO.N,Net-(J1-VBUS-PadA4_B9)*%
X90506250Y-107937500D03*
D26*
%TO.P,J1,B5,CC2*%
%TO.N,Net-(J1-CC2)*%
X89856250Y-107937500D03*
%TO.P,J1,B6,DP2*%
%TO.N,D+*%
X88856250Y-107937500D03*
%TO.P,J1,B7,DN2*%
%TO.N,D-*%
X87356250Y-107937500D03*
%TO.P,J1,B8,SBU2*%
%TO.N,unconnected-(J1-SBU2-PadB8)*%
X86356250Y-107937500D03*
D27*
%TO.P,J1,S1,SHIELD*%
%TO.N,GND*%
X83781250Y-107357500D03*
%TO.P,J1,S2,SHIELD*%
X92431250Y-107357500D03*
D28*
%TO.P,J1,S3,SHIELD*%
X83781250Y-103187500D03*
%TO.P,J1,S4,SHIELD*%
X92431250Y-103187500D03*
%TD*%
D12*
%TO.P,D27,1,K*%
%TO.N,ROW1*%
X262731250Y-137381250D03*
%TO.P,D27,2,A*%
%TO.N,Net-(D27-A)*%
X262731250Y-134081250D03*
%TD*%
D22*
%TO.P,SW2,1,1*%
%TO.N,RST*%
X194000000Y-181625000D03*
X188000000Y-181625000D03*
%TO.P,SW2,2,2*%
%TO.N,GND*%
X194000000Y-185375000D03*
X188000000Y-185375000D03*
%TD*%
D12*
%TO.P,D17,1,K*%
%TO.N,ROW0*%
X348456250Y-118393750D03*
%TO.P,D17,2,A*%
%TO.N,Net-(D17-A)*%
X348456250Y-115093750D03*
%TD*%
D14*
%TO.P,MX22,1,1*%
%TO.N,COL7*%
X198596250Y-128428750D03*
D15*
X196771250Y-128428750D03*
D16*
X195046250Y-128428750D03*
%TO.P,MX22,2,2*%
%TO.N,Net-(D24-A)*%
X208496250Y-125888750D03*
D15*
X206746250Y-125888750D03*
D14*
X204946250Y-125888750D03*
%TD*%
D12*
%TO.P,D29,1,K*%
%TO.N,ROW1*%
X300831250Y-137381250D03*
%TO.P,D29,2,A*%
%TO.N,Net-(D29-A)*%
X300831250Y-134081250D03*
%TD*%
%TO.P,D18,1,K*%
%TO.N,ROW1*%
X86518750Y-137318750D03*
%TO.P,D18,2,A*%
%TO.N,Net-(D18-A)*%
X86518750Y-134018750D03*
%TD*%
%TO.P,D62,1,K*%
%TO.N,ROW4*%
X181768750Y-194531250D03*
%TO.P,D62,2,A*%
%TO.N,Net-(D62-A)*%
X181768750Y-191231250D03*
%TD*%
D29*
%TO.P,SW1,1,A*%
%TO.N,Net-(SW1-A)*%
X73250000Y-145000000D03*
%TO.P,SW1,2,B*%
%TO.N,SYSOFF*%
X73250000Y-142500000D03*
%TO.P,SW1,3,C*%
%TO.N,GND*%
X73250000Y-140000000D03*
%TD*%
D12*
%TO.P,D48,1,K*%
%TO.N,ROW3*%
X143668750Y-175481250D03*
%TO.P,D48,2,A*%
%TO.N,Net-(D48-A)*%
X143668750Y-172181250D03*
%TD*%
D14*
%TO.P,MX29,1,1*%
%TO.N,COL14*%
X336708750Y-128428750D03*
D15*
X334883750Y-128428750D03*
D16*
X333158750Y-128428750D03*
%TO.P,MX29,2,2*%
%TO.N,Net-(D31-A)*%
X346608750Y-125888750D03*
D15*
X344858750Y-125888750D03*
D14*
X343058750Y-125888750D03*
%TD*%
D12*
%TO.P,D39,1,K*%
%TO.N,ROW2*%
X229393750Y-156431250D03*
%TO.P,D39,2,A*%
%TO.N,Net-(D39-A)*%
X229393750Y-153131250D03*
%TD*%
D14*
%TO.P,MX39,1,1*%
%TO.N,COL10*%
X260508750Y-147478750D03*
D15*
X258683750Y-147478750D03*
D16*
X256958750Y-147478750D03*
%TO.P,MX39,2,2*%
%TO.N,Net-(D41-A)*%
X270408750Y-144938750D03*
D15*
X268658750Y-144938750D03*
D14*
X266858750Y-144938750D03*
%TD*%
%TO.P,MX4,1,1*%
%TO.N,COL3*%
X131921250Y-109378750D03*
D15*
X130096250Y-109378750D03*
D16*
X128371250Y-109378750D03*
%TO.P,MX4,2,2*%
%TO.N,Net-(D6-A)*%
X141821250Y-106838750D03*
D15*
X140071250Y-106838750D03*
D14*
X138271250Y-106838750D03*
%TD*%
%TO.P,MX55,1,1*%
%TO.N,COL13*%
X315277500Y-166528750D03*
D15*
X313452500Y-166528750D03*
D16*
X311727500Y-166528750D03*
%TO.P,MX55,2,2*%
%TO.N,Net-(D58-A)*%
X325177500Y-163988750D03*
D15*
X323427500Y-163988750D03*
D14*
X321627500Y-163988750D03*
%TD*%
%TO.P,MX56,1,1*%
%TO.N,COL14*%
X341471250Y-166528750D03*
D15*
X339646250Y-166528750D03*
D16*
X337921250Y-166528750D03*
%TO.P,MX56,2,2*%
%TO.N,Net-(D57-A)*%
X351371250Y-163988750D03*
D15*
X349621250Y-163988750D03*
D14*
X347821250Y-163988750D03*
%TD*%
D12*
%TO.P,D53,1,K*%
%TO.N,ROW3*%
X238918750Y-175543750D03*
%TO.P,D53,2,A*%
%TO.N,Net-(D53-A)*%
X238918750Y-172243750D03*
%TD*%
D30*
%TO.P,U4,1,GND*%
%TO.N,GND*%
X200500000Y-190981250D03*
%TO.P,U4,2,VO*%
%TO.N,+3.3V*%
X200500000Y-192881250D03*
%TO.P,U4,3,VI*%
%TO.N,+VSW*%
X198225000Y-191931250D03*
%TD*%
D12*
%TO.P,D37,1,K*%
%TO.N,ROW2*%
X191293750Y-156431250D03*
%TO.P,D37,2,A*%
%TO.N,Net-(D37-A)*%
X191293750Y-153131250D03*
%TD*%
D14*
%TO.P,MX33,1,1*%
%TO.N,COL4*%
X146208750Y-147478750D03*
D15*
X144383750Y-147478750D03*
D16*
X142658750Y-147478750D03*
%TO.P,MX33,2,2*%
%TO.N,Net-(D35-A)*%
X156108750Y-144938750D03*
D15*
X154358750Y-144938750D03*
D14*
X152558750Y-144938750D03*
%TD*%
D31*
%TO.P,R3,1*%
%TO.N,Net-(U5-ISET)*%
X76750000Y-138675000D03*
%TO.P,R3,2*%
%TO.N,GND*%
X76750000Y-140325000D03*
%TD*%
D32*
%TO.P,L1,1*%
%TO.N,Net-(J1-VBUS-PadA4_B9)*%
X84162500Y-112500000D03*
%TO.P,L1,2*%
%TO.N,Net-(F1-Pad1)*%
X85132500Y-112500000D03*
%TD*%
D14*
%TO.P,MX43,1,1*%
%TO.N,COL0*%
X77152500Y-166528750D03*
D15*
X75327500Y-166528750D03*
D16*
X73602500Y-166528750D03*
%TO.P,MX43,2,2*%
%TO.N,Net-(D45-A)*%
X87052500Y-163988750D03*
D15*
X85302500Y-163988750D03*
D14*
X83502500Y-163988750D03*
%TD*%
%TO.P,MX41,1,1*%
%TO.N,COL12*%
X298608750Y-147478750D03*
D15*
X296783750Y-147478750D03*
D16*
X295058750Y-147478750D03*
%TO.P,MX41,2,2*%
%TO.N,Net-(D43-A)*%
X308508750Y-144938750D03*
D15*
X306758750Y-144938750D03*
D14*
X304958750Y-144938750D03*
%TD*%
D12*
%TO.P,D35,1,K*%
%TO.N,ROW2*%
X153193750Y-156431250D03*
%TO.P,D35,2,A*%
%TO.N,Net-(D35-A)*%
X153193750Y-153131250D03*
%TD*%
D13*
%TO.P,R6,1*%
%TO.N,Net-(U5-TMR)*%
X78500000Y-138990000D03*
%TO.P,R6,2*%
%TO.N,GND*%
X78500000Y-140010000D03*
%TD*%
D12*
%TO.P,D28,1,K*%
%TO.N,ROW1*%
X281781250Y-137381250D03*
%TO.P,D28,2,A*%
%TO.N,Net-(D28-A)*%
X281781250Y-134081250D03*
%TD*%
%TO.P,D57,1,K*%
%TO.N,ROW3*%
X348456250Y-175481250D03*
%TO.P,D57,2,A*%
%TO.N,Net-(D57-A)*%
X348456250Y-172181250D03*
%TD*%
D14*
%TO.P,MX27,1,1*%
%TO.N,COL12*%
X293846250Y-128428750D03*
D15*
X292021250Y-128428750D03*
D16*
X290296250Y-128428750D03*
%TO.P,MX27,2,2*%
%TO.N,Net-(D29-A)*%
X303746250Y-125888750D03*
D15*
X301996250Y-125888750D03*
D14*
X300196250Y-125888750D03*
%TD*%
%TO.P,MX64,1,1*%
%TO.N,COL12*%
X308133750Y-185578750D03*
D15*
X306308750Y-185578750D03*
D16*
X304583750Y-185578750D03*
%TO.P,MX64,2,2*%
%TO.N,Net-(D66-A)*%
X318033750Y-183038750D03*
D15*
X316283750Y-183038750D03*
D14*
X314483750Y-183038750D03*
%TD*%
%TO.P,MX28,1,1*%
%TO.N,COL13*%
X312896250Y-128428750D03*
D15*
X311071250Y-128428750D03*
D16*
X309346250Y-128428750D03*
%TO.P,MX28,2,2*%
%TO.N,Net-(D30-A)*%
X322796250Y-125888750D03*
D15*
X321046250Y-125888750D03*
D14*
X319246250Y-125888750D03*
%TD*%
%TO.P,MX50,1,1*%
%TO.N,COL7*%
X212883750Y-166528750D03*
D15*
X211058750Y-166528750D03*
D16*
X209333750Y-166528750D03*
%TO.P,MX50,2,2*%
%TO.N,Net-(D52-A)*%
X222783750Y-163988750D03*
D15*
X221033750Y-163988750D03*
D14*
X219233750Y-163988750D03*
%TD*%
D12*
%TO.P,D46,1,K*%
%TO.N,ROW3*%
X105568750Y-175481250D03*
%TO.P,D46,2,A*%
%TO.N,Net-(D46-A)*%
X105568750Y-172181250D03*
%TD*%
%TO.P,D31,1,K*%
%TO.N,ROW1*%
X343693750Y-137381250D03*
%TO.P,D31,2,A*%
%TO.N,Net-(D31-A)*%
X343693750Y-134081250D03*
%TD*%
D14*
%TO.P,MX48,1,1*%
%TO.N,COL5*%
X174783750Y-166528750D03*
D15*
X172958750Y-166528750D03*
D16*
X171233750Y-166528750D03*
%TO.P,MX48,2,2*%
%TO.N,Net-(D50-A)*%
X184683750Y-163988750D03*
D15*
X182933750Y-163988750D03*
D14*
X181133750Y-163988750D03*
%TD*%
%TO.P,MX44,1,1*%
%TO.N,COL1*%
X98583750Y-166528750D03*
D15*
X96758750Y-166528750D03*
D16*
X95033750Y-166528750D03*
%TO.P,MX44,2,2*%
%TO.N,Net-(D46-A)*%
X108483750Y-163988750D03*
D15*
X106733750Y-163988750D03*
D14*
X104933750Y-163988750D03*
%TD*%
%TO.P,MX34,1,1*%
%TO.N,COL5*%
X165258750Y-147478750D03*
D15*
X163433750Y-147478750D03*
D16*
X161708750Y-147478750D03*
%TO.P,MX34,2,2*%
%TO.N,Net-(D36-A)*%
X175158750Y-144938750D03*
D15*
X173408750Y-144938750D03*
D14*
X171608750Y-144938750D03*
%TD*%
%TO.P,MX2,1,1*%
%TO.N,COL1*%
X100171250Y-108108750D03*
D17*
X100171250Y-106283750D03*
D33*
X100171250Y-104558750D03*
%TO.P,MX2,2,2*%
%TO.N,Net-(D4-A)*%
X102711250Y-118008750D03*
D17*
X102711250Y-116258750D03*
D14*
X102711250Y-114458750D03*
%TD*%
D12*
%TO.P,D7,1,K*%
%TO.N,ROW0*%
X157956250Y-118268750D03*
%TO.P,D7,2,A*%
%TO.N,Net-(D7-A)*%
X157956250Y-114968750D03*
%TD*%
%TO.P,D9,1,K*%
%TO.N,ROW0*%
X196056250Y-118331250D03*
%TO.P,D9,2,A*%
%TO.N,Net-(D9-A)*%
X196056250Y-115031250D03*
%TD*%
D14*
%TO.P,MX38,1,1*%
%TO.N,COL9*%
X241458750Y-147478750D03*
D15*
X239633750Y-147478750D03*
D16*
X237908750Y-147478750D03*
%TO.P,MX38,2,2*%
%TO.N,Net-(D40-A)*%
X251358750Y-144938750D03*
D15*
X249608750Y-144938750D03*
D14*
X247808750Y-144938750D03*
%TD*%
%TO.P,MX24,1,1*%
%TO.N,COL9*%
X236696250Y-128428750D03*
D15*
X234871250Y-128428750D03*
D16*
X233146250Y-128428750D03*
%TO.P,MX24,2,2*%
%TO.N,Net-(D26-A)*%
X246596250Y-125888750D03*
D15*
X244846250Y-125888750D03*
D14*
X243046250Y-125888750D03*
%TD*%
%TO.P,MX13,1,1*%
%TO.N,COL12*%
X303371250Y-109378750D03*
D15*
X301546250Y-109378750D03*
D16*
X299821250Y-109378750D03*
%TO.P,MX13,2,2*%
%TO.N,Net-(D15-A)*%
X313271250Y-106838750D03*
D15*
X311521250Y-106838750D03*
D14*
X309721250Y-106838750D03*
%TD*%
%TO.P,MX3,1,1*%
%TO.N,COL2*%
X112871250Y-109378750D03*
D15*
X111046250Y-109378750D03*
D16*
X109321250Y-109378750D03*
%TO.P,MX3,2,2*%
%TO.N,Net-(D5-A)*%
X122771250Y-106838750D03*
D15*
X121021250Y-106838750D03*
D14*
X119221250Y-106838750D03*
%TD*%
%TO.P,MX36,1,1*%
%TO.N,COL7*%
X203358750Y-147478750D03*
D15*
X201533750Y-147478750D03*
D16*
X199808750Y-147478750D03*
%TO.P,MX36,2,2*%
%TO.N,Net-(D38-A)*%
X213258750Y-144938750D03*
D15*
X211508750Y-144938750D03*
D14*
X209708750Y-144938750D03*
%TD*%
%TO.P,MX31,1,1*%
%TO.N,COL2*%
X108108750Y-147478750D03*
D15*
X106283750Y-147478750D03*
D16*
X104558750Y-147478750D03*
%TO.P,MX31,2,2*%
%TO.N,Net-(D33-A)*%
X118008750Y-144938750D03*
D15*
X116258750Y-144938750D03*
D14*
X114458750Y-144938750D03*
%TD*%
D12*
%TO.P,D54,1,K*%
%TO.N,ROW3*%
X257968750Y-175481250D03*
%TO.P,D54,2,A*%
%TO.N,Net-(D54-A)*%
X257968750Y-172181250D03*
%TD*%
D34*
%TO.P,D32,1,K*%
%TO.N,ROW2*%
X92150000Y-152500000D03*
%TO.P,D32,2,A*%
%TO.N,Net-(D32-A)*%
X88850000Y-152500000D03*
%TD*%
D12*
%TO.P,D40,1,K*%
%TO.N,ROW2*%
X248443750Y-156431250D03*
%TO.P,D40,2,A*%
%TO.N,Net-(D40-A)*%
X248443750Y-153131250D03*
%TD*%
%TO.P,D58,1,K*%
%TO.N,ROW3*%
X322262500Y-175481250D03*
%TO.P,D58,2,A*%
%TO.N,Net-(D58-A)*%
X322262500Y-172181250D03*
%TD*%
D14*
%TO.P,MX58,1,1*%
%TO.N,COL2*%
X110490000Y-185578750D03*
D15*
X108665000Y-185578750D03*
D16*
X106940000Y-185578750D03*
%TO.P,MX58,2,2*%
%TO.N,Net-(D60-A)*%
X120390000Y-183038750D03*
D15*
X118640000Y-183038750D03*
D14*
X116840000Y-183038750D03*
%TD*%
D12*
%TO.P,D56,1,K*%
%TO.N,ROW3*%
X296068750Y-175481250D03*
%TO.P,D56,2,A*%
%TO.N,Net-(D56-A)*%
X296068750Y-172181250D03*
%TD*%
%TO.P,D67,1,K*%
%TO.N,ROW4*%
X336550000Y-194531250D03*
%TO.P,D67,2,A*%
%TO.N,Net-(D67-A)*%
X336550000Y-191231250D03*
%TD*%
D13*
%TO.P,R4,1*%
%TO.N,Net-(U5-ILIM)*%
X81000000Y-136740000D03*
%TO.P,R4,2*%
%TO.N,GND*%
X81000000Y-137760000D03*
%TD*%
D12*
%TO.P,D34,1,K*%
%TO.N,ROW2*%
X134143750Y-156431250D03*
%TO.P,D34,2,A*%
%TO.N,Net-(D34-A)*%
X134143750Y-153131250D03*
%TD*%
%TO.P,D20,1,K*%
%TO.N,ROW1*%
X129381250Y-137381250D03*
%TO.P,D20,2,A*%
%TO.N,Net-(D20-A)*%
X129381250Y-134081250D03*
%TD*%
D35*
%TO.P,C3,1*%
%TO.N,+5V*%
X74500000Y-132725000D03*
%TO.P,C3,2*%
%TO.N,GND*%
X74500000Y-134275000D03*
%TD*%
D12*
%TO.P,D43,1,K*%
%TO.N,ROW2*%
X305593750Y-156431250D03*
%TO.P,D43,2,A*%
%TO.N,Net-(D43-A)*%
X305593750Y-153131250D03*
%TD*%
D14*
%TO.P,MX20,1,1*%
%TO.N,COL5*%
X160496250Y-128428750D03*
D15*
X158671250Y-128428750D03*
D16*
X156946250Y-128428750D03*
%TO.P,MX20,2,2*%
%TO.N,Net-(D22-A)*%
X170396250Y-125888750D03*
D15*
X168646250Y-125888750D03*
D14*
X166846250Y-125888750D03*
%TD*%
D12*
%TO.P,D65,1,K*%
%TO.N,ROW4*%
X296068750Y-194531250D03*
%TO.P,D65,2,A*%
%TO.N,Net-(D65-A)*%
X296068750Y-191231250D03*
%TD*%
D36*
%TO.P,C8,1*%
%TO.N,+3.3V*%
X202000000Y-191980000D03*
%TO.P,C8,2*%
%TO.N,GND*%
X202000000Y-191020000D03*
%TD*%
D14*
%TO.P,MX14,1,1*%
%TO.N,COL13*%
X322421250Y-109378750D03*
D15*
X320596250Y-109378750D03*
D16*
X318871250Y-109378750D03*
%TO.P,MX14,2,2*%
%TO.N,Net-(D16-A)*%
X332321250Y-106838750D03*
D15*
X330571250Y-106838750D03*
D14*
X328771250Y-106838750D03*
%TD*%
D12*
%TO.P,D13,1,K*%
%TO.N,ROW0*%
X272256250Y-118331250D03*
%TO.P,D13,2,A*%
%TO.N,Net-(D13-A)*%
X272256250Y-115031250D03*
%TD*%
D14*
%TO.P,MX62,1,1*%
%TO.N,COL10*%
X270033750Y-185578750D03*
D15*
X268208750Y-185578750D03*
D16*
X266483750Y-185578750D03*
%TO.P,MX62,2,2*%
%TO.N,Net-(D64-A)*%
X279933750Y-183038750D03*
D15*
X278183750Y-183038750D03*
D14*
X276383750Y-183038750D03*
%TD*%
D12*
%TO.P,D8,1,K*%
%TO.N,ROW0*%
X177006250Y-118268750D03*
%TO.P,D8,2,A*%
%TO.N,Net-(D8-A)*%
X177006250Y-114968750D03*
%TD*%
%TO.P,D26,1,K*%
%TO.N,ROW1*%
X243681250Y-137381250D03*
%TO.P,D26,2,A*%
%TO.N,Net-(D26-A)*%
X243681250Y-134081250D03*
%TD*%
%TO.P,D21,1,K*%
%TO.N,ROW1*%
X148431250Y-137381250D03*
%TO.P,D21,2,A*%
%TO.N,Net-(D21-A)*%
X148431250Y-134081250D03*
%TD*%
D14*
%TO.P,MX17,1,1*%
%TO.N,COL2*%
X103346250Y-128428750D03*
D15*
X101521250Y-128428750D03*
D16*
X99796250Y-128428750D03*
%TO.P,MX17,2,2*%
%TO.N,Net-(D19-A)*%
X113246250Y-125888750D03*
D15*
X111496250Y-125888750D03*
D14*
X109696250Y-125888750D03*
%TD*%
D12*
%TO.P,D44,1,K*%
%TO.N,ROW2*%
X336550000Y-156431250D03*
%TO.P,D44,2,A*%
%TO.N,Net-(D44-A)*%
X336550000Y-153131250D03*
%TD*%
%TO.P,D30,1,K*%
%TO.N,ROW1*%
X319881250Y-137381250D03*
%TO.P,D30,2,A*%
%TO.N,Net-(D30-A)*%
X319881250Y-134081250D03*
%TD*%
%TO.P,D16,1,K*%
%TO.N,ROW0*%
X329406250Y-118331250D03*
%TO.P,D16,2,A*%
%TO.N,Net-(D16-A)*%
X329406250Y-115031250D03*
%TD*%
D37*
%TO.P,R5,1*%
%TO.N,+3.3V*%
X203500000Y-189520000D03*
%TO.P,R5,2*%
%TO.N,BOOT*%
X203500000Y-188500000D03*
%TD*%
D14*
%TO.P,MX60,1,1*%
%TO.N,COL5*%
X174783750Y-185578750D03*
D15*
X172958750Y-185578750D03*
D16*
X171233750Y-185578750D03*
%TO.P,MX60,2,2*%
%TO.N,Net-(D62-A)*%
X184683750Y-183038750D03*
D15*
X182933750Y-183038750D03*
D14*
X181133750Y-183038750D03*
%TD*%
D12*
%TO.P,D52,1,K*%
%TO.N,ROW3*%
X219868750Y-175481250D03*
%TO.P,D52,2,A*%
%TO.N,Net-(D52-A)*%
X219868750Y-172181250D03*
%TD*%
D14*
%TO.P,MX51,1,1*%
%TO.N,COL8*%
X231933750Y-166528750D03*
D15*
X230108750Y-166528750D03*
D16*
X228383750Y-166528750D03*
%TO.P,MX51,2,2*%
%TO.N,Net-(D53-A)*%
X241833750Y-163988750D03*
D15*
X240083750Y-163988750D03*
D14*
X238283750Y-163988750D03*
%TD*%
D12*
%TO.P,D50,1,K*%
%TO.N,ROW3*%
X181768750Y-175481250D03*
%TO.P,D50,2,A*%
%TO.N,Net-(D50-A)*%
X181768750Y-172181250D03*
%TD*%
%TO.P,D61,1,K*%
%TO.N,ROW4*%
X141287500Y-194531250D03*
%TO.P,D61,2,A*%
%TO.N,Net-(D61-A)*%
X141287500Y-191231250D03*
%TD*%
D14*
%TO.P,MX8,1,1*%
%TO.N,COL7*%
X208121250Y-109378750D03*
D15*
X206296250Y-109378750D03*
D16*
X204571250Y-109378750D03*
%TO.P,MX8,2,2*%
%TO.N,Net-(D10-A)*%
X218021250Y-106838750D03*
D15*
X216271250Y-106838750D03*
D14*
X214471250Y-106838750D03*
%TD*%
D12*
%TO.P,D33,1,K*%
%TO.N,ROW2*%
X115093750Y-156431250D03*
%TO.P,D33,2,A*%
%TO.N,Net-(D33-A)*%
X115093750Y-153131250D03*
%TD*%
%TO.P,D63,1,K*%
%TO.N,ROW4*%
X238918750Y-194531250D03*
%TO.P,D63,2,A*%
%TO.N,Net-(D63-A)*%
X238918750Y-191231250D03*
%TD*%
D14*
%TO.P,MX42,1,1*%
%TO.N,COL14*%
X329565000Y-147478750D03*
D15*
X327740000Y-147478750D03*
D16*
X326015000Y-147478750D03*
%TO.P,MX42,2,2*%
%TO.N,Net-(D44-A)*%
X339465000Y-144938750D03*
D15*
X337715000Y-144938750D03*
D14*
X335915000Y-144938750D03*
%TD*%
D12*
%TO.P,D10,1,K*%
%TO.N,ROW0*%
X215106250Y-118268750D03*
%TO.P,D10,2,A*%
%TO.N,Net-(D10-A)*%
X215106250Y-114968750D03*
%TD*%
D14*
%TO.P,MX32,1,1*%
%TO.N,COL3*%
X127158750Y-147478750D03*
D15*
X125333750Y-147478750D03*
D16*
X123608750Y-147478750D03*
%TO.P,MX32,2,2*%
%TO.N,Net-(D34-A)*%
X137058750Y-144938750D03*
D15*
X135308750Y-144938750D03*
D14*
X133508750Y-144938750D03*
%TD*%
D12*
%TO.P,D51,1,K*%
%TO.N,ROW3*%
X200818750Y-175481250D03*
%TO.P,D51,2,A*%
%TO.N,Net-(D51-A)*%
X200818750Y-172181250D03*
%TD*%
D14*
%TO.P,MX25,1,1*%
%TO.N,COL10*%
X255746250Y-128428750D03*
D15*
X253921250Y-128428750D03*
D16*
X252196250Y-128428750D03*
%TO.P,MX25,2,2*%
%TO.N,Net-(D27-A)*%
X265646250Y-125888750D03*
D15*
X263896250Y-125888750D03*
D14*
X262096250Y-125888750D03*
%TD*%
%TO.P,MX15,1,1*%
%TO.N,COL14*%
X341471250Y-109378750D03*
D15*
X339646250Y-109378750D03*
D16*
X337921250Y-109378750D03*
%TO.P,MX15,2,2*%
%TO.N,Net-(D17-A)*%
X351371250Y-106838750D03*
D15*
X349621250Y-106838750D03*
D14*
X347821250Y-106838750D03*
%TD*%
%TO.P,MX52,1,1*%
%TO.N,COL9*%
X250983750Y-166528750D03*
D15*
X249158750Y-166528750D03*
D16*
X247433750Y-166528750D03*
%TO.P,MX52,2,2*%
%TO.N,Net-(D54-A)*%
X260883750Y-163988750D03*
D15*
X259133750Y-163988750D03*
D14*
X257333750Y-163988750D03*
%TD*%
%TO.P,MX37,1,1*%
%TO.N,COL8*%
X222408750Y-147478750D03*
D15*
X220583750Y-147478750D03*
D16*
X218858750Y-147478750D03*
%TO.P,MX37,2,2*%
%TO.N,Net-(D39-A)*%
X232308750Y-144938750D03*
D15*
X230558750Y-144938750D03*
D14*
X228758750Y-144938750D03*
%TD*%
%TO.P,MX47,1,1*%
%TO.N,COL4*%
X155733750Y-166528750D03*
D15*
X153908750Y-166528750D03*
D16*
X152183750Y-166528750D03*
%TO.P,MX47,2,2*%
%TO.N,Net-(D49-A)*%
X165633750Y-163988750D03*
D15*
X163883750Y-163988750D03*
D14*
X162083750Y-163988750D03*
%TD*%
%TO.P,MX6,1,1*%
%TO.N,COL5*%
X170021250Y-109378750D03*
D15*
X168196250Y-109378750D03*
D16*
X166471250Y-109378750D03*
%TO.P,MX6,2,2*%
%TO.N,Net-(D8-A)*%
X179921250Y-106838750D03*
D15*
X178171250Y-106838750D03*
D14*
X176371250Y-106838750D03*
%TD*%
D38*
%TO.P,C4,1*%
%TO.N,+BATT*%
X72775000Y-136500000D03*
%TO.P,C4,2*%
%TO.N,GND*%
X71225000Y-136500000D03*
%TD*%
D35*
%TO.P,C5,1*%
%TO.N,+VSW*%
X81000000Y-133950000D03*
%TO.P,C5,2*%
%TO.N,GND*%
X81000000Y-135500000D03*
%TD*%
D39*
%TO.P,U5,1,TS*%
%TO.N,Net-(U5-TS)*%
X76350000Y-136500000D03*
%TO.P,U5,2,BAT*%
%TO.N,+BATT*%
X76350000Y-136000000D03*
%TO.P,U5,3,BAT*%
X76350000Y-135500000D03*
%TO.P,U5,4,~{CE}*%
%TO.N,GND*%
X76350000Y-135000000D03*
D40*
%TO.P,U5,5,EN2*%
X77037500Y-134312500D03*
%TO.P,U5,6,EN1*%
%TO.N,+VSW*%
X77537500Y-134312500D03*
%TO.P,U5,7,~{PGOOD}*%
%TO.N,unconnected-(U5-~{PGOOD}-Pad7)*%
X78037500Y-134312500D03*
%TO.P,U5,8,VSS*%
%TO.N,GND*%
X78537500Y-134312500D03*
D39*
%TO.P,U5,9,~{CHG}*%
%TO.N,unconnected-(U5-~{CHG}-Pad9)*%
X79225000Y-135000000D03*
%TO.P,U5,10,OUT*%
%TO.N,+VSW*%
X79225000Y-135500000D03*
%TO.P,U5,11,OUT*%
X79225000Y-136000000D03*
%TO.P,U5,12,ILIM*%
%TO.N,Net-(U5-ILIM)*%
X79225000Y-136500000D03*
D40*
%TO.P,U5,13,IN*%
%TO.N,+5V*%
X78537500Y-137187500D03*
%TO.P,U5,14,TMR*%
%TO.N,Net-(U5-TMR)*%
X78037500Y-137187500D03*
%TO.P,U5,15,SYSOFF*%
%TO.N,SYSOFF*%
X77537500Y-137187500D03*
%TO.P,U5,16,ISET*%
%TO.N,Net-(U5-ISET)*%
X77037500Y-137187500D03*
D41*
%TO.P,U5,17,VSS*%
%TO.N,GND*%
X77787500Y-135750000D03*
%TD*%
D14*
%TO.P,MX7,1,1*%
%TO.N,COL6*%
X189071250Y-109378750D03*
D15*
X187246250Y-109378750D03*
D16*
X185521250Y-109378750D03*
%TO.P,MX7,2,2*%
%TO.N,Net-(D9-A)*%
X198971250Y-106838750D03*
D15*
X197221250Y-106838750D03*
D14*
X195421250Y-106838750D03*
%TD*%
D12*
%TO.P,D66,1,K*%
%TO.N,ROW4*%
X315118750Y-194593750D03*
%TO.P,D66,2,A*%
%TO.N,Net-(D66-A)*%
X315118750Y-191293750D03*
%TD*%
D37*
%TO.P,R9,1*%
%TO.N,Net-(Q1-G)*%
X80000000Y-142510000D03*
%TO.P,R9,2*%
%TO.N,GND*%
X80000000Y-141490000D03*
%TD*%
D42*
%TO.P,R2,1*%
%TO.N,Net-(J1-CC1)*%
X85157500Y-110331250D03*
%TO.P,R2,2*%
%TO.N,GND*%
X84137500Y-110331250D03*
%TD*%
D43*
%TO.P,Q1,1,G*%
%TO.N,Net-(Q1-G)*%
X78500000Y-144000000D03*
%TO.P,Q1,2,S*%
%TO.N,GND*%
X76600000Y-144000000D03*
%TO.P,Q1,3,D*%
%TO.N,SYSOFF*%
X77550000Y-142125000D03*
%TD*%
D13*
%TO.P,R10,1*%
%TO.N,+5V*%
X81000000Y-141500000D03*
%TO.P,R10,2*%
%TO.N,Net-(Q1-G)*%
X81000000Y-142520000D03*
%TD*%
%TO.P,R8,1*%
%TO.N,+BATT*%
X74000000Y-136500000D03*
%TO.P,R8,2*%
%TO.N,Net-(SW1-A)*%
X74000000Y-137520000D03*
%TD*%
D14*
%TO.P,MX54,1,1*%
%TO.N,COL11*%
X289083750Y-166528750D03*
D15*
X287258750Y-166528750D03*
D16*
X285533750Y-166528750D03*
%TO.P,MX54,2,2*%
%TO.N,Net-(D56-A)*%
X298983750Y-163988750D03*
D15*
X297233750Y-163988750D03*
D14*
X295433750Y-163988750D03*
%TD*%
D12*
%TO.P,D64,1,K*%
%TO.N,ROW4*%
X277018750Y-194531250D03*
%TO.P,D64,2,A*%
%TO.N,Net-(D64-A)*%
X277018750Y-191231250D03*
%TD*%
%TO.P,D59,1,K*%
%TO.N,ROW4*%
X93662500Y-194531250D03*
%TO.P,D59,2,A*%
%TO.N,Net-(D59-A)*%
X93662500Y-191231250D03*
%TD*%
D24*
%TO.P,C6,1*%
%TO.N,+VSW*%
X198500000Y-189200000D03*
%TO.P,C6,2*%
%TO.N,GND*%
X198500000Y-186250000D03*
%TD*%
D44*
%TO.P,J2,1,Pin_1*%
%TO.N,+BATT*%
X75150000Y-156000000D03*
%TO.P,J2,2,Pin_2*%
%TO.N,GND*%
X75150000Y-158000000D03*
D45*
%TO.P,J2,MP*%
%TO.N,N/C*%
X80900000Y-153650000D03*
X80900000Y-160350000D03*
%TD*%
D14*
%TO.P,MX65,1,1*%
%TO.N,COL14*%
X329565000Y-185578750D03*
D15*
X327740000Y-185578750D03*
D16*
X326015000Y-185578750D03*
%TO.P,MX65,2,2*%
%TO.N,Net-(D67-A)*%
X339465000Y-183038750D03*
D15*
X337715000Y-183038750D03*
D14*
X335915000Y-183038750D03*
%TD*%
D12*
%TO.P,D4,1,K*%
%TO.N,ROW0*%
X94456250Y-118331250D03*
%TO.P,D4,2,A*%
%TO.N,Net-(D4-A)*%
X94456250Y-115031250D03*
%TD*%
%TO.P,D41,1,K*%
%TO.N,ROW2*%
X267493750Y-156431250D03*
%TO.P,D41,2,A*%
%TO.N,Net-(D41-A)*%
X267493750Y-153131250D03*
%TD*%
D14*
%TO.P,MX40,1,1*%
%TO.N,COL11*%
X279558750Y-147478750D03*
D15*
X277733750Y-147478750D03*
D16*
X276008750Y-147478750D03*
%TO.P,MX40,2,2*%
%TO.N,Net-(D42-A)*%
X289458750Y-144938750D03*
D15*
X287708750Y-144938750D03*
D14*
X285908750Y-144938750D03*
%TD*%
%TO.P,MX12,1,1*%
%TO.N,COL11*%
X284321250Y-109378750D03*
D15*
X282496250Y-109378750D03*
D16*
X280771250Y-109378750D03*
%TO.P,MX12,2,2*%
%TO.N,Net-(D14-A)*%
X294221250Y-106838750D03*
D15*
X292471250Y-106838750D03*
D14*
X290671250Y-106838750D03*
%TD*%
D42*
%TO.P,R1,1*%
%TO.N,GND*%
X92075000Y-110331250D03*
%TO.P,R1,2*%
%TO.N,Net-(J1-CC2)*%
X91055000Y-110331250D03*
%TD*%
D14*
%TO.P,MX59,1,1*%
%TO.N,COL3*%
X134302500Y-185578750D03*
D15*
X132477500Y-185578750D03*
D16*
X130752500Y-185578750D03*
%TO.P,MX59,2,2*%
%TO.N,Net-(D61-A)*%
X144202500Y-183038750D03*
D15*
X142452500Y-183038750D03*
D14*
X140652500Y-183038750D03*
%TD*%
D12*
%TO.P,D25,1,K*%
%TO.N,ROW1*%
X224631250Y-137381250D03*
%TO.P,D25,2,A*%
%TO.N,Net-(D25-A)*%
X224631250Y-134081250D03*
%TD*%
%TO.P,D15,1,K*%
%TO.N,ROW0*%
X310356250Y-118331250D03*
%TO.P,D15,2,A*%
%TO.N,Net-(D15-A)*%
X310356250Y-115031250D03*
%TD*%
%TO.P,D22,1,K*%
%TO.N,ROW1*%
X167481250Y-137381250D03*
%TO.P,D22,2,A*%
%TO.N,Net-(D22-A)*%
X167481250Y-134081250D03*
%TD*%
D14*
%TO.P,MX57,1,1*%
%TO.N,COL1*%
X86677500Y-185578750D03*
D15*
X84852500Y-185578750D03*
D16*
X83127500Y-185578750D03*
%TO.P,MX57,2,2*%
%TO.N,Net-(D59-A)*%
X96577500Y-183038750D03*
D15*
X94827500Y-183038750D03*
D14*
X93027500Y-183038750D03*
%TD*%
D46*
%TO.N,+5V*%
X198000000Y-174500000D03*
X203527164Y-183178634D03*
X91455625Y-113955625D03*
X101000000Y-138118750D03*
X84000000Y-138119750D03*
X82000000Y-119500000D03*
%TO.N,GND*%
X78500000Y-141000000D03*
X80009620Y-137740380D03*
X77000000Y-133000000D03*
X75625000Y-139375000D03*
X194000000Y-192500000D03*
X75478406Y-134921476D03*
X198500000Y-185000000D03*
X202870472Y-191400000D03*
X91750000Y-109250000D03*
X220000000Y-178500000D03*
X84906250Y-108906250D03*
X84500000Y-111500000D03*
X195125000Y-185375000D03*
X201000000Y-185000000D03*
X220000000Y-194500000D03*
X75500000Y-144000000D03*
X72750000Y-158000000D03*
X206781000Y-178000000D03*
X73000000Y-135000000D03*
X78537500Y-133462500D03*
X91625000Y-111375000D03*
%TO.N,+VSW*%
X80168750Y-133668750D03*
X87500000Y-191900000D03*
%TO.N,+3.3V*%
X204500000Y-174500000D03*
X203909500Y-191590500D03*
%TO.N,ROW0*%
X71500000Y-134000000D03*
X71500000Y-153500000D03*
X92500000Y-118331250D03*
X85000000Y-118331250D03*
%TO.N,ROW1*%
X106500000Y-137318750D03*
X87818750Y-137318750D03*
%TO.N,ROW2*%
X92000000Y-154500000D03*
X114068750Y-156431250D03*
%TO.N,ROW3*%
X85500000Y-175500000D03*
X213646510Y-175481250D03*
X218500000Y-175481250D03*
X104500000Y-175500000D03*
%TO.N,COL0*%
X185737500Y-192881250D03*
X136525000Y-191293750D03*
X100012500Y-191293750D03*
X169862500Y-191293750D03*
X111918750Y-191293750D03*
X138906250Y-191293750D03*
X180181250Y-191293750D03*
%TO.N,COL1*%
X214312500Y-196001000D03*
X100171250Y-136171250D03*
X95000000Y-175500000D03*
%TO.N,COL2*%
X212697610Y-195973610D03*
%TO.N,COL3*%
X211931250Y-195262500D03*
%TO.N,COL4*%
X211137500Y-194654891D03*
%TO.N,COL5*%
X208000000Y-178000000D03*
%TO.N,COL6*%
X209000000Y-177500000D03*
%TO.N,COL7*%
X210000000Y-178000000D03*
%TO.N,COL8*%
X219355000Y-157500000D03*
X218858750Y-155358750D03*
%TO.N,COL9*%
X211181000Y-177500000D03*
%TO.N,COL10*%
X212281000Y-178000000D03*
%TO.N,COL11*%
X244631374Y-173368626D03*
%TO.N,COL12*%
X244065687Y-173934313D03*
%TO.N,COL13*%
X243500000Y-174500000D03*
%TO.N,COL14*%
X220000000Y-196000000D03*
%TO.N,Net-(SW1-A)*%
X74000000Y-138456250D03*
X74000000Y-143750000D03*
%TO.N,RST*%
X203500000Y-174500000D03*
X203255741Y-184300000D03*
X203500000Y-172350000D03*
%TD*%
D47*
%TO.N,+5V*%
X112457750Y-165042250D02*
X112500000Y-165000000D01*
X82000000Y-119500000D02*
X78500000Y-123000000D01*
X74000000Y-123500000D02*
X74000000Y-131000000D01*
X80744750Y-132244750D02*
X82500000Y-134000000D01*
X89979999Y-111000000D02*
X89317500Y-111000000D01*
X112500000Y-165000000D02*
X101000000Y-153500000D01*
X198000000Y-174500000D02*
X119173130Y-174500000D01*
X101000000Y-153500000D02*
X101000000Y-138118750D01*
X82500000Y-137500000D02*
X81000000Y-139000000D01*
X91500000Y-113911250D02*
X91500000Y-112520001D01*
X81000000Y-139000000D02*
X81000000Y-141500000D01*
X74000000Y-131000000D02*
X75244750Y-132244750D01*
X80350000Y-139000000D02*
X78537500Y-137187500D01*
X91500000Y-112520001D02*
X89979999Y-111000000D01*
X74500000Y-123000000D02*
X74000000Y-123500000D01*
X84000000Y-138119750D02*
X83119750Y-138119750D01*
X112457750Y-167784620D02*
X112457750Y-165042250D01*
X75244750Y-132244750D02*
X80744750Y-132244750D01*
X81000000Y-139000000D02*
X80350000Y-139000000D01*
X78500000Y-123000000D02*
X74500000Y-123000000D01*
X74980250Y-132244750D02*
X74500000Y-132725000D01*
X90317500Y-115093750D02*
X91455625Y-113955625D01*
X203548530Y-183200000D02*
X205281000Y-183200000D01*
X91455625Y-113955625D02*
X91500000Y-113911250D01*
X82500000Y-134000000D02*
X82500000Y-137500000D01*
X119173130Y-174500000D02*
X112457750Y-167784620D01*
X203527164Y-183178634D02*
X203548530Y-183200000D01*
X83119750Y-138119750D02*
X82500000Y-137500000D01*
X75244750Y-132244750D02*
X74980250Y-132244750D01*
D48*
%TO.N,GND*%
X202000000Y-191020000D02*
X202490472Y-191020000D01*
X81000000Y-135480000D02*
X81000000Y-135500000D01*
D47*
X84906250Y-108906250D02*
X84906250Y-107937500D01*
D48*
X198500000Y-185800000D02*
X198500000Y-185000000D01*
X194000000Y-191287500D02*
X194000000Y-192500000D01*
X220000000Y-179000000D02*
X219981000Y-179019000D01*
D47*
X91306250Y-107937500D02*
X91851250Y-107937500D01*
D48*
X75150000Y-158000000D02*
X72750000Y-158000000D01*
X80980380Y-137740380D02*
X81000000Y-137760000D01*
X81000000Y-137760000D02*
X81000000Y-137750000D01*
X75478406Y-134921476D02*
X75146476Y-134921476D01*
X76042500Y-140292500D02*
X76717500Y-140292500D01*
D47*
X84500000Y-111310750D02*
X84808500Y-111002250D01*
D48*
X81000000Y-137750000D02*
X81750000Y-137000000D01*
X80000000Y-141490000D02*
X79510000Y-141000000D01*
D47*
X92075000Y-110925000D02*
X92075000Y-110331250D01*
D48*
X77037500Y-135000000D02*
X76350000Y-135000000D01*
X219981000Y-193981000D02*
X219981000Y-193250000D01*
D47*
X84906250Y-107937500D02*
X84361250Y-107937500D01*
D48*
X78500000Y-140010000D02*
X78500000Y-141000000D01*
D47*
X84808500Y-111002250D02*
X84137500Y-110331250D01*
D48*
X75625000Y-138635000D02*
X75000000Y-138010000D01*
X75146476Y-134921476D02*
X74500000Y-134275000D01*
X75625000Y-139375000D02*
X75000000Y-140000000D01*
X78486500Y-134785202D02*
X78537500Y-134734202D01*
X81750000Y-136760000D02*
X81755000Y-136755000D01*
X75625000Y-139375000D02*
X75625000Y-139875000D01*
D47*
X87040250Y-111002250D02*
X84808500Y-111002250D01*
D48*
X75625000Y-139875000D02*
X76042500Y-140292500D01*
X80009620Y-137740380D02*
X80980380Y-137740380D01*
X220000000Y-178500000D02*
X220000000Y-179000000D01*
X77000000Y-133000000D02*
X77037500Y-133037500D01*
X73000000Y-135000000D02*
X71500000Y-135000000D01*
X71500000Y-135000000D02*
X71225000Y-135275000D01*
X75000000Y-140000000D02*
X73250000Y-140000000D01*
X201000000Y-185800000D02*
X201000000Y-185000000D01*
X81750000Y-137000000D02*
X81750000Y-136760000D01*
D47*
X91750000Y-109250000D02*
X91306250Y-108806250D01*
D48*
X201961250Y-190981250D02*
X202000000Y-191020000D01*
X78537500Y-134734202D02*
X78537500Y-134312500D01*
X71225000Y-135275000D02*
X71225000Y-136500000D01*
X77037500Y-133037500D02*
X77037500Y-134312500D01*
D47*
X91851250Y-107937500D02*
X92431250Y-107357500D01*
X91306250Y-108806250D02*
X91306250Y-107937500D01*
D48*
X75625000Y-139375000D02*
X75625000Y-138635000D01*
X75556930Y-135000000D02*
X76350000Y-135000000D01*
X79510000Y-141000000D02*
X78500000Y-141000000D01*
X200500000Y-190981250D02*
X201961250Y-190981250D01*
X81755000Y-136255000D02*
X81000000Y-135500000D01*
X78537500Y-133462500D02*
X78537500Y-134312500D01*
D47*
X84500000Y-111500000D02*
X84500000Y-111310750D01*
X87042500Y-111000000D02*
X87040250Y-111002250D01*
D48*
X81755000Y-136755000D02*
X81755000Y-136255000D01*
X75000000Y-138010000D02*
X75000000Y-137510000D01*
X206781000Y-178000000D02*
X206781000Y-179750000D01*
X77787500Y-135750000D02*
X77037500Y-135000000D01*
X195125000Y-185375000D02*
X194000000Y-185375000D01*
X77787500Y-135750000D02*
X78486500Y-135051000D01*
X220000000Y-194000000D02*
X219981000Y-193981000D01*
X202490472Y-191020000D02*
X202870472Y-191400000D01*
X77037500Y-135000000D02*
X77037500Y-134312500D01*
D47*
X91625000Y-111375000D02*
X92075000Y-110925000D01*
D49*
X92431250Y-103187500D02*
X92431250Y-107357500D01*
D47*
X84361250Y-107937500D02*
X83781250Y-107357500D01*
D48*
X219981000Y-179019000D02*
X219981000Y-179750000D01*
X75478406Y-134921476D02*
X75556930Y-135000000D01*
D49*
X83781250Y-103187500D02*
X83781250Y-107357500D01*
D48*
X76600000Y-144000000D02*
X75500000Y-144000000D01*
X220000000Y-194500000D02*
X220000000Y-194000000D01*
X78486500Y-135051000D02*
X78486500Y-134785202D01*
D49*
X83781250Y-103187500D02*
X92431250Y-103187500D01*
D48*
%TO.N,+BATT*%
X75150000Y-156000000D02*
X71500000Y-152350000D01*
X71500000Y-152350000D02*
X71500000Y-137980000D01*
X73000000Y-136500000D02*
X72775000Y-136500000D01*
X74750000Y-135750000D02*
X74000000Y-136500000D01*
X74000000Y-136500000D02*
X73000000Y-136500000D01*
X75637500Y-135500000D02*
X76350000Y-135500000D01*
X72775000Y-136705000D02*
X72775000Y-136500000D01*
X75387500Y-135750000D02*
X74750000Y-135750000D01*
X75637500Y-136000000D02*
X75387500Y-135750000D01*
X76350000Y-136000000D02*
X75637500Y-136000000D01*
X73000000Y-136500000D02*
X72980000Y-136500000D01*
X75387500Y-135750000D02*
X75637500Y-135500000D01*
X71500000Y-137980000D02*
X72775000Y-136705000D01*
%TO.N,+VSW*%
X79225000Y-135500000D02*
X79937500Y-135500000D01*
X77537500Y-133612557D02*
X78288557Y-132861500D01*
X77537500Y-134312500D02*
X77537500Y-133612557D01*
X198225000Y-191931250D02*
X198225000Y-189475000D01*
X186476000Y-192032250D02*
X188118750Y-193675000D01*
X80168750Y-133688750D02*
X80430000Y-133950000D01*
X79900000Y-136000000D02*
X79225000Y-136000000D01*
X80168750Y-133668750D02*
X80168750Y-133688750D01*
X79361500Y-132861500D02*
X80168750Y-133668750D01*
X87500000Y-191900000D02*
X87632250Y-192032250D01*
X78288557Y-132861500D02*
X79361500Y-132861500D01*
X80168750Y-133668750D02*
X80168750Y-135731250D01*
X79937500Y-135500000D02*
X80168750Y-135731250D01*
X87632250Y-192032250D02*
X186476000Y-192032250D01*
X80168750Y-135731250D02*
X79900000Y-136000000D01*
X198225000Y-189475000D02*
X198500000Y-189200000D01*
X196481250Y-193675000D02*
X198225000Y-191931250D01*
X188118750Y-193675000D02*
X196481250Y-193675000D01*
X80430000Y-133950000D02*
X81000000Y-133950000D01*
%TO.N,+3.3V*%
X201098750Y-192881250D02*
X202000000Y-191980000D01*
X203499000Y-192001000D02*
X203909500Y-191590500D01*
X204319000Y-192000000D02*
X205281000Y-192000000D01*
X204000000Y-191681000D02*
X203909500Y-191590500D01*
X202600529Y-191980000D02*
X202000000Y-191980000D01*
X205309750Y-172089210D02*
X205309750Y-163190250D01*
X203889500Y-191590500D02*
X203909500Y-191590500D01*
X203500000Y-191181000D02*
X204319000Y-192000000D01*
X205309750Y-163190250D02*
X206500000Y-162000000D01*
X203500000Y-189520000D02*
X203500000Y-191181000D01*
X202621529Y-192001000D02*
X203499000Y-192001000D01*
X203909500Y-191590500D02*
X201519000Y-189200000D01*
X204500000Y-172898960D02*
X205309750Y-172089210D01*
X204500000Y-174500000D02*
X204500000Y-172898960D01*
X200500000Y-192881250D02*
X201098750Y-192881250D01*
X202600529Y-191980000D02*
X202621529Y-192001000D01*
X201519000Y-189200000D02*
X201000000Y-189200000D01*
D50*
%TO.N,Net-(D3-A)*%
X81462750Y-105212750D02*
X74117250Y-105212750D01*
X74117250Y-105212750D02*
X73501250Y-105828750D01*
X81756250Y-105506250D02*
X81462750Y-105212750D01*
D49*
%TO.N,ROW0*%
X96125000Y-120000000D02*
X118125000Y-120000000D01*
D48*
X71500000Y-115683811D02*
X78377561Y-108806250D01*
D49*
X81756250Y-115087500D02*
X81756250Y-108806250D01*
D47*
X233425000Y-118331250D02*
X233362500Y-118268750D01*
X138968750Y-118268750D02*
X138906250Y-118331250D01*
D49*
X119856250Y-118268750D02*
X120768750Y-118268750D01*
X85000000Y-118331250D02*
X81756250Y-115087500D01*
X94456250Y-118331250D02*
X94393750Y-118268750D01*
D48*
X86280250Y-193780250D02*
X182367860Y-193780250D01*
D49*
X92500000Y-118331250D02*
X94456250Y-118331250D01*
D48*
X208886198Y-196056250D02*
X211181000Y-193761448D01*
X184643860Y-196056250D02*
X208886198Y-196056250D01*
X80000000Y-187500000D02*
X86280250Y-193780250D01*
X80000000Y-183500000D02*
X80000000Y-187500000D01*
X182367860Y-193780250D02*
X184643860Y-196056250D01*
D49*
X118125000Y-120000000D02*
X119856250Y-118268750D01*
D48*
X71500000Y-175000000D02*
X80000000Y-183500000D01*
D49*
X120768750Y-118268750D02*
X120893750Y-118393750D01*
D47*
X234156250Y-118331250D02*
X233425000Y-118331250D01*
D48*
X78377561Y-108806250D02*
X81756250Y-108806250D01*
D47*
X329468750Y-118393750D02*
X329406250Y-118331250D01*
D49*
X120893750Y-118393750D02*
X348456250Y-118393750D01*
X94456250Y-118331250D02*
X96125000Y-120000000D01*
D48*
X211181000Y-193761448D02*
X211181000Y-193250000D01*
D47*
X177068750Y-118331250D02*
X177006250Y-118268750D01*
D48*
X71500000Y-153500000D02*
X71500000Y-175000000D01*
X71500000Y-134000000D02*
X71500000Y-115683811D01*
D47*
X196118750Y-118268750D02*
X196056250Y-118331250D01*
D50*
%TO.N,Net-(D4-A)*%
X102711250Y-118008750D02*
X99733750Y-115031250D01*
X99733750Y-115031250D02*
X94456250Y-115031250D01*
%TO.N,Net-(D5-A)*%
X119856250Y-109753750D02*
X119856250Y-114968750D01*
X122771250Y-106838750D02*
X119856250Y-109753750D01*
%TO.N,Net-(D6-A)*%
X141821250Y-106838750D02*
X138906250Y-109753750D01*
X138906250Y-109753750D02*
X138906250Y-115031250D01*
%TO.N,Net-(D7-A)*%
X160871250Y-106838750D02*
X157956250Y-109753750D01*
X157956250Y-109753750D02*
X157956250Y-114968750D01*
%TO.N,Net-(D8-A)*%
X179921250Y-106838750D02*
X177006250Y-109753750D01*
X177006250Y-109753750D02*
X177006250Y-114968750D01*
%TO.N,Net-(D9-A)*%
X196056250Y-109753750D02*
X196056250Y-115031250D01*
X198971250Y-106838750D02*
X196056250Y-109753750D01*
%TO.N,Net-(D10-A)*%
X218021250Y-106838750D02*
X215106250Y-109753750D01*
X215106250Y-109753750D02*
X215106250Y-114968750D01*
%TO.N,Net-(D11-A)*%
X234156250Y-109753750D02*
X234156250Y-115031250D01*
X237071250Y-106838750D02*
X234156250Y-109753750D01*
%TO.N,Net-(D12-A)*%
X253206250Y-109753750D02*
X253206250Y-115031250D01*
X256121250Y-106838750D02*
X253206250Y-109753750D01*
%TO.N,Net-(D13-A)*%
X272256250Y-109753750D02*
X272256250Y-115031250D01*
X275171250Y-106838750D02*
X272256250Y-109753750D01*
%TO.N,Net-(D14-A)*%
X291306250Y-109753750D02*
X291306250Y-115031250D01*
X294221250Y-106838750D02*
X291306250Y-109753750D01*
%TO.N,Net-(D15-A)*%
X310356250Y-109753750D02*
X310356250Y-115031250D01*
X313271250Y-106838750D02*
X310356250Y-109753750D01*
%TO.N,Net-(D16-A)*%
X332321250Y-106838750D02*
X329406250Y-109753750D01*
X329406250Y-109753750D02*
X329406250Y-115031250D01*
%TO.N,Net-(D17-A)*%
X351371250Y-106838750D02*
X348456250Y-109753750D01*
X348456250Y-109753750D02*
X348456250Y-115093750D01*
%TO.N,Net-(D18-A)*%
X89433750Y-125888750D02*
X86518750Y-128803750D01*
X86518750Y-128803750D02*
X86518750Y-134018750D01*
D48*
%TO.N,ROW1*%
X87000000Y-192500000D02*
X182788910Y-192500000D01*
D49*
X86581250Y-137381250D02*
X86518750Y-137318750D01*
D48*
X89301000Y-175699000D02*
X81500000Y-183500000D01*
X81500000Y-183500000D02*
X81500000Y-187000000D01*
X86518750Y-137318750D02*
X87006160Y-137318750D01*
X207881000Y-194212000D02*
X207881000Y-193250000D01*
X87006160Y-137318750D02*
X93391000Y-143703590D01*
D49*
X87818750Y-137318750D02*
X86518750Y-137318750D01*
D48*
X182788910Y-192500000D02*
X185142160Y-194853250D01*
X81500000Y-187000000D02*
X87000000Y-192500000D01*
D49*
X114318750Y-137318750D02*
X114381250Y-137381250D01*
X106500000Y-137318750D02*
X110331250Y-137318750D01*
D48*
X207239750Y-194853250D02*
X207881000Y-194212000D01*
X89301000Y-158199000D02*
X89301000Y-175699000D01*
X185142160Y-194853250D02*
X207239750Y-194853250D01*
D49*
X110331250Y-137318750D02*
X114318750Y-137318750D01*
D48*
X93391000Y-154109000D02*
X89301000Y-158199000D01*
X93391000Y-143703590D02*
X93391000Y-154109000D01*
D49*
X114381250Y-137381250D02*
X343693750Y-137381250D01*
D50*
%TO.N,Net-(D19-A)*%
X113246250Y-125888750D02*
X110331250Y-128803750D01*
X110331250Y-128803750D02*
X110331250Y-134018750D01*
%TO.N,Net-(D20-A)*%
X129381250Y-128803750D02*
X129381250Y-134081250D01*
X132296250Y-125888750D02*
X129381250Y-128803750D01*
%TO.N,Net-(D21-A)*%
X151346250Y-125888750D02*
X148431250Y-128803750D01*
X148431250Y-128803750D02*
X148431250Y-134081250D01*
%TO.N,Net-(D22-A)*%
X170396250Y-125888750D02*
X167481250Y-128803750D01*
X167481250Y-128803750D02*
X167481250Y-134081250D01*
%TO.N,Net-(D23-A)*%
X189446250Y-125888750D02*
X186531250Y-128803750D01*
X186531250Y-128803750D02*
X186531250Y-134081250D01*
%TO.N,Net-(D24-A)*%
X208496250Y-125888750D02*
X205581250Y-128803750D01*
X205581250Y-128803750D02*
X205581250Y-134081250D01*
%TO.N,Net-(D25-A)*%
X227546250Y-125888750D02*
X224631250Y-128803750D01*
X224631250Y-128803750D02*
X224631250Y-134081250D01*
%TO.N,Net-(D26-A)*%
X243681250Y-128803750D02*
X243681250Y-134081250D01*
X246596250Y-125888750D02*
X243681250Y-128803750D01*
%TO.N,Net-(D27-A)*%
X265646250Y-125888750D02*
X262731250Y-128803750D01*
X262731250Y-128803750D02*
X262731250Y-134081250D01*
%TO.N,Net-(D28-A)*%
X284696250Y-125888750D02*
X281781250Y-128803750D01*
X281781250Y-128803750D02*
X281781250Y-134081250D01*
%TO.N,Net-(D29-A)*%
X303746250Y-125888750D02*
X300831250Y-128803750D01*
X300831250Y-128803750D02*
X300831250Y-134081250D01*
%TO.N,Net-(D30-A)*%
X322796250Y-125888750D02*
X319881250Y-128803750D01*
X319881250Y-128803750D02*
X319881250Y-134081250D01*
%TO.N,Net-(D31-A)*%
X343693750Y-128803750D02*
X343693750Y-134081250D01*
X346608750Y-125888750D02*
X343693750Y-128803750D01*
%TO.N,Net-(D32-A)*%
X88900000Y-147853750D02*
X88900000Y-152450000D01*
X91815000Y-144938750D02*
X88900000Y-147853750D01*
X88900000Y-152450000D02*
X88850000Y-152500000D01*
D48*
%TO.N,ROW2*%
X207938750Y-195254250D02*
X208981000Y-194212000D01*
D49*
X92150000Y-154350000D02*
X92150000Y-152500000D01*
D48*
X88900000Y-175532900D02*
X81000000Y-183432900D01*
X81000000Y-183432900D02*
X81000000Y-187067100D01*
X86911150Y-192978250D02*
X182700060Y-192978250D01*
X88900000Y-157600000D02*
X88900000Y-175532900D01*
X92000000Y-154500000D02*
X88900000Y-157600000D01*
X208981000Y-194212000D02*
X208981000Y-193250000D01*
D49*
X92000000Y-154500000D02*
X92150000Y-154350000D01*
D48*
X81000000Y-187067100D02*
X86911150Y-192978250D01*
D49*
X336550000Y-156431250D02*
X115093750Y-156431250D01*
D48*
X184976060Y-195254250D02*
X207938750Y-195254250D01*
D49*
X114068750Y-156431250D02*
X115093750Y-156431250D01*
D48*
X182700060Y-192978250D02*
X184976060Y-195254250D01*
D50*
%TO.N,Net-(D33-A)*%
X115093750Y-147853750D02*
X115093750Y-153131250D01*
X118008750Y-144938750D02*
X115093750Y-147853750D01*
%TO.N,Net-(D34-A)*%
X134143750Y-147853750D02*
X134143750Y-153131250D01*
X137058750Y-144938750D02*
X134143750Y-147853750D01*
%TO.N,Net-(D35-A)*%
X156108750Y-144938750D02*
X153193750Y-147853750D01*
X153193750Y-147853750D02*
X153193750Y-153131250D01*
%TO.N,Net-(D36-A)*%
X175158750Y-144938750D02*
X172243750Y-147853750D01*
X172243750Y-147853750D02*
X172243750Y-153131250D01*
%TO.N,Net-(D37-A)*%
X191293750Y-147853750D02*
X191293750Y-153131250D01*
X194208750Y-144938750D02*
X191293750Y-147853750D01*
%TO.N,Net-(D38-A)*%
X213258750Y-144938750D02*
X210343750Y-147853750D01*
X210343750Y-147853750D02*
X210343750Y-153131250D01*
%TO.N,Net-(D39-A)*%
X229393750Y-147853750D02*
X229393750Y-153131250D01*
X232308750Y-144938750D02*
X229393750Y-147853750D01*
%TO.N,Net-(D40-A)*%
X248443750Y-147853750D02*
X248443750Y-153131250D01*
X251358750Y-144938750D02*
X248443750Y-147853750D01*
%TO.N,Net-(D41-A)*%
X270408750Y-144938750D02*
X267493750Y-147853750D01*
X267493750Y-147853750D02*
X267493750Y-153131250D01*
%TO.N,Net-(D42-A)*%
X289458750Y-144938750D02*
X286543750Y-147853750D01*
X286543750Y-147853750D02*
X286543750Y-153131250D01*
%TO.N,Net-(D43-A)*%
X305593750Y-147853750D02*
X305593750Y-153131250D01*
X308508750Y-144938750D02*
X305593750Y-147853750D01*
%TO.N,Net-(D44-A)*%
X336550000Y-147853750D02*
X336550000Y-153131250D01*
X339465000Y-144938750D02*
X336550000Y-147853750D01*
D49*
%TO.N,ROW3*%
X213646510Y-175481250D02*
X105568750Y-175481250D01*
X84156250Y-175500000D02*
X84137500Y-175481250D01*
D48*
X84137500Y-175481250D02*
X80500000Y-179118750D01*
X80500000Y-187432900D02*
X86446350Y-193379250D01*
D49*
X105568750Y-175481250D02*
X104518750Y-175481250D01*
D48*
X86446350Y-193379250D02*
X182533960Y-193379250D01*
D49*
X348456250Y-175481250D02*
X218500000Y-175481250D01*
D48*
X210081000Y-194212000D02*
X210081000Y-193250000D01*
X184809960Y-195655250D02*
X208637750Y-195655250D01*
X80500000Y-179118750D02*
X80500000Y-187432900D01*
D49*
X85500000Y-175500000D02*
X84156250Y-175500000D01*
D48*
X182533960Y-193379250D02*
X184809960Y-195655250D01*
D49*
X104518750Y-175481250D02*
X104500000Y-175500000D01*
D48*
X208637750Y-195655250D02*
X210081000Y-194212000D01*
D50*
%TO.N,Net-(D45-A)*%
X87052500Y-163988750D02*
X84137500Y-166903750D01*
X84137500Y-166903750D02*
X84137500Y-172181250D01*
%TO.N,Net-(D46-A)*%
X105568750Y-166903750D02*
X105568750Y-172181250D01*
X108483750Y-163988750D02*
X105568750Y-166903750D01*
%TO.N,Net-(D47-A)*%
X124618750Y-166903750D02*
X124618750Y-172181250D01*
X127533750Y-163988750D02*
X124618750Y-166903750D01*
%TO.N,Net-(D48-A)*%
X143668750Y-166903750D02*
X143668750Y-172181250D01*
X146583750Y-163988750D02*
X143668750Y-166903750D01*
%TO.N,Net-(D49-A)*%
X165633750Y-163988750D02*
X162718750Y-166903750D01*
X162718750Y-166903750D02*
X162718750Y-172181250D01*
%TO.N,Net-(D50-A)*%
X181768750Y-166903750D02*
X181768750Y-172181250D01*
X184683750Y-163988750D02*
X181768750Y-166903750D01*
%TO.N,Net-(D51-A)*%
X200818750Y-166903750D02*
X200818750Y-172181250D01*
X203733750Y-163988750D02*
X200818750Y-166903750D01*
%TO.N,Net-(D52-A)*%
X219868750Y-166903750D02*
X219868750Y-172181250D01*
X222783750Y-163988750D02*
X219868750Y-166903750D01*
%TO.N,Net-(D53-A)*%
X238918750Y-166903750D02*
X238918750Y-172243750D01*
X241833750Y-163988750D02*
X238918750Y-166903750D01*
%TO.N,Net-(D54-A)*%
X257968750Y-166903750D02*
X257968750Y-172181250D01*
X260883750Y-163988750D02*
X257968750Y-166903750D01*
%TO.N,Net-(D55-A)*%
X277018750Y-166903750D02*
X277018750Y-172181250D01*
X279933750Y-163988750D02*
X277018750Y-166903750D01*
%TO.N,Net-(D56-A)*%
X298983750Y-163988750D02*
X296068750Y-166903750D01*
X296068750Y-166903750D02*
X296068750Y-172181250D01*
%TO.N,Net-(D57-A)*%
X351371250Y-163988750D02*
X348456250Y-166903750D01*
X348456250Y-166903750D02*
X348456250Y-172181250D01*
%TO.N,Net-(D58-A)*%
X325177500Y-163988750D02*
X322262500Y-166903750D01*
X322262500Y-166903750D02*
X322262500Y-172181250D01*
%TO.N,Net-(D59-A)*%
X93662500Y-185953750D02*
X93662500Y-191231250D01*
X96577500Y-183038750D02*
X93662500Y-185953750D01*
D47*
%TO.N,ROW4*%
X183888500Y-196651000D02*
X219500000Y-196651000D01*
X93662500Y-194531250D02*
X181768750Y-194531250D01*
X219500000Y-196651000D02*
X236799000Y-196651000D01*
X336550000Y-194531250D02*
X238918750Y-194531250D01*
X219500000Y-196651000D02*
X217781000Y-194932000D01*
X217781000Y-194932000D02*
X217781000Y-193250000D01*
X181768750Y-194531250D02*
X183888500Y-196651000D01*
X236799000Y-196651000D02*
X238918750Y-194531250D01*
D50*
%TO.N,Net-(D60-A)*%
X117475000Y-185953750D02*
X117475000Y-191231250D01*
X120390000Y-183038750D02*
X117475000Y-185953750D01*
%TO.N,Net-(D61-A)*%
X141287500Y-185953750D02*
X141287500Y-191231250D01*
X144202500Y-183038750D02*
X141287500Y-185953750D01*
%TO.N,Net-(D62-A)*%
X184683750Y-183038750D02*
X181768750Y-185953750D01*
X181768750Y-185953750D02*
X181768750Y-191231250D01*
%TO.N,Net-(D63-A)*%
X241833750Y-183038750D02*
X238918750Y-185953750D01*
X238918750Y-185953750D02*
X238918750Y-191231250D01*
%TO.N,Net-(D64-A)*%
X277018750Y-185953750D02*
X277018750Y-191231250D01*
X279933750Y-183038750D02*
X277018750Y-185953750D01*
%TO.N,Net-(D65-A)*%
X296068750Y-185953750D02*
X296068750Y-191231250D01*
X298983750Y-183038750D02*
X296068750Y-185953750D01*
%TO.N,Net-(D66-A)*%
X318033750Y-183038750D02*
X315118750Y-185953750D01*
X315118750Y-185953750D02*
X315118750Y-191293750D01*
%TO.N,Net-(D67-A)*%
X339465000Y-183038750D02*
X336550000Y-185953750D01*
X336550000Y-185953750D02*
X336550000Y-191231250D01*
D47*
%TO.N,Net-(F1-Pad1)*%
X85132500Y-112500000D02*
X85132500Y-114183750D01*
X85132500Y-114183750D02*
X86042500Y-115093750D01*
D49*
X85968750Y-115500000D02*
X85968750Y-114448750D01*
D51*
%TO.N,D-*%
X87980000Y-116837844D02*
X96600000Y-125457844D01*
X87042500Y-111950000D02*
X87042500Y-112943751D01*
X87356250Y-108856250D02*
X88000000Y-109500000D01*
X96600000Y-125457844D02*
X96600000Y-158334314D01*
X202240625Y-182100000D02*
X205281000Y-182100000D01*
X87356250Y-107937500D02*
X87356250Y-107165500D01*
X87042500Y-112943751D02*
X87980000Y-113881251D01*
X198934375Y-178793750D02*
X202240625Y-182100000D01*
X88356250Y-107165500D02*
X88356250Y-107937500D01*
X87704999Y-111950000D02*
X87042500Y-111950000D01*
X87430250Y-107091500D02*
X88282250Y-107091500D01*
X91500000Y-163434314D02*
X91500000Y-175920344D01*
X87980000Y-113881251D02*
X87980000Y-116837844D01*
X96600000Y-158334314D02*
X91500000Y-163434314D01*
X94373406Y-178793750D02*
X198934375Y-178793750D01*
X88000000Y-111654999D02*
X87704999Y-111950000D01*
X87356250Y-107937500D02*
X87356250Y-108856250D01*
X91500000Y-175920344D02*
X94373406Y-178793750D01*
X88282250Y-107091500D02*
X88356250Y-107165500D01*
X87356250Y-107165500D02*
X87430250Y-107091500D01*
X88000000Y-109500000D02*
X88000000Y-111654999D01*
D48*
%TO.N,Net-(J1-VBUS-PadA4_B9)*%
X83566500Y-111904000D02*
X84162500Y-112500000D01*
X84021160Y-109507250D02*
X83566500Y-109961910D01*
X85706250Y-107937500D02*
X85706250Y-107423750D01*
X85706250Y-107937500D02*
X85706250Y-109215400D01*
X86767500Y-106362500D02*
X89570597Y-106362500D01*
X90506250Y-107298153D02*
X90506250Y-107937500D01*
X83566500Y-109961910D02*
X83566500Y-111904000D01*
X85706250Y-109215400D02*
X85414400Y-109507250D01*
X85706250Y-107423750D02*
X86767500Y-106362500D01*
X85414400Y-109507250D02*
X84021160Y-109507250D01*
X89570597Y-106362500D02*
X90506250Y-107298153D01*
D51*
%TO.N,D+*%
X88380000Y-116672156D02*
X97000000Y-125292156D01*
X203751000Y-181749000D02*
X204500000Y-181000000D01*
X97000000Y-158500000D02*
X91900000Y-163600000D01*
X202386500Y-181749000D02*
X203751000Y-181749000D01*
X88356250Y-111651249D02*
X88655001Y-111950000D01*
X88356250Y-109209500D02*
X88356250Y-111651249D01*
X89317500Y-111950000D02*
X89317500Y-112943751D01*
X88856250Y-108709500D02*
X88856250Y-107937500D01*
X91900000Y-175754656D02*
X94539094Y-178393750D01*
X204500000Y-181000000D02*
X205281000Y-181000000D01*
X88356250Y-109209500D02*
X88856250Y-108709500D01*
X199031250Y-178393750D02*
X202386500Y-181749000D01*
X89317500Y-112943751D02*
X88380000Y-113881251D01*
X97000000Y-125292156D02*
X97000000Y-158500000D01*
X94539094Y-178393750D02*
X199031250Y-178393750D01*
X88655001Y-111950000D02*
X89317500Y-111950000D01*
X91900000Y-163600000D02*
X91900000Y-175754656D01*
X88380000Y-113881251D02*
X88380000Y-116672156D01*
X87856250Y-108709500D02*
X88356250Y-109209500D01*
X87856250Y-107937500D02*
X87856250Y-108709500D01*
D48*
%TO.N,Net-(J1-CC2)*%
X89856250Y-107937500D02*
X89856250Y-109132500D01*
X89856250Y-109132500D02*
X91055000Y-110331250D01*
%TO.N,Net-(J1-CC1)*%
X86856250Y-108632500D02*
X85157500Y-110331250D01*
X86856250Y-107937500D02*
X86856250Y-108632500D01*
%TO.N,COL0*%
X205581250Y-194452250D02*
X205581250Y-194449750D01*
X169862500Y-191293750D02*
X180181250Y-191293750D01*
X185737500Y-192881250D02*
X187308500Y-194452250D01*
X205581250Y-194449750D02*
X206781000Y-193250000D01*
X187308500Y-194452250D02*
X205581250Y-194452250D01*
D47*
X78365000Y-147478750D02*
X78365000Y-148215000D01*
D48*
X136525000Y-191293750D02*
X138906250Y-191293750D01*
X100012500Y-191293750D02*
X111918750Y-191293750D01*
D47*
%TO.N,COL1*%
X83127500Y-184872500D02*
X83127500Y-185578750D01*
X95033750Y-175466250D02*
X95000000Y-175500000D01*
X100171250Y-161391250D02*
X95033750Y-166528750D01*
X100171250Y-136171250D02*
X100171250Y-161391250D01*
D48*
X215581000Y-194732500D02*
X215581000Y-193250000D01*
X214312500Y-196001000D02*
X215581000Y-194732500D01*
D47*
X95033750Y-166528750D02*
X95033750Y-175466250D01*
%TO.N,COL2*%
X104558750Y-156058750D02*
X114083750Y-165583750D01*
D48*
X212697610Y-195973610D02*
X214481000Y-194190220D01*
D47*
X104558750Y-147478750D02*
X104558750Y-156058750D01*
X114083750Y-165583750D02*
X114083750Y-166528750D01*
D48*
X214481000Y-194190220D02*
X214481000Y-193250000D01*
%TO.N,COL3*%
X213381000Y-193812750D02*
X213381000Y-193250000D01*
X211931250Y-195262500D02*
X213381000Y-193812750D01*
%TO.N,COL4*%
X211137500Y-194654891D02*
X211838109Y-194654891D01*
X211838109Y-194654891D02*
X212281000Y-194212000D01*
X212281000Y-194212000D02*
X212281000Y-193250000D01*
D47*
%TO.N,COL5*%
X208000000Y-179631000D02*
X207881000Y-179750000D01*
X208000000Y-178000000D02*
X208000000Y-179631000D01*
%TO.N,COL6*%
X209000000Y-177500000D02*
X209000000Y-179731000D01*
X209000000Y-179731000D02*
X208981000Y-179750000D01*
%TO.N,COL7*%
X210000000Y-178000000D02*
X210000000Y-179669000D01*
X210000000Y-179669000D02*
X210081000Y-179750000D01*
D48*
%TO.N,COL8*%
X220751058Y-176399000D02*
X218881000Y-178269058D01*
X228383750Y-179033808D02*
X225748942Y-176399000D01*
X218858750Y-155358750D02*
X218858750Y-147478750D01*
X219355000Y-157500000D02*
X228383750Y-166528750D01*
X225748942Y-176399000D02*
X220751058Y-176399000D01*
X218881000Y-178269058D02*
X218881000Y-179750000D01*
X228383750Y-185578750D02*
X228383750Y-179033808D01*
D47*
%TO.N,COL9*%
X211181000Y-177500000D02*
X211181000Y-179750000D01*
%TO.N,COL10*%
X212281000Y-178000000D02*
X212281000Y-179750000D01*
%TO.N,COL11*%
X218360244Y-173283313D02*
X215581000Y-176062557D01*
X244546061Y-173283313D02*
X218360244Y-173283313D01*
X215581000Y-176062557D02*
X215581000Y-179750000D01*
X244631374Y-173368626D02*
X244546061Y-173283313D01*
%TO.N,COL12*%
X244065687Y-173934313D02*
X243980374Y-173849000D01*
X218503077Y-173849000D02*
X216681000Y-175671077D01*
X216681000Y-175671077D02*
X216681000Y-179750000D01*
X243980374Y-173849000D02*
X218503077Y-173849000D01*
%TO.N,COL13*%
X217781000Y-175279597D02*
X217781000Y-179750000D01*
X243500000Y-174500000D02*
X218560597Y-174500000D01*
X218560597Y-174500000D02*
X217781000Y-175279597D01*
%TO.N,COL14*%
X218881000Y-194881000D02*
X218881000Y-193250000D01*
X220000000Y-196000000D02*
X218881000Y-194881000D01*
D48*
%TO.N,Net-(Q1-G)*%
X80000000Y-142510000D02*
X80990000Y-142510000D01*
X80000000Y-142510000D02*
X79990000Y-142510000D01*
X80990000Y-142510000D02*
X81000000Y-142520000D01*
X79990000Y-142510000D02*
X78500000Y-144000000D01*
%TO.N,SYSOFF*%
X77175000Y-142500000D02*
X73250000Y-142500000D01*
X77611500Y-137261500D02*
X77611500Y-137714798D01*
X77611500Y-137714798D02*
X77621000Y-137724298D01*
X77550000Y-142125000D02*
X77175000Y-142500000D01*
X77550000Y-142125000D02*
X77621000Y-142054000D01*
X77537500Y-137187500D02*
X77611500Y-137261500D01*
X77621000Y-137724298D02*
X77621000Y-142054000D01*
%TO.N,Net-(U5-ISET)*%
X77037500Y-138387500D02*
X76750000Y-138675000D01*
X77037500Y-137187500D02*
X77037500Y-138387500D01*
%TO.N,Net-(U5-ILIM)*%
X79225000Y-136500000D02*
X80760000Y-136500000D01*
X80760000Y-136500000D02*
X81000000Y-136740000D01*
%TO.N,BOOT*%
X203500000Y-186219000D02*
X202181500Y-187537500D01*
X203500000Y-186219000D02*
X204319000Y-185400000D01*
X204319000Y-185400000D02*
X205281000Y-185400000D01*
X203500000Y-188500000D02*
X203500000Y-186219000D01*
X202181500Y-187537500D02*
X194000000Y-187537500D01*
%TO.N,Net-(U5-TMR)*%
X78037500Y-137187500D02*
X78037500Y-138527500D01*
X78037500Y-138527500D02*
X78500000Y-138990000D01*
%TO.N,Net-(U5-TS)*%
X75010000Y-136500000D02*
X75000000Y-136490000D01*
X76350000Y-136500000D02*
X75010000Y-136500000D01*
%TO.N,Net-(SW1-A)*%
X74000000Y-143750000D02*
X74000000Y-144250000D01*
X74000000Y-137520000D02*
X74000000Y-138456250D01*
X74000000Y-144250000D02*
X73250000Y-145000000D01*
%TO.N,RST*%
X198125000Y-181625000D02*
X194000000Y-181625000D01*
X203255741Y-184300000D02*
X205281000Y-184300000D01*
X203255741Y-184300000D02*
X200800000Y-184300000D01*
X203500000Y-172350000D02*
X203500000Y-174500000D01*
X200800000Y-184300000D02*
X198125000Y-181625000D01*
%TO.N,SWDIO*%
X214481000Y-179750000D02*
X214481000Y-178519000D01*
X215000000Y-178000000D02*
X215000000Y-175012900D01*
X210493840Y-170506740D02*
X210493840Y-170500000D01*
X207757750Y-167763910D02*
X207757750Y-165797750D01*
X207757750Y-165797750D02*
X206500000Y-164540000D01*
X215000000Y-175012900D02*
X210493840Y-170506740D01*
X214481000Y-178519000D02*
X215000000Y-178000000D01*
X210493840Y-170500000D02*
X207757750Y-167763910D01*
%TO.N,SWDCLK*%
X214500000Y-177932900D02*
X214500000Y-175080000D01*
X214500000Y-175080000D02*
X206500000Y-167080000D01*
X213381000Y-179051900D02*
X214500000Y-177932900D01*
X213381000Y-179750000D02*
X213381000Y-179051900D01*
%TD*%
M02*
