%TF.GenerationSoftware,KiCad,Pcbnew,9.0.1*%
%TF.CreationDate,2025-05-16T22:45:18+09:00*%
%TF.ProjectId,H360,48333630-2e6b-4696-9361-645f70636258,rev?*%
%TF.SameCoordinates,Original*%
%TF.FileFunction,OtherDrawing,Comment*%
%FSLAX46Y46*%
G04 Gerber Fmt 4.6, Leading zero omitted, Abs format (unit mm)*
G04 Created by KiCad (PCBNEW 9.0.1) date 2025-05-16 22:45:18*
%MOMM*%
%LPD*%
G01*
G04 APERTURE LIST*
%ADD10C,0.100000*%
%ADD11C,0.120000*%
G04 APERTURE END LIST*
%TO.C,MX21*%
D10*
X192881250Y-121443750D02*
X173831250Y-121443750D01*
X173831250Y-140493750D01*
X192881250Y-140493750D01*
X192881250Y-121443750D01*
%TO.C,MX61*%
X245268750Y-178593750D02*
X226218750Y-178593750D01*
X226218750Y-197643750D01*
X245268750Y-197643750D01*
X245268750Y-178593750D01*
%TO.C,MX9*%
X240506250Y-102393750D02*
X221456250Y-102393750D01*
X221456250Y-121443750D01*
X240506250Y-121443750D01*
X240506250Y-102393750D01*
%TO.C,MX5*%
X164306250Y-102393750D02*
X145256250Y-102393750D01*
X145256250Y-121443750D01*
X164306250Y-121443750D01*
X164306250Y-102393750D01*
%TO.C,MX26*%
X288131250Y-121443750D02*
X269081250Y-121443750D01*
X269081250Y-140493750D01*
X288131250Y-140493750D01*
X288131250Y-121443750D01*
%TO.C,MX1*%
X69056250Y-102393750D02*
X88106250Y-102393750D01*
X88106250Y-121443750D01*
X69056250Y-121443750D01*
X69056250Y-102393750D01*
%TO.C,MX10*%
X259556250Y-102393750D02*
X240506250Y-102393750D01*
X240506250Y-121443750D01*
X259556250Y-121443750D01*
X259556250Y-102393750D01*
%TO.C,MX19*%
X154781250Y-121443750D02*
X135731250Y-121443750D01*
X135731250Y-140493750D01*
X154781250Y-140493750D01*
X154781250Y-121443750D01*
D11*
%TO.C,U3*%
X220481000Y-177000000D02*
X220481000Y-196000000D01*
X220481000Y-196000000D02*
X225481000Y-196000000D01*
X225481000Y-177000000D02*
X220481000Y-177000000D01*
X225481000Y-196000000D02*
X225481000Y-177000000D01*
%TO.C,MX45*%
D10*
X130968750Y-159543750D02*
X111918750Y-159543750D01*
X111918750Y-178593750D01*
X130968750Y-178593750D01*
X130968750Y-159543750D01*
%TO.C,MX63*%
X302418750Y-178593750D02*
X283368750Y-178593750D01*
X283368750Y-197643750D01*
X302418750Y-197643750D01*
X302418750Y-178593750D01*
%TO.C,MX35*%
X197643750Y-140493750D02*
X178593750Y-140493750D01*
X178593750Y-159543750D01*
X197643750Y-159543750D01*
X197643750Y-140493750D01*
%TO.C,MX16*%
X92868750Y-121443750D02*
X73818750Y-121443750D01*
X73818750Y-140493750D01*
X92868750Y-140493750D01*
X92868750Y-121443750D01*
%TO.C,MX53*%
X283368750Y-159543750D02*
X264318750Y-159543750D01*
X264318750Y-178593750D01*
X283368750Y-178593750D01*
X283368750Y-159543750D01*
%TO.C,MX30*%
X95250000Y-140493750D02*
X76200000Y-140493750D01*
X76200000Y-159543750D01*
X95250000Y-159543750D01*
X95250000Y-140493750D01*
%TO.C,MX23*%
X230981250Y-121443750D02*
X211931250Y-121443750D01*
X211931250Y-140493750D01*
X230981250Y-140493750D01*
X230981250Y-121443750D01*
%TO.C,MX11*%
X278606250Y-102393750D02*
X259556250Y-102393750D01*
X259556250Y-121443750D01*
X278606250Y-121443750D01*
X278606250Y-102393750D01*
%TO.C,MX46*%
X150018750Y-159543750D02*
X130968750Y-159543750D01*
X130968750Y-178593750D01*
X150018750Y-178593750D01*
X150018750Y-159543750D01*
%TO.C,MX18*%
X135731250Y-121443750D02*
X116681250Y-121443750D01*
X116681250Y-140493750D01*
X135731250Y-140493750D01*
X135731250Y-121443750D01*
%TO.C,MX49*%
X207168750Y-159543750D02*
X188118750Y-159543750D01*
X188118750Y-178593750D01*
X207168750Y-178593750D01*
X207168750Y-159543750D01*
%TO.C,MX22*%
X211931250Y-121443750D02*
X192881250Y-121443750D01*
X192881250Y-140493750D01*
X211931250Y-140493750D01*
X211931250Y-121443750D01*
%TO.C,MX29*%
X350043750Y-121443750D02*
X330993750Y-121443750D01*
X330993750Y-140493750D01*
X350043750Y-140493750D01*
X350043750Y-121443750D01*
%TO.C,MX39*%
X273843750Y-140493750D02*
X254793750Y-140493750D01*
X254793750Y-159543750D01*
X273843750Y-159543750D01*
X273843750Y-140493750D01*
%TO.C,MX4*%
X145256250Y-102393750D02*
X126206250Y-102393750D01*
X126206250Y-121443750D01*
X145256250Y-121443750D01*
X145256250Y-102393750D01*
%TO.C,MX55*%
X328612500Y-159543750D02*
X309562500Y-159543750D01*
X309562500Y-178593750D01*
X328612500Y-178593750D01*
X328612500Y-159543750D01*
%TO.C,MX56*%
X354806250Y-159543750D02*
X335756250Y-159543750D01*
X335756250Y-178593750D01*
X354806250Y-178593750D01*
X354806250Y-159543750D01*
%TO.C,MX33*%
X159543750Y-140493750D02*
X140493750Y-140493750D01*
X140493750Y-159543750D01*
X159543750Y-159543750D01*
X159543750Y-140493750D01*
%TO.C,MX43*%
X90487500Y-159543750D02*
X71437500Y-159543750D01*
X71437500Y-178593750D01*
X90487500Y-178593750D01*
X90487500Y-159543750D01*
%TO.C,MX41*%
X311943750Y-140493750D02*
X292893750Y-140493750D01*
X292893750Y-159543750D01*
X311943750Y-159543750D01*
X311943750Y-140493750D01*
%TO.C,MX27*%
X307181250Y-121443750D02*
X288131250Y-121443750D01*
X288131250Y-140493750D01*
X307181250Y-140493750D01*
X307181250Y-121443750D01*
%TO.C,MX64*%
X321468750Y-178593750D02*
X302418750Y-178593750D01*
X302418750Y-197643750D01*
X321468750Y-197643750D01*
X321468750Y-178593750D01*
%TO.C,MX28*%
X326231250Y-121443750D02*
X307181250Y-121443750D01*
X307181250Y-140493750D01*
X326231250Y-140493750D01*
X326231250Y-121443750D01*
%TO.C,MX50*%
X226218750Y-159543750D02*
X207168750Y-159543750D01*
X207168750Y-178593750D01*
X226218750Y-178593750D01*
X226218750Y-159543750D01*
%TO.C,MX48*%
X188118750Y-159543750D02*
X169068750Y-159543750D01*
X169068750Y-178593750D01*
X188118750Y-178593750D01*
X188118750Y-159543750D01*
%TO.C,MX44*%
X111918750Y-159543750D02*
X92868750Y-159543750D01*
X92868750Y-178593750D01*
X111918750Y-178593750D01*
X111918750Y-159543750D01*
%TO.C,MX34*%
X178593750Y-140493750D02*
X159543750Y-140493750D01*
X159543750Y-159543750D01*
X178593750Y-159543750D01*
X178593750Y-140493750D01*
%TO.C,MX2*%
X107156250Y-121443750D02*
X88106250Y-121443750D01*
X88106250Y-102393750D01*
X107156250Y-102393750D01*
X107156250Y-121443750D01*
%TO.C,MX38*%
X254793750Y-140493750D02*
X235743750Y-140493750D01*
X235743750Y-159543750D01*
X254793750Y-159543750D01*
X254793750Y-140493750D01*
%TO.C,MX24*%
X250031250Y-121443750D02*
X230981250Y-121443750D01*
X230981250Y-140493750D01*
X250031250Y-140493750D01*
X250031250Y-121443750D01*
%TO.C,MX13*%
X316706250Y-102393750D02*
X297656250Y-102393750D01*
X297656250Y-121443750D01*
X316706250Y-121443750D01*
X316706250Y-102393750D01*
%TO.C,MX3*%
X126206250Y-102393750D02*
X107156250Y-102393750D01*
X107156250Y-121443750D01*
X126206250Y-121443750D01*
X126206250Y-102393750D01*
%TO.C,MX36*%
X216693750Y-140493750D02*
X197643750Y-140493750D01*
X197643750Y-159543750D01*
X216693750Y-159543750D01*
X216693750Y-140493750D01*
%TO.C,MX31*%
X121443750Y-140493750D02*
X102393750Y-140493750D01*
X102393750Y-159543750D01*
X121443750Y-159543750D01*
X121443750Y-140493750D01*
%TO.C,MX58*%
X123825000Y-178593750D02*
X104775000Y-178593750D01*
X104775000Y-197643750D01*
X123825000Y-197643750D01*
X123825000Y-178593750D01*
%TO.C,MX20*%
X173831250Y-121443750D02*
X154781250Y-121443750D01*
X154781250Y-140493750D01*
X173831250Y-140493750D01*
X173831250Y-121443750D01*
%TO.C,MX14*%
X335756250Y-102393750D02*
X316706250Y-102393750D01*
X316706250Y-121443750D01*
X335756250Y-121443750D01*
X335756250Y-102393750D01*
%TO.C,MX62*%
X283368750Y-178593750D02*
X264318750Y-178593750D01*
X264318750Y-197643750D01*
X283368750Y-197643750D01*
X283368750Y-178593750D01*
%TO.C,MX17*%
X116681250Y-121443750D02*
X97631250Y-121443750D01*
X97631250Y-140493750D01*
X116681250Y-140493750D01*
X116681250Y-121443750D01*
%TO.C,MX60*%
X188118750Y-178593750D02*
X169068750Y-178593750D01*
X169068750Y-197643750D01*
X188118750Y-197643750D01*
X188118750Y-178593750D01*
%TO.C,MX51*%
X245268750Y-159543750D02*
X226218750Y-159543750D01*
X226218750Y-178593750D01*
X245268750Y-178593750D01*
X245268750Y-159543750D01*
%TO.C,MX8*%
X221456250Y-102393750D02*
X202406250Y-102393750D01*
X202406250Y-121443750D01*
X221456250Y-121443750D01*
X221456250Y-102393750D01*
%TO.C,MX42*%
X342900000Y-140493750D02*
X323850000Y-140493750D01*
X323850000Y-159543750D01*
X342900000Y-159543750D01*
X342900000Y-140493750D01*
%TO.C,MX32*%
X140493750Y-140493750D02*
X121443750Y-140493750D01*
X121443750Y-159543750D01*
X140493750Y-159543750D01*
X140493750Y-140493750D01*
%TO.C,MX25*%
X269081250Y-121443750D02*
X250031250Y-121443750D01*
X250031250Y-140493750D01*
X269081250Y-140493750D01*
X269081250Y-121443750D01*
%TO.C,MX15*%
X354806250Y-102393750D02*
X335756250Y-102393750D01*
X335756250Y-121443750D01*
X354806250Y-121443750D01*
X354806250Y-102393750D01*
%TO.C,MX52*%
X264318750Y-159543750D02*
X245268750Y-159543750D01*
X245268750Y-178593750D01*
X264318750Y-178593750D01*
X264318750Y-159543750D01*
%TO.C,MX37*%
X235743750Y-140493750D02*
X216693750Y-140493750D01*
X216693750Y-159543750D01*
X235743750Y-159543750D01*
X235743750Y-140493750D01*
%TO.C,MX47*%
X169068750Y-159543750D02*
X150018750Y-159543750D01*
X150018750Y-178593750D01*
X169068750Y-178593750D01*
X169068750Y-159543750D01*
%TO.C,MX6*%
X183356250Y-102393750D02*
X164306250Y-102393750D01*
X164306250Y-121443750D01*
X183356250Y-121443750D01*
X183356250Y-102393750D01*
%TO.C,MX7*%
X202406250Y-102393750D02*
X183356250Y-102393750D01*
X183356250Y-121443750D01*
X202406250Y-121443750D01*
X202406250Y-102393750D01*
%TO.C,MX54*%
X302418750Y-159543750D02*
X283368750Y-159543750D01*
X283368750Y-178593750D01*
X302418750Y-178593750D01*
X302418750Y-159543750D01*
%TO.C,MX65*%
X342900000Y-178593750D02*
X323850000Y-178593750D01*
X323850000Y-197643750D01*
X342900000Y-197643750D01*
X342900000Y-178593750D01*
%TO.C,MX40*%
X292893750Y-140493750D02*
X273843750Y-140493750D01*
X273843750Y-159543750D01*
X292893750Y-159543750D01*
X292893750Y-140493750D01*
%TO.C,MX12*%
X297656250Y-102393750D02*
X278606250Y-102393750D01*
X278606250Y-121443750D01*
X297656250Y-121443750D01*
X297656250Y-102393750D01*
%TO.C,MX59*%
X147637500Y-178593750D02*
X128587500Y-178593750D01*
X128587500Y-197643750D01*
X147637500Y-197643750D01*
X147637500Y-178593750D01*
%TO.C,MX57*%
X100012500Y-178593750D02*
X80962500Y-178593750D01*
X80962500Y-197643750D01*
X100012500Y-197643750D01*
X100012500Y-178593750D01*
%TD*%
M02*
