M48
; DRILL file {KiCad 9.0.1} date 2025-05-13T23:50:43+0900
; FORMAT={-:-/ absolute / metric / decimal}
; #@! TF.CreationDate,2025-05-13T23:50:43+09:00
; #@! TF.GenerationSoftware,Kicad,Pcbnew,9.0.1
; #@! TF.FileFunction,NonPlated,1,2,NPTH
FMAT,2
METRIC
; #@! TA.AperFunction,NonPlated,NPTH,ComponentDrill
T1C0.600
; #@! TA.AperFunction,NonPlated,NPTH,ComponentDrill
T2C0.900
; #@! TA.AperFunction,NonPlated,NPTH,ComponentDrill
T3C1.750
; #@! TA.AperFunction,NonPlated,NPTH,ComponentDrill
T4C3.988
%
G90
G05
T1
X85.216Y-106.867
X90.996Y-106.867
T2
X70.5Y-139.1
X70.5Y-145.9
T3
X75.882Y-169.069
X78.264Y-130.969
X78.581Y-106.839
X78.581Y-116.999
X80.645Y-150.019
X85.407Y-188.119
X86.042Y-169.069
X88.424Y-130.969
X90.805Y-150.019
X95.567Y-188.119
X97.314Y-169.069
X97.631Y-106.839
X97.631Y-116.999
X102.076Y-130.969
X106.839Y-150.019
X107.474Y-169.069
X109.22Y-188.119
X111.601Y-111.919
X112.236Y-130.969
X116.364Y-169.069
X116.999Y-150.019
X119.38Y-188.119
X121.126Y-130.969
X121.761Y-111.919
X125.889Y-150.019
X126.524Y-169.069
X130.651Y-111.919
X131.286Y-130.969
X133.032Y-188.119
X135.414Y-169.069
X136.049Y-150.019
X140.176Y-130.969
X140.811Y-111.919
X143.192Y-188.119
X144.939Y-150.019
X145.574Y-169.069
X149.701Y-111.919
X150.336Y-130.969
X154.464Y-169.069
X155.099Y-150.019
X159.226Y-130.969
X159.861Y-111.919
X163.989Y-150.019
X164.624Y-169.069
X168.751Y-111.919
X169.386Y-130.969
X173.514Y-169.069
X173.514Y-188.119
X174.149Y-150.019
X178.276Y-130.969
X178.911Y-111.919
X183.039Y-150.019
X183.674Y-169.069
X183.674Y-188.119
X187.801Y-111.919
X188.436Y-130.969
X192.564Y-169.069
X193.199Y-150.019
X197.326Y-130.969
X197.961Y-111.919
X202.089Y-150.019
X202.724Y-169.069
X206.851Y-111.919
X207.486Y-130.969
X211.614Y-169.069
X212.249Y-150.019
X216.376Y-130.969
X217.011Y-111.919
X221.139Y-150.019
X221.774Y-169.069
X225.901Y-111.919
X226.536Y-130.969
X230.664Y-169.069
X230.664Y-188.119
X231.299Y-150.019
X235.426Y-130.969
X236.061Y-111.919
X240.189Y-150.019
X240.824Y-169.069
X240.824Y-188.119
X244.951Y-111.919
X245.586Y-130.969
X249.714Y-169.069
X250.349Y-150.019
X254.476Y-130.969
X255.111Y-111.919
X259.239Y-150.019
X259.874Y-169.069
X264.001Y-111.919
X264.636Y-130.969
X268.764Y-169.069
X268.764Y-188.119
X269.399Y-150.019
X273.526Y-130.969
X274.161Y-111.919
X278.289Y-150.019
X278.924Y-169.069
X278.924Y-188.119
X283.051Y-111.919
X283.686Y-130.969
X287.814Y-169.069
X287.814Y-188.119
X288.449Y-150.019
X292.576Y-130.969
X293.211Y-111.919
X297.339Y-150.019
X297.974Y-169.069
X297.974Y-188.119
X302.101Y-111.919
X302.736Y-130.969
X306.864Y-188.119
X307.499Y-150.019
X311.626Y-130.969
X312.261Y-111.919
X314.007Y-169.069
X317.024Y-188.119
X321.151Y-111.919
X321.786Y-130.969
X324.167Y-169.069
X328.295Y-150.019
X328.295Y-188.119
X331.311Y-111.919
X335.439Y-130.969
X338.455Y-150.019
X338.455Y-188.119
X340.201Y-111.919
X340.201Y-169.069
X345.599Y-130.969
X350.361Y-111.919
X350.361Y-169.069
T4
X78.581Y-111.919
X80.962Y-169.069
X83.344Y-130.969
X85.725Y-150.019
X90.487Y-188.119
X97.631Y-111.919
X102.394Y-169.069
X107.156Y-130.969
X111.919Y-150.019
X114.3Y-188.119
X116.681Y-111.919
X121.444Y-169.069
X126.206Y-130.969
X130.969Y-150.019
X135.731Y-111.919
X138.112Y-188.119
X140.494Y-169.069
X145.256Y-130.969
X150.019Y-150.019
X154.781Y-111.919
X159.544Y-169.069
X164.306Y-130.969
X169.069Y-150.019
X173.831Y-111.919
X178.594Y-169.069
X178.594Y-188.119
X183.356Y-130.969
X188.119Y-150.019
X192.881Y-111.919
X197.644Y-169.069
X202.406Y-130.969
X207.169Y-150.019
X211.931Y-111.919
X216.694Y-169.069
X221.456Y-130.969
X226.219Y-150.019
X230.981Y-111.919
X235.744Y-169.069
X235.744Y-188.119
X240.506Y-130.969
X245.269Y-150.019
X250.031Y-111.919
X254.794Y-169.069
X259.556Y-130.969
X264.319Y-150.019
X269.081Y-111.919
X273.844Y-169.069
X273.844Y-188.119
X278.606Y-130.969
X283.369Y-150.019
X288.131Y-111.919
X292.894Y-169.069
X292.894Y-188.119
X297.656Y-130.969
X302.419Y-150.019
X307.181Y-111.919
X311.944Y-188.119
X316.706Y-130.969
X319.087Y-169.069
X326.231Y-111.919
X333.375Y-150.019
X333.375Y-188.119
X340.519Y-130.969
X345.281Y-111.919
X345.281Y-169.069
M30
