M48
; DRILL file {KiCad 9.0.1} date 2025-05-13T23:50:43+0900
; FORMAT={-:-/ absolute / metric / decimal}
; #@! TF.CreationDate,2025-05-13T23:50:43+09:00
; #@! TF.GenerationSoftware,Kicad,Pcbnew,9.0.1
; #@! TF.FileFunction,Plated,1,2,PTH
FMAT,2
METRIC
; #@! TA.AperFunction,Plated,PTH,ViaDrill
T1C0.300
; #@! TA.AperFunction,Plated,PTH,ComponentDrill
T2C0.600
; #@! TA.AperFunction,Plated,PTH,ComponentDrill
T3C1.000
; #@! TA.AperFunction,Plated,PTH,ComponentDrill
T4C3.000
%
G90
G05
T1
X71.5Y-134.0
X71.5Y-153.5
X72.75Y-158.0
X73.0Y-135.0
X74.0Y-138.456
X74.0Y-143.75
X75.478Y-134.921
X75.5Y-144.0
X75.625Y-139.375
X77.0Y-133.0
X78.5Y-141.0
X78.537Y-133.463
X80.01Y-137.74
X80.169Y-133.669
X82.0Y-119.5
X84.0Y-138.12
X84.5Y-111.5
X84.906Y-108.906
X85.0Y-118.331
X85.5Y-175.5
X87.5Y-191.9
X87.819Y-137.319
X91.456Y-113.956
X91.625Y-111.375
X91.75Y-109.25
X92.0Y-154.5
X92.5Y-118.331
X95.0Y-175.5
X100.012Y-191.294
X100.171Y-136.171
X101.0Y-138.119
X104.5Y-175.5
X106.5Y-137.319
X111.919Y-191.294
X114.069Y-156.431
X136.525Y-191.294
X138.906Y-191.294
X169.862Y-191.294
X180.181Y-191.294
X185.737Y-192.881
X194.0Y-192.5
X195.125Y-185.375
X198.0Y-174.5
X198.5Y-184.75
X201.0Y-184.75
X202.87Y-191.4
X203.5Y-172.35
X203.5Y-174.5
X203.5Y-184.0
X203.527Y-183.179
X203.909Y-191.59
X204.5Y-174.5
X206.781Y-178.0
X208.0Y-178.0
X209.0Y-177.5
X210.0Y-178.0
X211.137Y-194.655
X211.181Y-177.5
X211.931Y-195.262
X212.281Y-178.0
X212.698Y-195.974
X213.647Y-175.481
X214.312Y-196.001
X218.5Y-175.481
X218.859Y-155.359
X219.355Y-157.5
X220.0Y-178.5
X220.0Y-194.5
X220.0Y-196.0
X243.5Y-174.5
X244.066Y-173.934
X244.631Y-173.369
T3
X206.5Y-162.0
X206.5Y-164.54
X206.5Y-167.08
X206.5Y-169.62
X206.5Y-172.16
T4
X73.501Y-109.379
X76.041Y-115.729
X77.153Y-166.529
X79.534Y-128.429
X81.915Y-147.479
X83.502Y-163.989
X85.884Y-125.889
X86.677Y-185.579
X88.265Y-144.939
X93.027Y-183.039
X98.584Y-166.529
X100.171Y-108.109
X102.711Y-114.459
X103.346Y-128.429
X104.934Y-163.989
X108.109Y-147.479
X109.696Y-125.889
X110.49Y-185.579
X112.871Y-109.379
X114.459Y-144.939
X116.84Y-183.039
X117.634Y-166.529
X119.221Y-106.839
X122.396Y-128.429
X123.984Y-163.989
X127.159Y-147.479
X128.746Y-125.889
X131.921Y-109.379
X133.509Y-144.939
X134.302Y-185.579
X136.684Y-166.529
X138.271Y-106.839
X140.653Y-183.039
X141.446Y-128.429
X143.034Y-163.989
X146.209Y-147.479
X147.796Y-125.889
X150.971Y-109.379
X152.559Y-144.939
X155.734Y-166.529
X157.321Y-106.839
X160.496Y-128.429
X162.084Y-163.989
X165.259Y-147.479
X166.846Y-125.889
X170.021Y-109.379
X171.609Y-144.939
X174.784Y-166.529
X174.784Y-185.579
X176.371Y-106.839
X179.546Y-128.429
X181.134Y-163.989
X181.134Y-183.039
X184.309Y-147.479
X185.896Y-125.889
X189.071Y-109.379
X190.659Y-144.939
X193.834Y-166.529
X195.421Y-106.839
X198.596Y-128.429
X200.184Y-163.989
X203.359Y-147.479
X204.946Y-125.889
X208.121Y-109.379
X209.709Y-144.939
X212.884Y-166.529
X214.471Y-106.839
X217.646Y-128.429
X219.234Y-163.989
X222.409Y-147.479
X223.996Y-125.889
X227.171Y-109.379
X228.759Y-144.939
X231.934Y-166.529
X231.934Y-185.579
X233.521Y-106.839
X236.696Y-128.429
X238.284Y-163.989
X238.284Y-183.039
X241.459Y-147.479
X243.046Y-125.889
X246.221Y-109.379
X247.809Y-144.939
X250.984Y-166.529
X252.571Y-106.839
X255.746Y-128.429
X257.334Y-163.989
X260.509Y-147.479
X262.096Y-125.889
X265.271Y-109.379
X266.859Y-144.939
X270.034Y-166.529
X270.034Y-185.579
X271.621Y-106.839
X274.796Y-128.429
X276.384Y-163.989
X276.384Y-183.039
X279.559Y-147.479
X281.146Y-125.889
X284.321Y-109.379
X285.909Y-144.939
X289.084Y-166.529
X289.084Y-185.579
X290.671Y-106.839
X293.846Y-128.429
X295.434Y-163.989
X295.434Y-183.039
X298.609Y-147.479
X300.196Y-125.889
X303.371Y-109.379
X304.959Y-144.939
X308.134Y-185.579
X309.721Y-106.839
X312.896Y-128.429
X314.484Y-183.039
X315.277Y-166.529
X319.246Y-125.889
X321.627Y-163.989
X322.421Y-109.379
X328.771Y-106.839
X329.565Y-147.479
X329.565Y-185.579
X335.915Y-144.939
X335.915Y-183.039
X336.709Y-128.429
X341.471Y-109.379
X341.471Y-166.529
X343.059Y-125.889
X347.821Y-106.839
X347.821Y-163.989
T2
G00X83.781Y-102.787
M15
G01X83.781Y-103.587
M16
G05
G00X83.781Y-106.807
M15
G01X83.781Y-107.907
M16
G05
G00X92.431Y-102.787
M15
G01X92.431Y-103.587
M16
G05
G00X92.431Y-106.807
M15
G01X92.431Y-107.907
M16
G05
M30
