%TF.GenerationSoftware,KiCad,Pcbnew,9.0.1*%
%TF.CreationDate,2025-05-16T22:45:17+09:00*%
%TF.ProjectId,H360,48333630-2e6b-4696-9361-645f70636258,rev?*%
%TF.SameCoordinates,Original*%
%TF.FileFunction,Paste,Bot*%
%TF.FilePolarity,Positive*%
%FSLAX46Y46*%
G04 Gerber Fmt 4.6, Leading zero omitted, Abs format (unit mm)*
G04 Created by KiCad (PCBNEW 9.0.1) date 2025-05-16 22:45:18*
%MOMM*%
%LPD*%
G01*
G04 APERTURE LIST*
G04 Aperture macros list*
%AMRoundRect*
0 Rectangle with rounded corners*
0 $1 Rounding radius*
0 $2 $3 $4 $5 $6 $7 $8 $9 X,Y pos of 4 corners*
0 Add a 4 corners polygon primitive as box body*
4,1,4,$2,$3,$4,$5,$6,$7,$8,$9,$2,$3,0*
0 Add four circle primitives for the rounded corners*
1,1,$1+$1,$2,$3*
1,1,$1+$1,$4,$5*
1,1,$1+$1,$6,$7*
1,1,$1+$1,$8,$9*
0 Add four rect primitives between the rounded corners*
20,1,$1+$1,$2,$3,$4,$5,0*
20,1,$1+$1,$4,$5,$6,$7,0*
20,1,$1+$1,$6,$7,$8,$9,0*
20,1,$1+$1,$8,$9,$2,$3,0*%
G04 Aperture macros list end*
%ADD10RoundRect,0.225000X0.375000X-0.225000X0.375000X0.225000X-0.375000X0.225000X-0.375000X-0.225000X0*%
%ADD11RoundRect,0.135000X-0.185000X0.135000X-0.185000X-0.135000X0.185000X-0.135000X0.185000X0.135000X0*%
%ADD12RoundRect,0.250000X1.025000X1.000000X-1.025000X1.000000X-1.025000X-1.000000X1.025000X-1.000000X0*%
%ADD13RoundRect,0.250000X-1.000000X1.025000X-1.000000X-1.025000X1.000000X-1.025000X1.000000X1.025000X0*%
%ADD14R,0.700000X1.524000*%
%ADD15R,1.524000X0.700000*%
%ADD16RoundRect,0.150000X-0.512500X-0.150000X0.512500X-0.150000X0.512500X0.150000X-0.512500X0.150000X0*%
%ADD17R,1.000000X0.750000*%
%ADD18RoundRect,0.250000X-0.312500X-1.450000X0.312500X-1.450000X0.312500X1.450000X-0.312500X1.450000X0*%
%ADD19RoundRect,0.250000X0.650000X-0.325000X0.650000X0.325000X-0.650000X0.325000X-0.650000X-0.325000X0*%
%ADD20R,0.600000X1.140000*%
%ADD21R,0.300000X1.140000*%
%ADD22RoundRect,0.250000X1.000000X-0.375000X1.000000X0.375000X-1.000000X0.375000X-1.000000X-0.375000X0*%
%ADD23RoundRect,0.150000X0.512500X0.150000X-0.512500X0.150000X-0.512500X-0.150000X0.512500X-0.150000X0*%
%ADD24RoundRect,0.200000X-0.275000X0.200000X-0.275000X-0.200000X0.275000X-0.200000X0.275000X0.200000X0*%
%ADD25RoundRect,0.147500X-0.147500X-0.172500X0.147500X-0.172500X0.147500X0.172500X-0.147500X0.172500X0*%
%ADD26RoundRect,0.250000X1.000000X-1.025000X1.000000X1.025000X-1.000000X1.025000X-1.000000X-1.025000X0*%
%ADD27RoundRect,0.225000X0.225000X0.375000X-0.225000X0.375000X-0.225000X-0.375000X0.225000X-0.375000X0*%
%ADD28RoundRect,0.225000X-0.250000X0.225000X-0.250000X-0.225000X0.250000X-0.225000X0.250000X0.225000X0*%
%ADD29RoundRect,0.140000X0.170000X-0.140000X0.170000X0.140000X-0.170000X0.140000X-0.170000X-0.140000X0*%
%ADD30RoundRect,0.135000X0.185000X-0.135000X0.185000X0.135000X-0.185000X0.135000X-0.185000X-0.135000X0*%
%ADD31RoundRect,0.225000X0.225000X0.250000X-0.225000X0.250000X-0.225000X-0.250000X0.225000X-0.250000X0*%
%ADD32RoundRect,0.160000X-0.160000X-0.160000X0.160000X-0.160000X0.160000X0.160000X-0.160000X0.160000X0*%
%ADD33RoundRect,0.062500X-0.375000X-0.062500X0.375000X-0.062500X0.375000X0.062500X-0.375000X0.062500X0*%
%ADD34RoundRect,0.062500X-0.062500X-0.375000X0.062500X-0.375000X0.062500X0.375000X-0.062500X0.375000X0*%
%ADD35RoundRect,0.135000X0.135000X0.185000X-0.135000X0.185000X-0.135000X-0.185000X0.135000X-0.185000X0*%
%ADD36RoundRect,0.150000X0.150000X-0.587500X0.150000X0.587500X-0.150000X0.587500X-0.150000X-0.587500X0*%
%ADD37RoundRect,0.250000X-1.500000X0.250000X-1.500000X-0.250000X1.500000X-0.250000X1.500000X0.250000X0*%
%ADD38RoundRect,0.250001X-1.449999X0.499999X-1.449999X-0.499999X1.449999X-0.499999X1.449999X0.499999X0*%
G04 APERTURE END LIST*
D10*
%TO.C,D49*%
X162718750Y-175481250D03*
X162718750Y-172181250D03*
%TD*%
D11*
%TO.C,R7*%
X75000000Y-136490000D03*
X75000000Y-137510000D03*
%TD*%
D10*
%TO.C,D60*%
X117475000Y-194531250D03*
X117475000Y-191231250D03*
%TD*%
D12*
%TO.C,MX21*%
X175996250Y-128428750D03*
X189446250Y-125888750D03*
%TD*%
D10*
%TO.C,D45*%
X84137500Y-175481250D03*
X84137500Y-172181250D03*
%TD*%
%TO.C,D42*%
X286543750Y-156431250D03*
X286543750Y-153131250D03*
%TD*%
D12*
%TO.C,MX61*%
X228383750Y-185578750D03*
X241833750Y-183038750D03*
%TD*%
%TO.C,MX9*%
X223621250Y-109378750D03*
X237071250Y-106838750D03*
%TD*%
D10*
%TO.C,D6*%
X138906250Y-118331250D03*
X138906250Y-115031250D03*
%TD*%
D12*
%TO.C,MX5*%
X147421250Y-109378750D03*
X160871250Y-106838750D03*
%TD*%
D10*
%TO.C,D5*%
X119856250Y-118268750D03*
X119856250Y-114968750D03*
%TD*%
D12*
%TO.C,MX26*%
X271246250Y-128428750D03*
X284696250Y-125888750D03*
%TD*%
D13*
%TO.C,MX1*%
X76041250Y-119278750D03*
X73501250Y-105828750D03*
%TD*%
D12*
%TO.C,MX10*%
X242671250Y-109378750D03*
X256121250Y-106838750D03*
%TD*%
%TO.C,MX19*%
X137896250Y-128428750D03*
X151346250Y-125888750D03*
%TD*%
D10*
%TO.C,D47*%
X124618750Y-175481250D03*
X124618750Y-172181250D03*
%TD*%
%TO.C,D19*%
X110331250Y-137318750D03*
X110331250Y-134018750D03*
%TD*%
%TO.C,D55*%
X277018750Y-175481250D03*
X277018750Y-172181250D03*
%TD*%
D14*
%TO.C,U3*%
X219981000Y-193250000D03*
X218881000Y-193250000D03*
X217781000Y-193250000D03*
X216681000Y-193250000D03*
X215581000Y-193250000D03*
X214481000Y-193250000D03*
X213381000Y-193250000D03*
X212281000Y-193250000D03*
X211181000Y-193250000D03*
X210081000Y-193250000D03*
X208981000Y-193250000D03*
X207881000Y-193250000D03*
X206781000Y-193250000D03*
D15*
X205281000Y-192000000D03*
X205281000Y-190900000D03*
X205281000Y-189800000D03*
X205281000Y-188700000D03*
X205281000Y-187600000D03*
X205281000Y-186500000D03*
X205281000Y-185400000D03*
X205281000Y-184300000D03*
X205281000Y-183200000D03*
X205281000Y-182100000D03*
X205281000Y-181000000D03*
D14*
X206781000Y-179750000D03*
X207881000Y-179750000D03*
X208981000Y-179750000D03*
X210081000Y-179750000D03*
X211181000Y-179750000D03*
X212281000Y-179750000D03*
X213381000Y-179750000D03*
X214481000Y-179750000D03*
X215581000Y-179750000D03*
X216681000Y-179750000D03*
X217781000Y-179750000D03*
X218881000Y-179750000D03*
X219981000Y-179750000D03*
X217781000Y-190750000D03*
X216681000Y-190750000D03*
X215581000Y-190750000D03*
X214481000Y-190750000D03*
X213381000Y-190750000D03*
X212281000Y-190750000D03*
X211181000Y-190750000D03*
X210081000Y-190750000D03*
X208981000Y-190750000D03*
X217781000Y-182250000D03*
X216681000Y-182250000D03*
X215581000Y-182250000D03*
X214481000Y-182250000D03*
X213381000Y-182250000D03*
X212281000Y-182250000D03*
X211181000Y-182250000D03*
X210081000Y-182250000D03*
X208981000Y-182250000D03*
%TD*%
D12*
%TO.C,MX45*%
X114083750Y-166528750D03*
X127533750Y-163988750D03*
%TD*%
D16*
%TO.C,U1*%
X87042500Y-111950000D03*
X87042500Y-111000000D03*
X87042500Y-110050000D03*
X89317500Y-110050000D03*
X89317500Y-111000000D03*
X89317500Y-111950000D03*
%TD*%
D12*
%TO.C,MX63*%
X285533750Y-185578750D03*
X298983750Y-183038750D03*
%TD*%
D10*
%TO.C,D14*%
X291306250Y-118331250D03*
X291306250Y-115031250D03*
%TD*%
%TO.C,D24*%
X205581250Y-137381250D03*
X205581250Y-134081250D03*
%TD*%
D12*
%TO.C,MX35*%
X180758750Y-147478750D03*
X194208750Y-144938750D03*
%TD*%
%TO.C,MX16*%
X75983750Y-128428750D03*
X89433750Y-125888750D03*
%TD*%
%TO.C,MX53*%
X266483750Y-166528750D03*
X279933750Y-163988750D03*
%TD*%
D17*
%TO.C,SW3*%
X194000000Y-187537500D03*
X188000000Y-187537500D03*
X194000000Y-191287500D03*
X188000000Y-191287500D03*
%TD*%
D12*
%TO.C,MX30*%
X78365000Y-147478750D03*
X91815000Y-144938750D03*
%TD*%
D10*
%TO.C,D38*%
X210343750Y-156431250D03*
X210343750Y-153131250D03*
%TD*%
D18*
%TO.C,F1*%
X86042500Y-115093750D03*
X90317500Y-115093750D03*
%TD*%
D10*
%TO.C,D36*%
X172243750Y-156431250D03*
X172243750Y-153131250D03*
%TD*%
D12*
%TO.C,MX23*%
X214096250Y-128428750D03*
X227546250Y-125888750D03*
%TD*%
%TO.C,MX11*%
X261721250Y-109378750D03*
X275171250Y-106838750D03*
%TD*%
D10*
%TO.C,D3*%
X81756250Y-108806250D03*
X81756250Y-105506250D03*
%TD*%
D19*
%TO.C,C7*%
X201000000Y-189200000D03*
X201000000Y-186250000D03*
%TD*%
D12*
%TO.C,MX46*%
X133133750Y-166528750D03*
X146583750Y-163988750D03*
%TD*%
D10*
%TO.C,D11*%
X234156250Y-118331250D03*
X234156250Y-115031250D03*
%TD*%
%TO.C,D23*%
X186531250Y-137381250D03*
X186531250Y-134081250D03*
%TD*%
%TO.C,D12*%
X253206250Y-118331250D03*
X253206250Y-115031250D03*
%TD*%
D12*
%TO.C,MX18*%
X118846250Y-128428750D03*
X132296250Y-125888750D03*
%TD*%
%TO.C,MX49*%
X190283750Y-166528750D03*
X203733750Y-163988750D03*
%TD*%
D20*
%TO.C,J1*%
X84906250Y-107937500D03*
X85706250Y-107937500D03*
D21*
X86856250Y-107937500D03*
X87856250Y-107937500D03*
X88356250Y-107937500D03*
X89356250Y-107937500D03*
D20*
X91306250Y-107937500D03*
X90506250Y-107937500D03*
D21*
X89856250Y-107937500D03*
X88856250Y-107937500D03*
X87356250Y-107937500D03*
X86356250Y-107937500D03*
%TD*%
D10*
%TO.C,D27*%
X262731250Y-137381250D03*
X262731250Y-134081250D03*
%TD*%
D17*
%TO.C,SW2*%
X194000000Y-181625000D03*
X188000000Y-181625000D03*
X194000000Y-185375000D03*
X188000000Y-185375000D03*
%TD*%
D10*
%TO.C,D17*%
X348456250Y-118393750D03*
X348456250Y-115093750D03*
%TD*%
D12*
%TO.C,MX22*%
X195046250Y-128428750D03*
X208496250Y-125888750D03*
%TD*%
D10*
%TO.C,D29*%
X300831250Y-137381250D03*
X300831250Y-134081250D03*
%TD*%
%TO.C,D18*%
X86518750Y-137318750D03*
X86518750Y-134018750D03*
%TD*%
%TO.C,D62*%
X181768750Y-194531250D03*
X181768750Y-191231250D03*
%TD*%
D22*
%TO.C,SW1*%
X73250000Y-145000000D03*
X73250000Y-142500000D03*
X73250000Y-140000000D03*
%TD*%
D10*
%TO.C,D48*%
X143668750Y-175481250D03*
X143668750Y-172181250D03*
%TD*%
D12*
%TO.C,MX29*%
X333158750Y-128428750D03*
X346608750Y-125888750D03*
%TD*%
D10*
%TO.C,D39*%
X229393750Y-156431250D03*
X229393750Y-153131250D03*
%TD*%
D12*
%TO.C,MX39*%
X256958750Y-147478750D03*
X270408750Y-144938750D03*
%TD*%
%TO.C,MX4*%
X128371250Y-109378750D03*
X141821250Y-106838750D03*
%TD*%
%TO.C,MX55*%
X311727500Y-166528750D03*
X325177500Y-163988750D03*
%TD*%
%TO.C,MX56*%
X337921250Y-166528750D03*
X351371250Y-163988750D03*
%TD*%
D10*
%TO.C,D53*%
X238918750Y-175543750D03*
X238918750Y-172243750D03*
%TD*%
D23*
%TO.C,U4*%
X200500000Y-190981250D03*
X200500000Y-192881250D03*
X198225000Y-191931250D03*
%TD*%
D10*
%TO.C,D37*%
X191293750Y-156431250D03*
X191293750Y-153131250D03*
%TD*%
D12*
%TO.C,MX33*%
X142658750Y-147478750D03*
X156108750Y-144938750D03*
%TD*%
D24*
%TO.C,R3*%
X76750000Y-138675000D03*
X76750000Y-140325000D03*
%TD*%
D25*
%TO.C,L1*%
X84162500Y-112500000D03*
X85132500Y-112500000D03*
%TD*%
D12*
%TO.C,MX43*%
X73602500Y-166528750D03*
X87052500Y-163988750D03*
%TD*%
%TO.C,MX41*%
X295058750Y-147478750D03*
X308508750Y-144938750D03*
%TD*%
D10*
%TO.C,D35*%
X153193750Y-156431250D03*
X153193750Y-153131250D03*
%TD*%
D11*
%TO.C,R6*%
X78500000Y-138990000D03*
X78500000Y-140010000D03*
%TD*%
D10*
%TO.C,D28*%
X281781250Y-137381250D03*
X281781250Y-134081250D03*
%TD*%
%TO.C,D57*%
X348456250Y-175481250D03*
X348456250Y-172181250D03*
%TD*%
D12*
%TO.C,MX27*%
X290296250Y-128428750D03*
X303746250Y-125888750D03*
%TD*%
%TO.C,MX64*%
X304583750Y-185578750D03*
X318033750Y-183038750D03*
%TD*%
%TO.C,MX28*%
X309346250Y-128428750D03*
X322796250Y-125888750D03*
%TD*%
%TO.C,MX50*%
X209333750Y-166528750D03*
X222783750Y-163988750D03*
%TD*%
D10*
%TO.C,D46*%
X105568750Y-175481250D03*
X105568750Y-172181250D03*
%TD*%
%TO.C,D31*%
X343693750Y-137381250D03*
X343693750Y-134081250D03*
%TD*%
D12*
%TO.C,MX48*%
X171233750Y-166528750D03*
X184683750Y-163988750D03*
%TD*%
%TO.C,MX44*%
X95033750Y-166528750D03*
X108483750Y-163988750D03*
%TD*%
%TO.C,MX34*%
X161708750Y-147478750D03*
X175158750Y-144938750D03*
%TD*%
D26*
%TO.C,MX2*%
X100171250Y-104558750D03*
X102711250Y-118008750D03*
%TD*%
D10*
%TO.C,D7*%
X157956250Y-118268750D03*
X157956250Y-114968750D03*
%TD*%
%TO.C,D9*%
X196056250Y-118331250D03*
X196056250Y-115031250D03*
%TD*%
D12*
%TO.C,MX38*%
X237908750Y-147478750D03*
X251358750Y-144938750D03*
%TD*%
%TO.C,MX24*%
X233146250Y-128428750D03*
X246596250Y-125888750D03*
%TD*%
%TO.C,MX13*%
X299821250Y-109378750D03*
X313271250Y-106838750D03*
%TD*%
%TO.C,MX3*%
X109321250Y-109378750D03*
X122771250Y-106838750D03*
%TD*%
%TO.C,MX36*%
X199808750Y-147478750D03*
X213258750Y-144938750D03*
%TD*%
%TO.C,MX31*%
X104558750Y-147478750D03*
X118008750Y-144938750D03*
%TD*%
D10*
%TO.C,D54*%
X257968750Y-175481250D03*
X257968750Y-172181250D03*
%TD*%
D27*
%TO.C,D32*%
X92150000Y-152500000D03*
X88850000Y-152500000D03*
%TD*%
D10*
%TO.C,D40*%
X248443750Y-156431250D03*
X248443750Y-153131250D03*
%TD*%
%TO.C,D58*%
X322262500Y-175481250D03*
X322262500Y-172181250D03*
%TD*%
D12*
%TO.C,MX58*%
X106940000Y-185578750D03*
X120390000Y-183038750D03*
%TD*%
D10*
%TO.C,D56*%
X296068750Y-175481250D03*
X296068750Y-172181250D03*
%TD*%
%TO.C,D67*%
X336550000Y-194531250D03*
X336550000Y-191231250D03*
%TD*%
D11*
%TO.C,R4*%
X81000000Y-136740000D03*
X81000000Y-137760000D03*
%TD*%
D10*
%TO.C,D34*%
X134143750Y-156431250D03*
X134143750Y-153131250D03*
%TD*%
%TO.C,D20*%
X129381250Y-137381250D03*
X129381250Y-134081250D03*
%TD*%
D28*
%TO.C,C3*%
X74500000Y-132725000D03*
X74500000Y-134275000D03*
%TD*%
D10*
%TO.C,D43*%
X305593750Y-156431250D03*
X305593750Y-153131250D03*
%TD*%
D12*
%TO.C,MX20*%
X156946250Y-128428750D03*
X170396250Y-125888750D03*
%TD*%
D10*
%TO.C,D65*%
X296068750Y-194531250D03*
X296068750Y-191231250D03*
%TD*%
D29*
%TO.C,C8*%
X202000000Y-191980000D03*
X202000000Y-191020000D03*
%TD*%
D12*
%TO.C,MX14*%
X318871250Y-109378750D03*
X332321250Y-106838750D03*
%TD*%
D10*
%TO.C,D13*%
X272256250Y-118331250D03*
X272256250Y-115031250D03*
%TD*%
D12*
%TO.C,MX62*%
X266483750Y-185578750D03*
X279933750Y-183038750D03*
%TD*%
D10*
%TO.C,D8*%
X177006250Y-118268750D03*
X177006250Y-114968750D03*
%TD*%
%TO.C,D26*%
X243681250Y-137381250D03*
X243681250Y-134081250D03*
%TD*%
%TO.C,D21*%
X148431250Y-137381250D03*
X148431250Y-134081250D03*
%TD*%
D12*
%TO.C,MX17*%
X99796250Y-128428750D03*
X113246250Y-125888750D03*
%TD*%
D10*
%TO.C,D44*%
X336550000Y-156431250D03*
X336550000Y-153131250D03*
%TD*%
%TO.C,D30*%
X319881250Y-137381250D03*
X319881250Y-134081250D03*
%TD*%
%TO.C,D16*%
X329406250Y-118331250D03*
X329406250Y-115031250D03*
%TD*%
D30*
%TO.C,R5*%
X203500000Y-189520000D03*
X203500000Y-188500000D03*
%TD*%
D12*
%TO.C,MX60*%
X171233750Y-185578750D03*
X184683750Y-183038750D03*
%TD*%
D10*
%TO.C,D52*%
X219868750Y-175481250D03*
X219868750Y-172181250D03*
%TD*%
D12*
%TO.C,MX51*%
X228383750Y-166528750D03*
X241833750Y-163988750D03*
%TD*%
D10*
%TO.C,D50*%
X181768750Y-175481250D03*
X181768750Y-172181250D03*
%TD*%
%TO.C,D61*%
X141287500Y-194531250D03*
X141287500Y-191231250D03*
%TD*%
D12*
%TO.C,MX8*%
X204571250Y-109378750D03*
X218021250Y-106838750D03*
%TD*%
D10*
%TO.C,D33*%
X115093750Y-156431250D03*
X115093750Y-153131250D03*
%TD*%
%TO.C,D63*%
X238918750Y-194531250D03*
X238918750Y-191231250D03*
%TD*%
D12*
%TO.C,MX42*%
X326015000Y-147478750D03*
X339465000Y-144938750D03*
%TD*%
D10*
%TO.C,D10*%
X215106250Y-118268750D03*
X215106250Y-114968750D03*
%TD*%
D12*
%TO.C,MX32*%
X123608750Y-147478750D03*
X137058750Y-144938750D03*
%TD*%
D10*
%TO.C,D51*%
X200818750Y-175481250D03*
X200818750Y-172181250D03*
%TD*%
D12*
%TO.C,MX25*%
X252196250Y-128428750D03*
X265646250Y-125888750D03*
%TD*%
%TO.C,MX15*%
X337921250Y-109378750D03*
X351371250Y-106838750D03*
%TD*%
%TO.C,MX52*%
X247433750Y-166528750D03*
X260883750Y-163988750D03*
%TD*%
%TO.C,MX37*%
X218858750Y-147478750D03*
X232308750Y-144938750D03*
%TD*%
%TO.C,MX47*%
X152183750Y-166528750D03*
X165633750Y-163988750D03*
%TD*%
%TO.C,MX6*%
X166471250Y-109378750D03*
X179921250Y-106838750D03*
%TD*%
D31*
%TO.C,C4*%
X72775000Y-136500000D03*
X71225000Y-136500000D03*
%TD*%
D28*
%TO.C,C5*%
X81000000Y-133950000D03*
X81000000Y-135500000D03*
%TD*%
D32*
%TO.C,U5*%
X77387500Y-135350000D03*
X77387500Y-136150000D03*
X78187500Y-135350000D03*
X78187500Y-136150000D03*
D33*
X76350000Y-136500000D03*
X76350000Y-136000000D03*
X76350000Y-135500000D03*
X76350000Y-135000000D03*
D34*
X77037500Y-134312500D03*
X77537500Y-134312500D03*
X78037500Y-134312500D03*
X78537500Y-134312500D03*
D33*
X79225000Y-135000000D03*
X79225000Y-135500000D03*
X79225000Y-136000000D03*
X79225000Y-136500000D03*
D34*
X78537500Y-137187500D03*
X78037500Y-137187500D03*
X77537500Y-137187500D03*
X77037500Y-137187500D03*
%TD*%
D12*
%TO.C,MX7*%
X185521250Y-109378750D03*
X198971250Y-106838750D03*
%TD*%
D10*
%TO.C,D66*%
X315118750Y-194593750D03*
X315118750Y-191293750D03*
%TD*%
D30*
%TO.C,R9*%
X80000000Y-142510000D03*
X80000000Y-141490000D03*
%TD*%
D35*
%TO.C,R2*%
X85157500Y-110331250D03*
X84137500Y-110331250D03*
%TD*%
D36*
%TO.C,Q1*%
X78500000Y-144000000D03*
X76600000Y-144000000D03*
X77550000Y-142125000D03*
%TD*%
D11*
%TO.C,R10*%
X81000000Y-141500000D03*
X81000000Y-142520000D03*
%TD*%
%TO.C,R8*%
X74000000Y-136500000D03*
X74000000Y-137520000D03*
%TD*%
D12*
%TO.C,MX54*%
X285533750Y-166528750D03*
X298983750Y-163988750D03*
%TD*%
D10*
%TO.C,D64*%
X277018750Y-194531250D03*
X277018750Y-191231250D03*
%TD*%
%TO.C,D59*%
X93662500Y-194531250D03*
X93662500Y-191231250D03*
%TD*%
D19*
%TO.C,C6*%
X198500000Y-189200000D03*
X198500000Y-186250000D03*
%TD*%
D37*
%TO.C,J2*%
X75150000Y-156000000D03*
X75150000Y-158000000D03*
D38*
X80900000Y-153650000D03*
X80900000Y-160350000D03*
%TD*%
D12*
%TO.C,MX65*%
X326015000Y-185578750D03*
X339465000Y-183038750D03*
%TD*%
D10*
%TO.C,D4*%
X94456250Y-118331250D03*
X94456250Y-115031250D03*
%TD*%
%TO.C,D41*%
X267493750Y-156431250D03*
X267493750Y-153131250D03*
%TD*%
D12*
%TO.C,MX40*%
X276008750Y-147478750D03*
X289458750Y-144938750D03*
%TD*%
%TO.C,MX12*%
X280771250Y-109378750D03*
X294221250Y-106838750D03*
%TD*%
D35*
%TO.C,R1*%
X92075000Y-110331250D03*
X91055000Y-110331250D03*
%TD*%
D12*
%TO.C,MX59*%
X130752500Y-185578750D03*
X144202500Y-183038750D03*
%TD*%
D10*
%TO.C,D25*%
X224631250Y-137381250D03*
X224631250Y-134081250D03*
%TD*%
%TO.C,D15*%
X310356250Y-118331250D03*
X310356250Y-115031250D03*
%TD*%
%TO.C,D22*%
X167481250Y-137381250D03*
X167481250Y-134081250D03*
%TD*%
D12*
%TO.C,MX57*%
X83127500Y-185578750D03*
X96577500Y-183038750D03*
%TD*%
M02*
