%TF.GenerationSoftware,KiCad,Pcbnew,9.0.1*%
%TF.CreationDate,2025-05-13T23:50:47+09:00*%
%TF.ProjectId,H360,48333630-2e6b-4696-9361-645f70636258,rev?*%
%TF.SameCoordinates,Original*%
%TF.FileFunction,Soldermask,Bot*%
%TF.FilePolarity,Negative*%
%FSLAX46Y46*%
G04 Gerber Fmt 4.6, Leading zero omitted, Abs format (unit mm)*
G04 Created by KiCad (PCBNEW 9.0.1) date 2025-05-13 23:50:47*
%MOMM*%
%LPD*%
G01*
G04 APERTURE LIST*
G04 Aperture macros list*
%AMRoundRect*
0 Rectangle with rounded corners*
0 $1 Rounding radius*
0 $2 $3 $4 $5 $6 $7 $8 $9 X,Y pos of 4 corners*
0 Add a 4 corners polygon primitive as box body*
4,1,4,$2,$3,$4,$5,$6,$7,$8,$9,$2,$3,0*
0 Add four circle primitives for the rounded corners*
1,1,$1+$1,$2,$3*
1,1,$1+$1,$4,$5*
1,1,$1+$1,$6,$7*
1,1,$1+$1,$8,$9*
0 Add four rect primitives between the rounded corners*
20,1,$1+$1,$2,$3,$4,$5,0*
20,1,$1+$1,$4,$5,$6,$7,0*
20,1,$1+$1,$6,$7,$8,$9,0*
20,1,$1+$1,$8,$9,$2,$3,0*%
G04 Aperture macros list end*
%ADD10C,0.010000*%
%ADD11RoundRect,0.200000X-0.275000X0.200000X-0.275000X-0.200000X0.275000X-0.200000X0.275000X0.200000X0*%
%ADD12RoundRect,0.250000X0.650000X-0.325000X0.650000X0.325000X-0.650000X0.325000X-0.650000X-0.325000X0*%
%ADD13RoundRect,0.225000X-0.250000X0.225000X-0.250000X-0.225000X0.250000X-0.225000X0.250000X0.225000X0*%
%ADD14RoundRect,0.225000X0.225000X0.250000X-0.225000X0.250000X-0.225000X-0.250000X0.225000X-0.250000X0*%
%ADD15R,1.700000X1.700000*%
%ADD16C,1.700000*%
%ADD17RoundRect,0.225000X0.375000X-0.225000X0.375000X0.225000X-0.375000X0.225000X-0.375000X-0.225000X0*%
%ADD18RoundRect,0.135000X-0.185000X0.135000X-0.185000X-0.135000X0.185000X-0.135000X0.185000X0.135000X0*%
%ADD19C,1.750000*%
%ADD20C,3.987800*%
%ADD21C,3.300000*%
%ADD22RoundRect,0.250000X1.025000X1.000000X-1.025000X1.000000X-1.025000X-1.000000X1.025000X-1.000000X0*%
%ADD23RoundRect,0.250000X-1.000000X1.025000X-1.000000X-1.025000X1.000000X-1.025000X1.000000X1.025000X0*%
%ADD24R,0.700000X1.524000*%
%ADD25R,1.524000X0.700000*%
%ADD26RoundRect,0.150000X-0.512500X-0.150000X0.512500X-0.150000X0.512500X0.150000X-0.512500X0.150000X0*%
%ADD27R,1.000000X0.750000*%
%ADD28RoundRect,0.250000X-0.312500X-1.450000X0.312500X-1.450000X0.312500X1.450000X-0.312500X1.450000X0*%
%ADD29C,0.600000*%
%ADD30O,1.104000X2.204000*%
%ADD31O,1.104000X1.904000*%
%ADD32C,0.900000*%
%ADD33RoundRect,0.250000X1.000000X-0.375000X1.000000X0.375000X-1.000000X0.375000X-1.000000X-0.375000X0*%
%ADD34RoundRect,0.150000X0.512500X0.150000X-0.512500X0.150000X-0.512500X-0.150000X0.512500X-0.150000X0*%
%ADD35RoundRect,0.147500X-0.147500X-0.172500X0.147500X-0.172500X0.147500X0.172500X-0.147500X0.172500X0*%
%ADD36RoundRect,0.250000X1.000000X-1.025000X1.000000X1.025000X-1.000000X1.025000X-1.000000X-1.025000X0*%
%ADD37RoundRect,0.225000X0.225000X0.375000X-0.225000X0.375000X-0.225000X-0.375000X0.225000X-0.375000X0*%
%ADD38RoundRect,0.140000X0.170000X-0.140000X0.170000X0.140000X-0.170000X0.140000X-0.170000X-0.140000X0*%
%ADD39RoundRect,0.135000X0.185000X-0.135000X0.185000X0.135000X-0.185000X0.135000X-0.185000X-0.135000X0*%
%ADD40RoundRect,0.062500X-0.375000X-0.062500X0.375000X-0.062500X0.375000X0.062500X-0.375000X0.062500X0*%
%ADD41RoundRect,0.062500X-0.062500X-0.375000X0.062500X-0.375000X0.062500X0.375000X-0.062500X0.375000X0*%
%ADD42R,1.600000X1.600000*%
%ADD43RoundRect,0.135000X0.135000X0.185000X-0.135000X0.185000X-0.135000X-0.185000X0.135000X-0.185000X0*%
%ADD44RoundRect,0.150000X0.150000X-0.587500X0.150000X0.587500X-0.150000X0.587500X-0.150000X-0.587500X0*%
%ADD45RoundRect,0.250000X-1.500000X0.250000X-1.500000X-0.250000X1.500000X-0.250000X1.500000X0.250000X0*%
%ADD46RoundRect,0.250001X-1.449999X0.499999X-1.449999X-0.499999X1.449999X-0.499999X1.449999X0.499999X0*%
G04 APERTURE END LIST*
D10*
%TO.C,J1*%
X85256250Y-108557500D02*
X84556250Y-108557500D01*
X84556250Y-107317500D01*
X85256250Y-107317500D01*
X85256250Y-108557500D01*
G36*
X85256250Y-108557500D02*
G01*
X84556250Y-108557500D01*
X84556250Y-107317500D01*
X85256250Y-107317500D01*
X85256250Y-108557500D01*
G37*
X86056250Y-108557500D02*
X85356250Y-108557500D01*
X85356250Y-107317500D01*
X86056250Y-107317500D01*
X86056250Y-108557500D01*
G36*
X86056250Y-108557500D02*
G01*
X85356250Y-108557500D01*
X85356250Y-107317500D01*
X86056250Y-107317500D01*
X86056250Y-108557500D01*
G37*
X86556250Y-108557500D02*
X86156250Y-108557500D01*
X86156250Y-107317500D01*
X86556250Y-107317500D01*
X86556250Y-108557500D01*
G36*
X86556250Y-108557500D02*
G01*
X86156250Y-108557500D01*
X86156250Y-107317500D01*
X86556250Y-107317500D01*
X86556250Y-108557500D01*
G37*
X87056250Y-108557500D02*
X86656250Y-108557500D01*
X86656250Y-107317500D01*
X87056250Y-107317500D01*
X87056250Y-108557500D01*
G36*
X87056250Y-108557500D02*
G01*
X86656250Y-108557500D01*
X86656250Y-107317500D01*
X87056250Y-107317500D01*
X87056250Y-108557500D01*
G37*
X87556250Y-108557500D02*
X87156250Y-108557500D01*
X87156250Y-107317500D01*
X87556250Y-107317500D01*
X87556250Y-108557500D01*
G36*
X87556250Y-108557500D02*
G01*
X87156250Y-108557500D01*
X87156250Y-107317500D01*
X87556250Y-107317500D01*
X87556250Y-108557500D01*
G37*
X88056250Y-108557500D02*
X87656250Y-108557500D01*
X87656250Y-107317500D01*
X88056250Y-107317500D01*
X88056250Y-108557500D01*
G36*
X88056250Y-108557500D02*
G01*
X87656250Y-108557500D01*
X87656250Y-107317500D01*
X88056250Y-107317500D01*
X88056250Y-108557500D01*
G37*
X88556250Y-108557500D02*
X88156250Y-108557500D01*
X88156250Y-107317500D01*
X88556250Y-107317500D01*
X88556250Y-108557500D01*
G36*
X88556250Y-108557500D02*
G01*
X88156250Y-108557500D01*
X88156250Y-107317500D01*
X88556250Y-107317500D01*
X88556250Y-108557500D01*
G37*
X89056250Y-108557500D02*
X88656250Y-108557500D01*
X88656250Y-107317500D01*
X89056250Y-107317500D01*
X89056250Y-108557500D01*
G36*
X89056250Y-108557500D02*
G01*
X88656250Y-108557500D01*
X88656250Y-107317500D01*
X89056250Y-107317500D01*
X89056250Y-108557500D01*
G37*
X89556250Y-108557500D02*
X89156250Y-108557500D01*
X89156250Y-107317500D01*
X89556250Y-107317500D01*
X89556250Y-108557500D01*
G36*
X89556250Y-108557500D02*
G01*
X89156250Y-108557500D01*
X89156250Y-107317500D01*
X89556250Y-107317500D01*
X89556250Y-108557500D01*
G37*
X90056250Y-108557500D02*
X89656250Y-108557500D01*
X89656250Y-107317500D01*
X90056250Y-107317500D01*
X90056250Y-108557500D01*
G36*
X90056250Y-108557500D02*
G01*
X89656250Y-108557500D01*
X89656250Y-107317500D01*
X90056250Y-107317500D01*
X90056250Y-108557500D01*
G37*
X90856250Y-108557500D02*
X90156250Y-108557500D01*
X90156250Y-107317500D01*
X90856250Y-107317500D01*
X90856250Y-108557500D01*
G36*
X90856250Y-108557500D02*
G01*
X90156250Y-108557500D01*
X90156250Y-107317500D01*
X90856250Y-107317500D01*
X90856250Y-108557500D01*
G37*
X91656250Y-108557500D02*
X90956250Y-108557500D01*
X90956250Y-107317500D01*
X91656250Y-107317500D01*
X91656250Y-108557500D01*
G36*
X91656250Y-108557500D02*
G01*
X90956250Y-108557500D01*
X90956250Y-107317500D01*
X91656250Y-107317500D01*
X91656250Y-108557500D01*
G37*
%TD*%
D11*
%TO.C,R3*%
X76750000Y-138675000D03*
X76750000Y-140325000D03*
%TD*%
D12*
%TO.C,C7*%
X201000000Y-189200000D03*
X201000000Y-186250000D03*
%TD*%
%TO.C,C6*%
X198500000Y-189200000D03*
X198500000Y-186250000D03*
%TD*%
D13*
%TO.C,C5*%
X81000000Y-133950000D03*
X81000000Y-135500000D03*
%TD*%
D14*
%TO.C,C4*%
X72775000Y-136500000D03*
X71225000Y-136500000D03*
%TD*%
D13*
%TO.C,C3*%
X74500000Y-132725000D03*
X74500000Y-134275000D03*
%TD*%
D15*
%TO.C,REF\u002A\u002A*%
X206500000Y-162000000D03*
D16*
X206500000Y-164540000D03*
X206500000Y-167080000D03*
X206500000Y-169620000D03*
X206500000Y-172160000D03*
%TD*%
D17*
%TO.C,D49*%
X162718750Y-175481250D03*
X162718750Y-172181250D03*
%TD*%
D18*
%TO.C,R7*%
X75000000Y-136490000D03*
X75000000Y-137510000D03*
%TD*%
D17*
%TO.C,D60*%
X117475000Y-194531250D03*
X117475000Y-191231250D03*
%TD*%
D19*
%TO.C,MX21*%
X188436250Y-130968750D03*
D20*
X183356250Y-130968750D03*
D19*
X178276250Y-130968750D03*
D21*
X179546250Y-128428750D03*
D22*
X175996250Y-128428750D03*
X189446250Y-125888750D03*
D21*
X185896250Y-125888750D03*
%TD*%
D17*
%TO.C,D45*%
X84137500Y-175481250D03*
X84137500Y-172181250D03*
%TD*%
%TO.C,D42*%
X286543750Y-156431250D03*
X286543750Y-153131250D03*
%TD*%
D19*
%TO.C,MX61*%
X240823750Y-188118750D03*
D20*
X235743750Y-188118750D03*
D19*
X230663750Y-188118750D03*
D21*
X231933750Y-185578750D03*
D22*
X228383750Y-185578750D03*
X241833750Y-183038750D03*
D21*
X238283750Y-183038750D03*
%TD*%
D19*
%TO.C,MX9*%
X236061250Y-111918750D03*
D20*
X230981250Y-111918750D03*
D19*
X225901250Y-111918750D03*
D21*
X227171250Y-109378750D03*
D22*
X223621250Y-109378750D03*
X237071250Y-106838750D03*
D21*
X233521250Y-106838750D03*
%TD*%
D17*
%TO.C,D6*%
X138906250Y-118331250D03*
X138906250Y-115031250D03*
%TD*%
D19*
%TO.C,MX5*%
X159861250Y-111918750D03*
D20*
X154781250Y-111918750D03*
D19*
X149701250Y-111918750D03*
D21*
X150971250Y-109378750D03*
D22*
X147421250Y-109378750D03*
X160871250Y-106838750D03*
D21*
X157321250Y-106838750D03*
%TD*%
D17*
%TO.C,D5*%
X119856250Y-118268750D03*
X119856250Y-114968750D03*
%TD*%
D19*
%TO.C,MX26*%
X283686250Y-130968750D03*
D20*
X278606250Y-130968750D03*
D19*
X273526250Y-130968750D03*
D21*
X274796250Y-128428750D03*
D22*
X271246250Y-128428750D03*
X284696250Y-125888750D03*
D21*
X281146250Y-125888750D03*
%TD*%
D19*
%TO.C,MX1*%
X78581250Y-106838750D03*
D20*
X78581250Y-111918750D03*
D19*
X78581250Y-116998750D03*
D21*
X76041250Y-115728750D03*
D23*
X76041250Y-119278750D03*
X73501250Y-105828750D03*
D21*
X73501250Y-109378750D03*
%TD*%
D19*
%TO.C,MX10*%
X255111250Y-111918750D03*
D20*
X250031250Y-111918750D03*
D19*
X244951250Y-111918750D03*
D21*
X246221250Y-109378750D03*
D22*
X242671250Y-109378750D03*
X256121250Y-106838750D03*
D21*
X252571250Y-106838750D03*
%TD*%
D19*
%TO.C,MX19*%
X150336250Y-130968750D03*
D20*
X145256250Y-130968750D03*
D19*
X140176250Y-130968750D03*
D21*
X141446250Y-128428750D03*
D22*
X137896250Y-128428750D03*
X151346250Y-125888750D03*
D21*
X147796250Y-125888750D03*
%TD*%
D17*
%TO.C,D47*%
X124618750Y-175481250D03*
X124618750Y-172181250D03*
%TD*%
%TO.C,D19*%
X110331250Y-137318750D03*
X110331250Y-134018750D03*
%TD*%
%TO.C,D55*%
X277018750Y-175481250D03*
X277018750Y-172181250D03*
%TD*%
D24*
%TO.C,U3*%
X219981000Y-193250000D03*
X218881000Y-193250000D03*
X217781000Y-193250000D03*
X216681000Y-193250000D03*
X215581000Y-193250000D03*
X214481000Y-193250000D03*
X213381000Y-193250000D03*
X212281000Y-193250000D03*
X211181000Y-193250000D03*
X210081000Y-193250000D03*
X208981000Y-193250000D03*
X207881000Y-193250000D03*
X206781000Y-193250000D03*
D25*
X205281000Y-192000000D03*
X205281000Y-190900000D03*
X205281000Y-189800000D03*
X205281000Y-188700000D03*
X205281000Y-187600000D03*
X205281000Y-186500000D03*
X205281000Y-185400000D03*
X205281000Y-184300000D03*
X205281000Y-183200000D03*
X205281000Y-182100000D03*
X205281000Y-181000000D03*
D24*
X206781000Y-179750000D03*
X207881000Y-179750000D03*
X208981000Y-179750000D03*
X210081000Y-179750000D03*
X211181000Y-179750000D03*
X212281000Y-179750000D03*
X213381000Y-179750000D03*
X214481000Y-179750000D03*
X215581000Y-179750000D03*
X216681000Y-179750000D03*
X217781000Y-179750000D03*
X218881000Y-179750000D03*
X219981000Y-179750000D03*
X217781000Y-190750000D03*
X216681000Y-190750000D03*
X215581000Y-190750000D03*
X214481000Y-190750000D03*
X213381000Y-190750000D03*
X212281000Y-190750000D03*
X211181000Y-190750000D03*
X210081000Y-190750000D03*
X208981000Y-190750000D03*
X217781000Y-182250000D03*
X216681000Y-182250000D03*
X215581000Y-182250000D03*
X214481000Y-182250000D03*
X213381000Y-182250000D03*
X212281000Y-182250000D03*
X211181000Y-182250000D03*
X210081000Y-182250000D03*
X208981000Y-182250000D03*
%TD*%
D19*
%TO.C,MX45*%
X126523750Y-169068750D03*
D20*
X121443750Y-169068750D03*
D19*
X116363750Y-169068750D03*
D21*
X117633750Y-166528750D03*
D22*
X114083750Y-166528750D03*
X127533750Y-163988750D03*
D21*
X123983750Y-163988750D03*
%TD*%
D26*
%TO.C,U1*%
X87042500Y-111950000D03*
X87042500Y-111000000D03*
X87042500Y-110050000D03*
X89317500Y-110050000D03*
X89317500Y-111000000D03*
X89317500Y-111950000D03*
%TD*%
D19*
%TO.C,MX63*%
X297973750Y-188118750D03*
D20*
X292893750Y-188118750D03*
D19*
X287813750Y-188118750D03*
D21*
X289083750Y-185578750D03*
D22*
X285533750Y-185578750D03*
X298983750Y-183038750D03*
D21*
X295433750Y-183038750D03*
%TD*%
D17*
%TO.C,D14*%
X291306250Y-118331250D03*
X291306250Y-115031250D03*
%TD*%
%TO.C,D24*%
X205581250Y-137381250D03*
X205581250Y-134081250D03*
%TD*%
D19*
%TO.C,MX35*%
X193198750Y-150018750D03*
D20*
X188118750Y-150018750D03*
D19*
X183038750Y-150018750D03*
D21*
X184308750Y-147478750D03*
D22*
X180758750Y-147478750D03*
X194208750Y-144938750D03*
D21*
X190658750Y-144938750D03*
%TD*%
D19*
%TO.C,MX16*%
X88423750Y-130968750D03*
D20*
X83343750Y-130968750D03*
D19*
X78263750Y-130968750D03*
D21*
X79533750Y-128428750D03*
D22*
X75983750Y-128428750D03*
X89433750Y-125888750D03*
D21*
X85883750Y-125888750D03*
%TD*%
D19*
%TO.C,MX53*%
X278923750Y-169068750D03*
D20*
X273843750Y-169068750D03*
D19*
X268763750Y-169068750D03*
D21*
X270033750Y-166528750D03*
D22*
X266483750Y-166528750D03*
X279933750Y-163988750D03*
D21*
X276383750Y-163988750D03*
%TD*%
D27*
%TO.C,SW3*%
X194000000Y-187537500D03*
X188000000Y-187537500D03*
X194000000Y-191287500D03*
X188000000Y-191287500D03*
%TD*%
D19*
%TO.C,MX30*%
X90805000Y-150018750D03*
D20*
X85725000Y-150018750D03*
D19*
X80645000Y-150018750D03*
D21*
X81915000Y-147478750D03*
D22*
X78365000Y-147478750D03*
X91815000Y-144938750D03*
D21*
X88265000Y-144938750D03*
%TD*%
D17*
%TO.C,D38*%
X210343750Y-156431250D03*
X210343750Y-153131250D03*
%TD*%
D28*
%TO.C,F1*%
X86042500Y-115093750D03*
X90317500Y-115093750D03*
%TD*%
D17*
%TO.C,D36*%
X172243750Y-156431250D03*
X172243750Y-153131250D03*
%TD*%
D19*
%TO.C,MX23*%
X226536250Y-130968750D03*
D20*
X221456250Y-130968750D03*
D19*
X216376250Y-130968750D03*
D21*
X217646250Y-128428750D03*
D22*
X214096250Y-128428750D03*
X227546250Y-125888750D03*
D21*
X223996250Y-125888750D03*
%TD*%
D19*
%TO.C,MX11*%
X274161250Y-111918750D03*
D20*
X269081250Y-111918750D03*
D19*
X264001250Y-111918750D03*
D21*
X265271250Y-109378750D03*
D22*
X261721250Y-109378750D03*
X275171250Y-106838750D03*
D21*
X271621250Y-106838750D03*
%TD*%
D17*
%TO.C,D3*%
X81756250Y-108806250D03*
X81756250Y-105506250D03*
%TD*%
D19*
%TO.C,MX46*%
X145573750Y-169068750D03*
D20*
X140493750Y-169068750D03*
D19*
X135413750Y-169068750D03*
D21*
X136683750Y-166528750D03*
D22*
X133133750Y-166528750D03*
X146583750Y-163988750D03*
D21*
X143033750Y-163988750D03*
%TD*%
D17*
%TO.C,D11*%
X234156250Y-118331250D03*
X234156250Y-115031250D03*
%TD*%
%TO.C,D23*%
X186531250Y-137381250D03*
X186531250Y-134081250D03*
%TD*%
%TO.C,D12*%
X253206250Y-118331250D03*
X253206250Y-115031250D03*
%TD*%
D19*
%TO.C,MX18*%
X131286250Y-130968750D03*
D20*
X126206250Y-130968750D03*
D19*
X121126250Y-130968750D03*
D21*
X122396250Y-128428750D03*
D22*
X118846250Y-128428750D03*
X132296250Y-125888750D03*
D21*
X128746250Y-125888750D03*
%TD*%
D19*
%TO.C,MX49*%
X202723750Y-169068750D03*
D20*
X197643750Y-169068750D03*
D19*
X192563750Y-169068750D03*
D21*
X193833750Y-166528750D03*
D22*
X190283750Y-166528750D03*
X203733750Y-163988750D03*
D21*
X200183750Y-163988750D03*
%TD*%
D29*
%TO.C,J1*%
X85216250Y-106867500D03*
X90996250Y-106867500D03*
D30*
X83781250Y-107357500D03*
X92431250Y-107357500D03*
D31*
X83781250Y-103187500D03*
X92431250Y-103187500D03*
%TD*%
D17*
%TO.C,D27*%
X262731250Y-137381250D03*
X262731250Y-134081250D03*
%TD*%
D27*
%TO.C,SW2*%
X194000000Y-181625000D03*
X188000000Y-181625000D03*
X194000000Y-185375000D03*
X188000000Y-185375000D03*
%TD*%
D17*
%TO.C,D17*%
X348456250Y-118393750D03*
X348456250Y-115093750D03*
%TD*%
D19*
%TO.C,MX22*%
X207486250Y-130968750D03*
D20*
X202406250Y-130968750D03*
D19*
X197326250Y-130968750D03*
D21*
X198596250Y-128428750D03*
D22*
X195046250Y-128428750D03*
X208496250Y-125888750D03*
D21*
X204946250Y-125888750D03*
%TD*%
D17*
%TO.C,D29*%
X300831250Y-137381250D03*
X300831250Y-134081250D03*
%TD*%
%TO.C,D18*%
X86518750Y-137318750D03*
X86518750Y-134018750D03*
%TD*%
%TO.C,D62*%
X181768750Y-194531250D03*
X181768750Y-191231250D03*
%TD*%
D32*
%TO.C,SW1*%
X70500000Y-145900000D03*
X70500000Y-139100000D03*
D33*
X73250000Y-145000000D03*
X73250000Y-142500000D03*
X73250000Y-140000000D03*
%TD*%
D17*
%TO.C,D48*%
X143668750Y-175481250D03*
X143668750Y-172181250D03*
%TD*%
D19*
%TO.C,MX29*%
X345598750Y-130968750D03*
D20*
X340518750Y-130968750D03*
D19*
X335438750Y-130968750D03*
D21*
X336708750Y-128428750D03*
D22*
X333158750Y-128428750D03*
X346608750Y-125888750D03*
D21*
X343058750Y-125888750D03*
%TD*%
D17*
%TO.C,D39*%
X229393750Y-156431250D03*
X229393750Y-153131250D03*
%TD*%
D19*
%TO.C,MX39*%
X269398750Y-150018750D03*
D20*
X264318750Y-150018750D03*
D19*
X259238750Y-150018750D03*
D21*
X260508750Y-147478750D03*
D22*
X256958750Y-147478750D03*
X270408750Y-144938750D03*
D21*
X266858750Y-144938750D03*
%TD*%
D19*
%TO.C,MX4*%
X140811250Y-111918750D03*
D20*
X135731250Y-111918750D03*
D19*
X130651250Y-111918750D03*
D21*
X131921250Y-109378750D03*
D22*
X128371250Y-109378750D03*
X141821250Y-106838750D03*
D21*
X138271250Y-106838750D03*
%TD*%
D19*
%TO.C,MX55*%
X324167500Y-169068750D03*
D20*
X319087500Y-169068750D03*
D19*
X314007500Y-169068750D03*
D21*
X315277500Y-166528750D03*
D22*
X311727500Y-166528750D03*
X325177500Y-163988750D03*
D21*
X321627500Y-163988750D03*
%TD*%
D19*
%TO.C,MX56*%
X350361250Y-169068750D03*
D20*
X345281250Y-169068750D03*
D19*
X340201250Y-169068750D03*
D21*
X341471250Y-166528750D03*
D22*
X337921250Y-166528750D03*
X351371250Y-163988750D03*
D21*
X347821250Y-163988750D03*
%TD*%
D17*
%TO.C,D53*%
X238918750Y-175543750D03*
X238918750Y-172243750D03*
%TD*%
D34*
%TO.C,U4*%
X200500000Y-190981250D03*
X200500000Y-192881250D03*
X198225000Y-191931250D03*
%TD*%
D17*
%TO.C,D37*%
X191293750Y-156431250D03*
X191293750Y-153131250D03*
%TD*%
D19*
%TO.C,MX33*%
X155098750Y-150018750D03*
D20*
X150018750Y-150018750D03*
D19*
X144938750Y-150018750D03*
D21*
X146208750Y-147478750D03*
D22*
X142658750Y-147478750D03*
X156108750Y-144938750D03*
D21*
X152558750Y-144938750D03*
%TD*%
D35*
%TO.C,L1*%
X84162500Y-112500000D03*
X85132500Y-112500000D03*
%TD*%
D19*
%TO.C,MX43*%
X86042500Y-169068750D03*
D20*
X80962500Y-169068750D03*
D19*
X75882500Y-169068750D03*
D21*
X77152500Y-166528750D03*
D22*
X73602500Y-166528750D03*
X87052500Y-163988750D03*
D21*
X83502500Y-163988750D03*
%TD*%
D19*
%TO.C,MX41*%
X307498750Y-150018750D03*
D20*
X302418750Y-150018750D03*
D19*
X297338750Y-150018750D03*
D21*
X298608750Y-147478750D03*
D22*
X295058750Y-147478750D03*
X308508750Y-144938750D03*
D21*
X304958750Y-144938750D03*
%TD*%
D17*
%TO.C,D35*%
X153193750Y-156431250D03*
X153193750Y-153131250D03*
%TD*%
D18*
%TO.C,R6*%
X78500000Y-138990000D03*
X78500000Y-140010000D03*
%TD*%
D17*
%TO.C,D28*%
X281781250Y-137381250D03*
X281781250Y-134081250D03*
%TD*%
%TO.C,D57*%
X348456250Y-175481250D03*
X348456250Y-172181250D03*
%TD*%
D19*
%TO.C,MX27*%
X302736250Y-130968750D03*
D20*
X297656250Y-130968750D03*
D19*
X292576250Y-130968750D03*
D21*
X293846250Y-128428750D03*
D22*
X290296250Y-128428750D03*
X303746250Y-125888750D03*
D21*
X300196250Y-125888750D03*
%TD*%
D19*
%TO.C,MX64*%
X317023750Y-188118750D03*
D20*
X311943750Y-188118750D03*
D19*
X306863750Y-188118750D03*
D21*
X308133750Y-185578750D03*
D22*
X304583750Y-185578750D03*
X318033750Y-183038750D03*
D21*
X314483750Y-183038750D03*
%TD*%
D19*
%TO.C,MX28*%
X321786250Y-130968750D03*
D20*
X316706250Y-130968750D03*
D19*
X311626250Y-130968750D03*
D21*
X312896250Y-128428750D03*
D22*
X309346250Y-128428750D03*
X322796250Y-125888750D03*
D21*
X319246250Y-125888750D03*
%TD*%
D19*
%TO.C,MX50*%
X221773750Y-169068750D03*
D20*
X216693750Y-169068750D03*
D19*
X211613750Y-169068750D03*
D21*
X212883750Y-166528750D03*
D22*
X209333750Y-166528750D03*
X222783750Y-163988750D03*
D21*
X219233750Y-163988750D03*
%TD*%
D17*
%TO.C,D46*%
X105568750Y-175481250D03*
X105568750Y-172181250D03*
%TD*%
%TO.C,D31*%
X343693750Y-137381250D03*
X343693750Y-134081250D03*
%TD*%
D19*
%TO.C,MX48*%
X183673750Y-169068750D03*
D20*
X178593750Y-169068750D03*
D19*
X173513750Y-169068750D03*
D21*
X174783750Y-166528750D03*
D22*
X171233750Y-166528750D03*
X184683750Y-163988750D03*
D21*
X181133750Y-163988750D03*
%TD*%
D19*
%TO.C,MX44*%
X107473750Y-169068750D03*
D20*
X102393750Y-169068750D03*
D19*
X97313750Y-169068750D03*
D21*
X98583750Y-166528750D03*
D22*
X95033750Y-166528750D03*
X108483750Y-163988750D03*
D21*
X104933750Y-163988750D03*
%TD*%
D19*
%TO.C,MX34*%
X174148750Y-150018750D03*
D20*
X169068750Y-150018750D03*
D19*
X163988750Y-150018750D03*
D21*
X165258750Y-147478750D03*
D22*
X161708750Y-147478750D03*
X175158750Y-144938750D03*
D21*
X171608750Y-144938750D03*
%TD*%
D19*
%TO.C,MX2*%
X97631250Y-116998750D03*
D20*
X97631250Y-111918750D03*
D19*
X97631250Y-106838750D03*
D21*
X100171250Y-108108750D03*
D36*
X100171250Y-104558750D03*
X102711250Y-118008750D03*
D21*
X102711250Y-114458750D03*
%TD*%
D17*
%TO.C,D7*%
X157956250Y-118268750D03*
X157956250Y-114968750D03*
%TD*%
%TO.C,D9*%
X196056250Y-118331250D03*
X196056250Y-115031250D03*
%TD*%
D19*
%TO.C,MX38*%
X250348750Y-150018750D03*
D20*
X245268750Y-150018750D03*
D19*
X240188750Y-150018750D03*
D21*
X241458750Y-147478750D03*
D22*
X237908750Y-147478750D03*
X251358750Y-144938750D03*
D21*
X247808750Y-144938750D03*
%TD*%
D19*
%TO.C,MX24*%
X245586250Y-130968750D03*
D20*
X240506250Y-130968750D03*
D19*
X235426250Y-130968750D03*
D21*
X236696250Y-128428750D03*
D22*
X233146250Y-128428750D03*
X246596250Y-125888750D03*
D21*
X243046250Y-125888750D03*
%TD*%
D19*
%TO.C,MX13*%
X312261250Y-111918750D03*
D20*
X307181250Y-111918750D03*
D19*
X302101250Y-111918750D03*
D21*
X303371250Y-109378750D03*
D22*
X299821250Y-109378750D03*
X313271250Y-106838750D03*
D21*
X309721250Y-106838750D03*
%TD*%
D19*
%TO.C,MX3*%
X121761250Y-111918750D03*
D20*
X116681250Y-111918750D03*
D19*
X111601250Y-111918750D03*
D21*
X112871250Y-109378750D03*
D22*
X109321250Y-109378750D03*
X122771250Y-106838750D03*
D21*
X119221250Y-106838750D03*
%TD*%
D19*
%TO.C,MX36*%
X212248750Y-150018750D03*
D20*
X207168750Y-150018750D03*
D19*
X202088750Y-150018750D03*
D21*
X203358750Y-147478750D03*
D22*
X199808750Y-147478750D03*
X213258750Y-144938750D03*
D21*
X209708750Y-144938750D03*
%TD*%
D19*
%TO.C,MX31*%
X116998750Y-150018750D03*
D20*
X111918750Y-150018750D03*
D19*
X106838750Y-150018750D03*
D21*
X108108750Y-147478750D03*
D22*
X104558750Y-147478750D03*
X118008750Y-144938750D03*
D21*
X114458750Y-144938750D03*
%TD*%
D17*
%TO.C,D54*%
X257968750Y-175481250D03*
X257968750Y-172181250D03*
%TD*%
D37*
%TO.C,D32*%
X92150000Y-152500000D03*
X88850000Y-152500000D03*
%TD*%
D17*
%TO.C,D40*%
X248443750Y-156431250D03*
X248443750Y-153131250D03*
%TD*%
%TO.C,D58*%
X322262500Y-175481250D03*
X322262500Y-172181250D03*
%TD*%
D19*
%TO.C,MX58*%
X119380000Y-188118750D03*
D20*
X114300000Y-188118750D03*
D19*
X109220000Y-188118750D03*
D21*
X110490000Y-185578750D03*
D22*
X106940000Y-185578750D03*
X120390000Y-183038750D03*
D21*
X116840000Y-183038750D03*
%TD*%
D17*
%TO.C,D56*%
X296068750Y-175481250D03*
X296068750Y-172181250D03*
%TD*%
%TO.C,D67*%
X336550000Y-194531250D03*
X336550000Y-191231250D03*
%TD*%
D18*
%TO.C,R4*%
X81000000Y-136740000D03*
X81000000Y-137760000D03*
%TD*%
D17*
%TO.C,D34*%
X134143750Y-156431250D03*
X134143750Y-153131250D03*
%TD*%
%TO.C,D20*%
X129381250Y-137381250D03*
X129381250Y-134081250D03*
%TD*%
%TO.C,D43*%
X305593750Y-156431250D03*
X305593750Y-153131250D03*
%TD*%
D19*
%TO.C,MX20*%
X169386250Y-130968750D03*
D20*
X164306250Y-130968750D03*
D19*
X159226250Y-130968750D03*
D21*
X160496250Y-128428750D03*
D22*
X156946250Y-128428750D03*
X170396250Y-125888750D03*
D21*
X166846250Y-125888750D03*
%TD*%
D17*
%TO.C,D65*%
X296068750Y-194531250D03*
X296068750Y-191231250D03*
%TD*%
D38*
%TO.C,C8*%
X202000000Y-191980000D03*
X202000000Y-191020000D03*
%TD*%
D19*
%TO.C,MX14*%
X331311250Y-111918750D03*
D20*
X326231250Y-111918750D03*
D19*
X321151250Y-111918750D03*
D21*
X322421250Y-109378750D03*
D22*
X318871250Y-109378750D03*
X332321250Y-106838750D03*
D21*
X328771250Y-106838750D03*
%TD*%
D17*
%TO.C,D13*%
X272256250Y-118331250D03*
X272256250Y-115031250D03*
%TD*%
D19*
%TO.C,MX62*%
X278923750Y-188118750D03*
D20*
X273843750Y-188118750D03*
D19*
X268763750Y-188118750D03*
D21*
X270033750Y-185578750D03*
D22*
X266483750Y-185578750D03*
X279933750Y-183038750D03*
D21*
X276383750Y-183038750D03*
%TD*%
D17*
%TO.C,D8*%
X177006250Y-118268750D03*
X177006250Y-114968750D03*
%TD*%
%TO.C,D26*%
X243681250Y-137381250D03*
X243681250Y-134081250D03*
%TD*%
%TO.C,D21*%
X148431250Y-137381250D03*
X148431250Y-134081250D03*
%TD*%
D19*
%TO.C,MX17*%
X112236250Y-130968750D03*
D20*
X107156250Y-130968750D03*
D19*
X102076250Y-130968750D03*
D21*
X103346250Y-128428750D03*
D22*
X99796250Y-128428750D03*
X113246250Y-125888750D03*
D21*
X109696250Y-125888750D03*
%TD*%
D17*
%TO.C,D44*%
X336550000Y-156431250D03*
X336550000Y-153131250D03*
%TD*%
%TO.C,D30*%
X319881250Y-137381250D03*
X319881250Y-134081250D03*
%TD*%
%TO.C,D16*%
X329406250Y-118331250D03*
X329406250Y-115031250D03*
%TD*%
D39*
%TO.C,R5*%
X203500000Y-189520000D03*
X203500000Y-188500000D03*
%TD*%
D19*
%TO.C,MX60*%
X183673750Y-188118750D03*
D20*
X178593750Y-188118750D03*
D19*
X173513750Y-188118750D03*
D21*
X174783750Y-185578750D03*
D22*
X171233750Y-185578750D03*
X184683750Y-183038750D03*
D21*
X181133750Y-183038750D03*
%TD*%
D17*
%TO.C,D52*%
X219868750Y-175481250D03*
X219868750Y-172181250D03*
%TD*%
D19*
%TO.C,MX51*%
X240823750Y-169068750D03*
D20*
X235743750Y-169068750D03*
D19*
X230663750Y-169068750D03*
D21*
X231933750Y-166528750D03*
D22*
X228383750Y-166528750D03*
X241833750Y-163988750D03*
D21*
X238283750Y-163988750D03*
%TD*%
D17*
%TO.C,D50*%
X181768750Y-175481250D03*
X181768750Y-172181250D03*
%TD*%
%TO.C,D61*%
X141287500Y-194531250D03*
X141287500Y-191231250D03*
%TD*%
D19*
%TO.C,MX8*%
X217011250Y-111918750D03*
D20*
X211931250Y-111918750D03*
D19*
X206851250Y-111918750D03*
D21*
X208121250Y-109378750D03*
D22*
X204571250Y-109378750D03*
X218021250Y-106838750D03*
D21*
X214471250Y-106838750D03*
%TD*%
D17*
%TO.C,D33*%
X115093750Y-156431250D03*
X115093750Y-153131250D03*
%TD*%
%TO.C,D63*%
X238918750Y-194531250D03*
X238918750Y-191231250D03*
%TD*%
D19*
%TO.C,MX42*%
X338455000Y-150018750D03*
D20*
X333375000Y-150018750D03*
D19*
X328295000Y-150018750D03*
D21*
X329565000Y-147478750D03*
D22*
X326015000Y-147478750D03*
X339465000Y-144938750D03*
D21*
X335915000Y-144938750D03*
%TD*%
D17*
%TO.C,D10*%
X215106250Y-118268750D03*
X215106250Y-114968750D03*
%TD*%
D19*
%TO.C,MX32*%
X136048750Y-150018750D03*
D20*
X130968750Y-150018750D03*
D19*
X125888750Y-150018750D03*
D21*
X127158750Y-147478750D03*
D22*
X123608750Y-147478750D03*
X137058750Y-144938750D03*
D21*
X133508750Y-144938750D03*
%TD*%
D17*
%TO.C,D51*%
X200818750Y-175481250D03*
X200818750Y-172181250D03*
%TD*%
D19*
%TO.C,MX25*%
X264636250Y-130968750D03*
D20*
X259556250Y-130968750D03*
D19*
X254476250Y-130968750D03*
D21*
X255746250Y-128428750D03*
D22*
X252196250Y-128428750D03*
X265646250Y-125888750D03*
D21*
X262096250Y-125888750D03*
%TD*%
D19*
%TO.C,MX15*%
X350361250Y-111918750D03*
D20*
X345281250Y-111918750D03*
D19*
X340201250Y-111918750D03*
D21*
X341471250Y-109378750D03*
D22*
X337921250Y-109378750D03*
X351371250Y-106838750D03*
D21*
X347821250Y-106838750D03*
%TD*%
D19*
%TO.C,MX52*%
X259873750Y-169068750D03*
D20*
X254793750Y-169068750D03*
D19*
X249713750Y-169068750D03*
D21*
X250983750Y-166528750D03*
D22*
X247433750Y-166528750D03*
X260883750Y-163988750D03*
D21*
X257333750Y-163988750D03*
%TD*%
D19*
%TO.C,MX37*%
X231298750Y-150018750D03*
D20*
X226218750Y-150018750D03*
D19*
X221138750Y-150018750D03*
D21*
X222408750Y-147478750D03*
D22*
X218858750Y-147478750D03*
X232308750Y-144938750D03*
D21*
X228758750Y-144938750D03*
%TD*%
D19*
%TO.C,MX47*%
X164623750Y-169068750D03*
D20*
X159543750Y-169068750D03*
D19*
X154463750Y-169068750D03*
D21*
X155733750Y-166528750D03*
D22*
X152183750Y-166528750D03*
X165633750Y-163988750D03*
D21*
X162083750Y-163988750D03*
%TD*%
D19*
%TO.C,MX6*%
X178911250Y-111918750D03*
D20*
X173831250Y-111918750D03*
D19*
X168751250Y-111918750D03*
D21*
X170021250Y-109378750D03*
D22*
X166471250Y-109378750D03*
X179921250Y-106838750D03*
D21*
X176371250Y-106838750D03*
%TD*%
D40*
%TO.C,U5*%
X76350000Y-136500000D03*
X76350000Y-136000000D03*
X76350000Y-135500000D03*
X76350000Y-135000000D03*
D41*
X77037500Y-134312500D03*
X77537500Y-134312500D03*
X78037500Y-134312500D03*
X78537500Y-134312500D03*
D40*
X79225000Y-135000000D03*
X79225000Y-135500000D03*
X79225000Y-136000000D03*
X79225000Y-136500000D03*
D41*
X78537500Y-137187500D03*
X78037500Y-137187500D03*
X77537500Y-137187500D03*
X77037500Y-137187500D03*
D42*
X77787500Y-135750000D03*
%TD*%
D19*
%TO.C,MX7*%
X197961250Y-111918750D03*
D20*
X192881250Y-111918750D03*
D19*
X187801250Y-111918750D03*
D21*
X189071250Y-109378750D03*
D22*
X185521250Y-109378750D03*
X198971250Y-106838750D03*
D21*
X195421250Y-106838750D03*
%TD*%
D17*
%TO.C,D66*%
X315118750Y-194593750D03*
X315118750Y-191293750D03*
%TD*%
D39*
%TO.C,R9*%
X80000000Y-142510000D03*
X80000000Y-141490000D03*
%TD*%
D43*
%TO.C,R2*%
X85157500Y-110331250D03*
X84137500Y-110331250D03*
%TD*%
D44*
%TO.C,Q1*%
X78500000Y-144000000D03*
X76600000Y-144000000D03*
X77550000Y-142125000D03*
%TD*%
D18*
%TO.C,R10*%
X81000000Y-141500000D03*
X81000000Y-142520000D03*
%TD*%
%TO.C,R8*%
X74000000Y-136500000D03*
X74000000Y-137520000D03*
%TD*%
D19*
%TO.C,MX54*%
X297973750Y-169068750D03*
D20*
X292893750Y-169068750D03*
D19*
X287813750Y-169068750D03*
D21*
X289083750Y-166528750D03*
D22*
X285533750Y-166528750D03*
X298983750Y-163988750D03*
D21*
X295433750Y-163988750D03*
%TD*%
D17*
%TO.C,D64*%
X277018750Y-194531250D03*
X277018750Y-191231250D03*
%TD*%
%TO.C,D59*%
X93662500Y-194531250D03*
X93662500Y-191231250D03*
%TD*%
D45*
%TO.C,J2*%
X75150000Y-156000000D03*
X75150000Y-158000000D03*
D46*
X80900000Y-153650000D03*
X80900000Y-160350000D03*
%TD*%
D19*
%TO.C,MX65*%
X338455000Y-188118750D03*
D20*
X333375000Y-188118750D03*
D19*
X328295000Y-188118750D03*
D21*
X329565000Y-185578750D03*
D22*
X326015000Y-185578750D03*
X339465000Y-183038750D03*
D21*
X335915000Y-183038750D03*
%TD*%
D17*
%TO.C,D4*%
X94456250Y-118331250D03*
X94456250Y-115031250D03*
%TD*%
%TO.C,D41*%
X267493750Y-156431250D03*
X267493750Y-153131250D03*
%TD*%
D19*
%TO.C,MX40*%
X288448750Y-150018750D03*
D20*
X283368750Y-150018750D03*
D19*
X278288750Y-150018750D03*
D21*
X279558750Y-147478750D03*
D22*
X276008750Y-147478750D03*
X289458750Y-144938750D03*
D21*
X285908750Y-144938750D03*
%TD*%
D19*
%TO.C,MX12*%
X293211250Y-111918750D03*
D20*
X288131250Y-111918750D03*
D19*
X283051250Y-111918750D03*
D21*
X284321250Y-109378750D03*
D22*
X280771250Y-109378750D03*
X294221250Y-106838750D03*
D21*
X290671250Y-106838750D03*
%TD*%
D43*
%TO.C,R1*%
X92075000Y-110331250D03*
X91055000Y-110331250D03*
%TD*%
D19*
%TO.C,MX59*%
X143192500Y-188118750D03*
D20*
X138112500Y-188118750D03*
D19*
X133032500Y-188118750D03*
D21*
X134302500Y-185578750D03*
D22*
X130752500Y-185578750D03*
X144202500Y-183038750D03*
D21*
X140652500Y-183038750D03*
%TD*%
D17*
%TO.C,D25*%
X224631250Y-137381250D03*
X224631250Y-134081250D03*
%TD*%
%TO.C,D15*%
X310356250Y-118331250D03*
X310356250Y-115031250D03*
%TD*%
%TO.C,D22*%
X167481250Y-137381250D03*
X167481250Y-134081250D03*
%TD*%
D19*
%TO.C,MX57*%
X95567500Y-188118750D03*
D20*
X90487500Y-188118750D03*
D19*
X85407500Y-188118750D03*
D21*
X86677500Y-185578750D03*
D22*
X83127500Y-185578750D03*
X96577500Y-183038750D03*
D21*
X93027500Y-183038750D03*
%TD*%
M02*
