%TF.GenerationSoftware,KiCad,Pcbnew,9.0.1*%
%TF.CreationDate,2025-05-16T22:45:18+09:00*%
%TF.ProjectId,H360,48333630-2e6b-4696-9361-645f70636258,rev?*%
%TF.SameCoordinates,Original*%
%TF.FileFunction,Other,User*%
%FSLAX46Y46*%
G04 Gerber Fmt 4.6, Leading zero omitted, Abs format (unit mm)*
G04 Created by KiCad (PCBNEW 9.0.1) date 2025-05-16 22:45:18*
%MOMM*%
%LPD*%
G01*
G04 APERTURE LIST*
%ADD10C,0.050000*%
G04 APERTURE END LIST*
D10*
%TO.C,REF\u002A\u002A*%
X204730000Y-160230000D02*
X204730000Y-173930000D01*
X204730000Y-173930000D02*
X208270000Y-173930000D01*
X208270000Y-160230000D02*
X204730000Y-160230000D01*
X208270000Y-173930000D02*
X208270000Y-160230000D01*
%TO.C,MX21*%
X190356250Y-123968750D02*
X176356250Y-123968750D01*
X176356250Y-137968750D01*
X190356250Y-137968750D01*
X190356250Y-123968750D01*
%TO.C,MX61*%
X242743750Y-181118750D02*
X228743750Y-181118750D01*
X228743750Y-195118750D01*
X242743750Y-195118750D01*
X242743750Y-181118750D01*
%TO.C,MX9*%
X237981250Y-104918750D02*
X223981250Y-104918750D01*
X223981250Y-118918750D01*
X237981250Y-118918750D01*
X237981250Y-104918750D01*
%TO.C,MX5*%
X161781250Y-104918750D02*
X147781250Y-104918750D01*
X147781250Y-118918750D01*
X161781250Y-118918750D01*
X161781250Y-104918750D01*
%TO.C,MX26*%
X285606250Y-123968750D02*
X271606250Y-123968750D01*
X271606250Y-137968750D01*
X285606250Y-137968750D01*
X285606250Y-123968750D01*
%TO.C,MX1*%
X71581250Y-104918750D02*
X85581250Y-104918750D01*
X85581250Y-118918750D01*
X71581250Y-118918750D01*
X71581250Y-104918750D01*
%TO.C,MX10*%
X257031250Y-104918750D02*
X243031250Y-104918750D01*
X243031250Y-118918750D01*
X257031250Y-118918750D01*
X257031250Y-104918750D01*
%TO.C,MX19*%
X152256250Y-123968750D02*
X138256250Y-123968750D01*
X138256250Y-137968750D01*
X152256250Y-137968750D01*
X152256250Y-123968750D01*
%TO.C,MX45*%
X128443750Y-162068750D02*
X114443750Y-162068750D01*
X114443750Y-176068750D01*
X128443750Y-176068750D01*
X128443750Y-162068750D01*
%TO.C,MX63*%
X299893750Y-181118750D02*
X285893750Y-181118750D01*
X285893750Y-195118750D01*
X299893750Y-195118750D01*
X299893750Y-181118750D01*
%TO.C,MX35*%
X195118750Y-143018750D02*
X181118750Y-143018750D01*
X181118750Y-157018750D01*
X195118750Y-157018750D01*
X195118750Y-143018750D01*
%TO.C,MX16*%
X90343750Y-123968750D02*
X76343750Y-123968750D01*
X76343750Y-137968750D01*
X90343750Y-137968750D01*
X90343750Y-123968750D01*
%TO.C,MX53*%
X280843750Y-162068750D02*
X266843750Y-162068750D01*
X266843750Y-176068750D01*
X280843750Y-176068750D01*
X280843750Y-162068750D01*
%TO.C,MX30*%
X92725000Y-143018750D02*
X78725000Y-143018750D01*
X78725000Y-157018750D01*
X92725000Y-157018750D01*
X92725000Y-143018750D01*
%TO.C,MX23*%
X228456250Y-123968750D02*
X214456250Y-123968750D01*
X214456250Y-137968750D01*
X228456250Y-137968750D01*
X228456250Y-123968750D01*
%TO.C,MX11*%
X276081250Y-104918750D02*
X262081250Y-104918750D01*
X262081250Y-118918750D01*
X276081250Y-118918750D01*
X276081250Y-104918750D01*
%TO.C,MX46*%
X147493750Y-162068750D02*
X133493750Y-162068750D01*
X133493750Y-176068750D01*
X147493750Y-176068750D01*
X147493750Y-162068750D01*
%TO.C,MX18*%
X133206250Y-123968750D02*
X119206250Y-123968750D01*
X119206250Y-137968750D01*
X133206250Y-137968750D01*
X133206250Y-123968750D01*
%TO.C,MX49*%
X204643750Y-162068750D02*
X190643750Y-162068750D01*
X190643750Y-176068750D01*
X204643750Y-176068750D01*
X204643750Y-162068750D01*
%TO.C,MX22*%
X209406250Y-123968750D02*
X195406250Y-123968750D01*
X195406250Y-137968750D01*
X209406250Y-137968750D01*
X209406250Y-123968750D01*
%TO.C,MX29*%
X347518750Y-123968750D02*
X333518750Y-123968750D01*
X333518750Y-137968750D01*
X347518750Y-137968750D01*
X347518750Y-123968750D01*
%TO.C,MX39*%
X271318750Y-143018750D02*
X257318750Y-143018750D01*
X257318750Y-157018750D01*
X271318750Y-157018750D01*
X271318750Y-143018750D01*
%TO.C,MX4*%
X142731250Y-104918750D02*
X128731250Y-104918750D01*
X128731250Y-118918750D01*
X142731250Y-118918750D01*
X142731250Y-104918750D01*
%TO.C,MX55*%
X326087500Y-162068750D02*
X312087500Y-162068750D01*
X312087500Y-176068750D01*
X326087500Y-176068750D01*
X326087500Y-162068750D01*
%TO.C,MX56*%
X352281250Y-162068750D02*
X338281250Y-162068750D01*
X338281250Y-176068750D01*
X352281250Y-176068750D01*
X352281250Y-162068750D01*
%TO.C,MX33*%
X157018750Y-143018750D02*
X143018750Y-143018750D01*
X143018750Y-157018750D01*
X157018750Y-157018750D01*
X157018750Y-143018750D01*
%TO.C,MX43*%
X87962500Y-162068750D02*
X73962500Y-162068750D01*
X73962500Y-176068750D01*
X87962500Y-176068750D01*
X87962500Y-162068750D01*
%TO.C,MX41*%
X309418750Y-143018750D02*
X295418750Y-143018750D01*
X295418750Y-157018750D01*
X309418750Y-157018750D01*
X309418750Y-143018750D01*
%TO.C,MX27*%
X304656250Y-123968750D02*
X290656250Y-123968750D01*
X290656250Y-137968750D01*
X304656250Y-137968750D01*
X304656250Y-123968750D01*
%TO.C,MX64*%
X318943750Y-181118750D02*
X304943750Y-181118750D01*
X304943750Y-195118750D01*
X318943750Y-195118750D01*
X318943750Y-181118750D01*
%TO.C,MX28*%
X323706250Y-123968750D02*
X309706250Y-123968750D01*
X309706250Y-137968750D01*
X323706250Y-137968750D01*
X323706250Y-123968750D01*
%TO.C,MX50*%
X223693750Y-162068750D02*
X209693750Y-162068750D01*
X209693750Y-176068750D01*
X223693750Y-176068750D01*
X223693750Y-162068750D01*
%TO.C,MX48*%
X185593750Y-162068750D02*
X171593750Y-162068750D01*
X171593750Y-176068750D01*
X185593750Y-176068750D01*
X185593750Y-162068750D01*
%TO.C,MX44*%
X109393750Y-162068750D02*
X95393750Y-162068750D01*
X95393750Y-176068750D01*
X109393750Y-176068750D01*
X109393750Y-162068750D01*
%TO.C,MX34*%
X176068750Y-143018750D02*
X162068750Y-143018750D01*
X162068750Y-157018750D01*
X176068750Y-157018750D01*
X176068750Y-143018750D01*
%TO.C,MX2*%
X104631250Y-118918750D02*
X90631250Y-118918750D01*
X90631250Y-104918750D01*
X104631250Y-104918750D01*
X104631250Y-118918750D01*
%TO.C,MX38*%
X252268750Y-143018750D02*
X238268750Y-143018750D01*
X238268750Y-157018750D01*
X252268750Y-157018750D01*
X252268750Y-143018750D01*
%TO.C,MX24*%
X247506250Y-123968750D02*
X233506250Y-123968750D01*
X233506250Y-137968750D01*
X247506250Y-137968750D01*
X247506250Y-123968750D01*
%TO.C,MX13*%
X314181250Y-104918750D02*
X300181250Y-104918750D01*
X300181250Y-118918750D01*
X314181250Y-118918750D01*
X314181250Y-104918750D01*
%TO.C,MX3*%
X123681250Y-104918750D02*
X109681250Y-104918750D01*
X109681250Y-118918750D01*
X123681250Y-118918750D01*
X123681250Y-104918750D01*
%TO.C,MX36*%
X214168750Y-143018750D02*
X200168750Y-143018750D01*
X200168750Y-157018750D01*
X214168750Y-157018750D01*
X214168750Y-143018750D01*
%TO.C,MX31*%
X118918750Y-143018750D02*
X104918750Y-143018750D01*
X104918750Y-157018750D01*
X118918750Y-157018750D01*
X118918750Y-143018750D01*
%TO.C,MX58*%
X121300000Y-181118750D02*
X107300000Y-181118750D01*
X107300000Y-195118750D01*
X121300000Y-195118750D01*
X121300000Y-181118750D01*
%TO.C,MX20*%
X171306250Y-123968750D02*
X157306250Y-123968750D01*
X157306250Y-137968750D01*
X171306250Y-137968750D01*
X171306250Y-123968750D01*
%TO.C,MX14*%
X333231250Y-104918750D02*
X319231250Y-104918750D01*
X319231250Y-118918750D01*
X333231250Y-118918750D01*
X333231250Y-104918750D01*
%TO.C,MX62*%
X280843750Y-181118750D02*
X266843750Y-181118750D01*
X266843750Y-195118750D01*
X280843750Y-195118750D01*
X280843750Y-181118750D01*
%TO.C,MX17*%
X114156250Y-123968750D02*
X100156250Y-123968750D01*
X100156250Y-137968750D01*
X114156250Y-137968750D01*
X114156250Y-123968750D01*
%TO.C,MX60*%
X185593750Y-181118750D02*
X171593750Y-181118750D01*
X171593750Y-195118750D01*
X185593750Y-195118750D01*
X185593750Y-181118750D01*
%TO.C,MX51*%
X242743750Y-162068750D02*
X228743750Y-162068750D01*
X228743750Y-176068750D01*
X242743750Y-176068750D01*
X242743750Y-162068750D01*
%TO.C,MX8*%
X218931250Y-104918750D02*
X204931250Y-104918750D01*
X204931250Y-118918750D01*
X218931250Y-118918750D01*
X218931250Y-104918750D01*
%TO.C,MX42*%
X340375000Y-143018750D02*
X326375000Y-143018750D01*
X326375000Y-157018750D01*
X340375000Y-157018750D01*
X340375000Y-143018750D01*
%TO.C,MX32*%
X137968750Y-143018750D02*
X123968750Y-143018750D01*
X123968750Y-157018750D01*
X137968750Y-157018750D01*
X137968750Y-143018750D01*
%TO.C,MX25*%
X266556250Y-123968750D02*
X252556250Y-123968750D01*
X252556250Y-137968750D01*
X266556250Y-137968750D01*
X266556250Y-123968750D01*
%TO.C,MX15*%
X352281250Y-104918750D02*
X338281250Y-104918750D01*
X338281250Y-118918750D01*
X352281250Y-118918750D01*
X352281250Y-104918750D01*
%TO.C,MX52*%
X261793750Y-162068750D02*
X247793750Y-162068750D01*
X247793750Y-176068750D01*
X261793750Y-176068750D01*
X261793750Y-162068750D01*
%TO.C,MX37*%
X233218750Y-143018750D02*
X219218750Y-143018750D01*
X219218750Y-157018750D01*
X233218750Y-157018750D01*
X233218750Y-143018750D01*
%TO.C,MX47*%
X166543750Y-162068750D02*
X152543750Y-162068750D01*
X152543750Y-176068750D01*
X166543750Y-176068750D01*
X166543750Y-162068750D01*
%TO.C,MX6*%
X180831250Y-104918750D02*
X166831250Y-104918750D01*
X166831250Y-118918750D01*
X180831250Y-118918750D01*
X180831250Y-104918750D01*
%TO.C,MX7*%
X199881250Y-104918750D02*
X185881250Y-104918750D01*
X185881250Y-118918750D01*
X199881250Y-118918750D01*
X199881250Y-104918750D01*
%TO.C,MX54*%
X299893750Y-162068750D02*
X285893750Y-162068750D01*
X285893750Y-176068750D01*
X299893750Y-176068750D01*
X299893750Y-162068750D01*
%TO.C,MX65*%
X340375000Y-181118750D02*
X326375000Y-181118750D01*
X326375000Y-195118750D01*
X340375000Y-195118750D01*
X340375000Y-181118750D01*
%TO.C,MX40*%
X290368750Y-143018750D02*
X276368750Y-143018750D01*
X276368750Y-157018750D01*
X290368750Y-157018750D01*
X290368750Y-143018750D01*
%TO.C,MX12*%
X295131250Y-104918750D02*
X281131250Y-104918750D01*
X281131250Y-118918750D01*
X295131250Y-118918750D01*
X295131250Y-104918750D01*
%TO.C,MX59*%
X145112500Y-181118750D02*
X131112500Y-181118750D01*
X131112500Y-195118750D01*
X145112500Y-195118750D01*
X145112500Y-181118750D01*
%TO.C,MX57*%
X97487500Y-181118750D02*
X83487500Y-181118750D01*
X83487500Y-195118750D01*
X97487500Y-195118750D01*
X97487500Y-181118750D01*
%TD*%
M02*
